<svg width="95" height="74" fill="none" xmlns="http://www.w3.org/2000/svg">
    <path
        d="M.113 25.125c.24-.616.426-1.262.728-1.846 1.329-2.556 3.505-3.851 6.395-3.956 1.757-.063 3.516-.012 5.353-.012.176-1.539.35-3.012.513-4.482.315-2.834.567-5.678.951-8.504.499-3.662 4.085-6.126 8.16-5.77 5.846.508 11.697.961 17.546 1.446 6.28.52 12.558 1.059 18.838 1.575 5.541.455 11.086.889 16.627 1.339 4.464.363 8.932.689 13.39 1.113 4.248.404 6.866 3.892 6.457 8.338-.526 5.714-.98 11.433-1.472 17.15-.53 6.169-1.074 12.338-1.609 18.51-.136 1.573-.265 3.145-.406 4.718-.313 3.501-3.383 6.281-6.97 6.284-.983 0-1.965-.093-3.068-.149 0 1.283.02 2.552-.005 3.818-.024 1.334.043 2.685-.163 3.995-.538 3.413-3.48 5.824-7.004 5.824-22.357.007-44.714.007-67.072 0-3.36 0-6.146-2.14-6.993-5.325-.045-.17-.132-.331-.196-.497v-43.57ZM3.82 45.013v.979c0 6.987-.002 13.972 0 20.96 0 2.587 1.359 3.91 4.008 3.91h65.944c2.711 0 4.022-1.293 4.025-3.979.005-6.956.002-13.911.002-20.87v-1H3.82ZM81.55 57.15c1.08.087 2.06.238 3.036.228 1.673-.014 3.088-1.302 3.286-2.914.097-.781.136-1.573.203-2.359.335-3.964.665-7.925 1.002-11.888.404-4.748.817-9.495 1.221-14.245.337-3.961.622-7.93 1.01-11.886.274-2.817-.965-4.297-3.845-4.48-2.59-.163-5.175-.394-7.76-.606-4.8-.397-9.6-.81-14.404-1.205-4.803-.394-9.606-.762-14.409-1.156-4.833-.397-9.663-.814-14.496-1.213-4.924-.409-9.851-.789-14.773-1.217-2.037-.178-3.673 1.018-3.91 3.002-.31 2.59-.6 5.185-.886 7.778-.15 1.408-.28 2.817-.429 4.32H73.531c5.088 0 8.013 2.86 8.015 7.83v28.888c.003.358.003.713.003 1.123ZM3.85 41.247h73.877v-7.419H3.85v7.419Zm73.89-11.212c0-1.441.109-2.785-.045-4.097-.082-.694-.513-1.43-.984-1.982-.776-.906-1.928-.971-3.068-.971-21.894.005-43.785.002-65.679.005-.37 0-.743.014-1.11.06-1.54.202-2.709 1.125-2.897 2.637-.176 1.422-.037 2.88-.037 4.346 24.602.002 49.177.002 73.82.002Z"
        fill="#D6D6D6" />
    <path
        d="M61.068 65.49c-2.781 0-5.562.008-8.342-.002-1.777-.007-2.417-.623-2.422-2.35-.01-3.49-.012-6.982 0-10.47.005-1.654.687-2.318 2.372-2.32a6495.8 6495.8 0 0 1 16.868 0c1.69.002 2.362.671 2.362 2.317.002 3.491.002 6.983 0 10.471 0 1.722-.63 2.345-2.407 2.352-2.808.01-5.618.002-8.431.002Zm-6.942-3.746h13.988v-7.628H54.126v7.628Z"
        fill="#D6D6D6" />
</svg>