<svg fill="none" xmlns="http://www.w3.org/2000/svg" viewBox="2.42 1.28 21.18 22.77">
    <path
        d="M5.97607 4.07764H5.19482C4.33188 4.07764 3.63232 4.77719 3.63232 5.64014V21.2651C3.63232 22.1281 4.33188 22.8276 5.19482 22.8276H20.8198C21.6828 22.8276 22.3823 22.1281 22.3823 21.2651V5.64014C22.3823 4.77719 21.6828 4.07764 20.8198 4.07764H20.0386V4.07764"
        stroke="#A65AB6" stroke-linejoin="round" style="--darkreader-inline-stroke: #ae68bc;"
        data-darkreader-inline-stroke=""></path>
    <path d="M16.9136 18.1401H18.4761" stroke="#A65AB6" stroke-linejoin="round"
        style="--darkreader-inline-stroke: #ae68bc;" data-darkreader-inline-stroke=""></path>
    <path d="M12.2261 18.1401H13.7886" stroke="#A65AB6" stroke-linejoin="round"
        style="--darkreader-inline-stroke: #ae68bc;" data-darkreader-inline-stroke=""></path>
    <path d="M7.53857 18.1401H9.10107" stroke="#A65AB6" stroke-linejoin="round"
        style="--darkreader-inline-stroke: #ae68bc;" data-darkreader-inline-stroke=""></path>
    <path d="M16.9136 13.4526H18.4761" stroke="#A65AB6" stroke-linejoin="round"
        style="--darkreader-inline-stroke: #ae68bc;" data-darkreader-inline-stroke=""></path>
    <path d="M12.2261 13.4526H13.7886" stroke="#A65AB6" stroke-linejoin="round"
        style="--darkreader-inline-stroke: #ae68bc;" data-darkreader-inline-stroke=""></path>
    <path d="M7.53857 13.4526H9.10107" stroke="#A65AB6" stroke-linejoin="round"
        style="--darkreader-inline-stroke: #ae68bc;" data-darkreader-inline-stroke=""></path>
    <path d="M3.63232 8.76514H22.3823" stroke="#A65AB6" stroke-linejoin="round"
        style="--darkreader-inline-stroke: #ae68bc;" data-darkreader-inline-stroke=""></path>
    <path d="M17.6948 5.64014V2.51514" stroke="#A65AB6" stroke-linecap="round" stroke-linejoin="round"
        style="--darkreader-inline-stroke: #ae68bc;" data-darkreader-inline-stroke=""></path>
    <path d="M10.6636 4.07764H15.3511" stroke="#A65AB6" stroke-linejoin="round"
        style="--darkreader-inline-stroke: #ae68bc;" data-darkreader-inline-stroke=""></path>
    <path d="M8.31982 5.64014V2.51514" stroke="#A65AB6" stroke-linecap="round" stroke-linejoin="round"
        style="--darkreader-inline-stroke: #ae68bc;" data-darkreader-inline-stroke=""></path>
</svg>