<svg width="55" height="19" fill="none" xmlns="http://www.w3.org/2000/svg">
    <mask id="a" fill="#fff">
        <path
            d="m18.998 9.144-1.596.876v-.312l1.596.864-.588.984-1.488-.888.168-.108.024 1.668h-1.128l.012-1.668.168.108-1.488.888-.576-.984 1.596-.864v.312l-1.596-.876.576-.984 1.488.9-.168.096-.012-1.668h1.128l-.024 1.668-.168-.096 1.488-.9.588.984Zm5.437 0-1.596.876v-.312l1.596.864-.588.984-1.488-.888.168-.108.024 1.668h-1.128l.012-1.668.168.108-1.488.888-.576-.984 1.596-.864v.312l-1.596-.876.576-.984 1.488.9-.168.096-.012-1.668h1.128l-.024 1.668-.168-.096 1.488-.9.588.984Zm5.438 0-1.596.876v-.312l1.596.864-.588.984-1.488-.888.168-.108.024 1.668H26.86l.012-1.668.168.108-1.488.888-.576-.984 1.596-.864v.312l-1.596-.876.576-.984 1.488.9-.168.096-.012-1.668h1.128l-.024 1.668-.168-.096 1.488-.9.588.984Zm5.437 0-1.596.876v-.312l1.596.864-.588.984-1.488-.888.168-.108.024 1.668h-1.128l.012-1.668.168.108-1.488.888-.576-.984 1.596-.864v.312l-1.596-.876.576-.984 1.488.9-.168.096-.012-1.668h1.128l-.024 1.668-.168-.096 1.488-.9.588.984Zm5.438 0-1.596.876v-.312l1.596.864-.588.984-1.488-.888.168-.108.024 1.668h-1.128l.012-1.668.168.108-1.488.888-.576-.984 1.596-.864v.312l-1.596-.876.576-.984 1.488.9-.168.096-.012-1.668h1.128l-.024 1.668-.168-.096 1.488-.9.588.984Z" />
    </mask>
    <path
        d="m18.998 9.144-1.596.876v-.312l1.596.864-.588.984-1.488-.888.168-.108.024 1.668h-1.128l.012-1.668.168.108-1.488.888-.576-.984 1.596-.864v.312l-1.596-.876.576-.984 1.488.9-.168.096-.012-1.668h1.128l-.024 1.668-.168-.096 1.488-.9.588.984Zm5.437 0-1.596.876v-.312l1.596.864-.588.984-1.488-.888.168-.108.024 1.668h-1.128l.012-1.668.168.108-1.488.888-.576-.984 1.596-.864v.312l-1.596-.876.576-.984 1.488.9-.168.096-.012-1.668h1.128l-.024 1.668-.168-.096 1.488-.9.588.984Zm5.438 0-1.596.876v-.312l1.596.864-.588.984-1.488-.888.168-.108.024 1.668H26.86l.012-1.668.168.108-1.488.888-.576-.984 1.596-.864v.312l-1.596-.876.576-.984 1.488.9-.168.096-.012-1.668h1.128l-.024 1.668-.168-.096 1.488-.9.588.984Zm5.437 0-1.596.876v-.312l1.596.864-.588.984-1.488-.888.168-.108.024 1.668h-1.128l.012-1.668.168.108-1.488.888-.576-.984 1.596-.864v.312l-1.596-.876.576-.984 1.488.9-.168.096-.012-1.668h1.128l-.024 1.668-.168-.096 1.488-.9.588.984Zm5.438 0-1.596.876v-.312l1.596.864-.588.984-1.488-.888.168-.108.024 1.668h-1.128l.012-1.668.168.108-1.488.888-.576-.984 1.596-.864v.312l-1.596-.876.576-.984 1.488.9-.168.096-.012-1.668h1.128l-.024 1.668-.168-.096 1.488-.9.588.984Z"
        fill="#A65AB6" />
    <path
        d="m18.998 9.144.48.877.91-.5-.532-.89-.858.513Zm-1.596.876h-1v1.69l1.48-.813-.48-.877Zm0-.312.476-.88-1.476-.798v1.678h1Zm1.596.864.858.513.535-.896-.917-.496-.476.88Zm-.588.984-.513.859.859.512.512-.858-.858-.513Zm-1.488-.888-.541-.841-1.358.873 1.386.827.513-.859Zm.168-.108 1-.014-.026-1.8-1.515.973.54.841Zm.024 1.668v1h1.014l-.014-1.014-1 .014Zm-1.128 0-1-.007-.007 1.007h1.007v-1Zm.012-1.668.54-.841-1.527-.982-.013 1.816 1 .007Zm.168.108.512.859 1.386-.827-1.358-.873-.54.841Zm-1.488.888-.863.505.51.87.865-.516-.512-.859Zm-.576-.984-.476-.88-.91.493.523.892.863-.505Zm1.596-.864h1V8.03l-1.476.799.476.88Zm0 .312-.481.877 1.48.813v-1.69h-1Zm-1.596-.876-.863-.505-.52.887.902.495.48-.877Zm.576-.984.517-.856-.868-.525-.512.876.863.505Zm1.488.9.496.868 1.477-.843-1.456-.88-.517.855Zm-.168.096-1 .007.012 1.71 1.484-.849-.496-.868Zm-.012-1.668v-1h-1.007l.007 1.007 1-.007Zm1.128 0 1 .014.014-1.014h-1.014v1Zm-.024 1.668-.496.868 1.471.841.025-1.695-1-.014Zm-.168-.096-.518-.856-1.455.88 1.477.844.496-.868Zm1.488-.9.858-.513-.515-.863-.86.52.517.856Zm.107.107-1.596.876.962 1.754 1.596-.876-.962-1.754Zm-.115 1.753v-.312h-2v.312h2Zm-1.476.568 1.596.864.952-1.76-1.596-.863-.952 1.758Zm1.213-.529-.588.984 1.717 1.026.588-.984-1.717-1.026Zm.783.638-1.488-.888-1.025 1.718 1.488.888 1.025-1.718Zm-1.46.812.169-.108-1.082-1.682-.168.108 1.081 1.682Zm-1.372-.934.024 1.668 2-.03-.024-1.667-2 .029Zm1.024.653h-1.128v2h1.128v-2Zm-.128 1.007.012-1.668-2-.014-.012 1.668 2 .014Zm-1.529-.834.168.108 1.081-1.682-.168-.108-1.081 1.682Zm.196-1.592-1.488.888 1.025 1.718 1.488-.888-1.025-1.718Zm-.112 1.242-.576-.984-1.726 1.01.576.984 1.726-1.01Zm-.963.4 1.596-.864-.952-1.758-1.596.864.952 1.758Zm.12-1.743v.312h2v-.312h-2Zm1.48-.565-1.595-.876-.962 1.754 1.596.876.962-1.754Zm-1.213.506.576-.984-1.726-1.01-.576.984 1.726 1.01Zm-.805-.633 1.488.9 1.035-1.712-1.488-.9-1.035 1.712Zm1.51-.824-.168.096.992 1.736.168-.096-.992-1.736Zm1.328.957-.012-1.668-2 .014.012 1.668 2-.014Zm-1.012-.66h1.128v-2h-1.128v2Zm.128-1.015-.024 1.668 2 .028.024-1.668-2-.028Zm1.472.814-.168-.096-.992 1.736.168.096.992-1.736Zm-.147 1.628 1.488-.9-1.035-1.712-1.488.9 1.035 1.712Zm.112-1.243.588.984 1.717-1.026-.588-.984-1.717 1.026Zm6.884.471.481.877.91-.5-.532-.89-.859.513Zm-1.596.876h-1v1.69l1.481-.813-.48-.877Zm0-.312.476-.88-1.476-.798v1.678h1Zm1.596.864.859.513.535-.896-.918-.496-.476.88Zm-.588.984-.512.859.858.512.513-.858-.859-.513Zm-1.488-.888-.54-.841-1.358.873 1.386.827.512-.859Zm.168-.108 1-.014-.026-1.8-1.515.973.541.841Zm.024 1.668v1h1.015l-.015-1.014-1 .014Zm-1.128 0-1-.007-.007 1.007h1.007v-1Zm.012-1.668.541-.841-1.528-.982-.013 1.816 1 .007Zm.168.108.513.859 1.386-.827-1.358-.873-.54.841Zm-1.488.888-.863.505.51.87.866-.516-.513-.859Zm-.576-.984-.476-.88-.91.493.523.892.863-.505Zm1.596-.864h1V8.03l-1.476.799.476.88Zm0 .312-.48.877 1.48.813v-1.69h-1Zm-1.596-.876-.863-.505-.52.887.902.495.481-.877Zm.576-.984.518-.856-.868-.525-.513.876.863.505Zm1.488.9.496.868 1.477-.843-1.455-.88-.518.855Zm-.168.096-1 .007.013 1.71 1.483-.849-.496-.868Zm-.012-1.668v-1h-1.007l.007 1.007 1-.007Zm1.128 0 1 .014.015-1.014H22.55v1Zm-.024 1.668-.496.868 1.472.841.024-1.695-1-.014Zm-.168-.096-.517-.856-1.455.88 1.476.844.496-.868Zm1.488-.9.859-.513-.516-.863-.86.52.517.856Zm.107.107-1.596.876.962 1.754 1.596-.876-.962-1.754Zm-.115 1.753v-.312h-2v.312h2Zm-1.476.568 1.596.864.952-1.76-1.596-.863-.952 1.758Zm1.214-.529-.588.984 1.717 1.026.588-.984-1.717-1.026Zm.783.638-1.488-.888-1.025 1.718 1.488.888 1.025-1.718Zm-1.46.812.168-.108-1.082-1.682-.168.108 1.082 1.682Zm-1.373-.934.024 1.668 2-.03-.024-1.667-2 .029Zm1.024.653h-1.128v2h1.128v-2Zm-.128 1.007.012-1.668-2-.014-.012 1.668 2 .014Zm-1.528-.834.168.108 1.081-1.682-.168-.108-1.081 1.682Zm.196-1.592-1.488.888 1.025 1.718 1.488-.888-1.025-1.718Zm-.113 1.242-.576-.984-1.726 1.01.576.984 1.726-1.01Zm-.963.4 1.596-.864-.952-1.758-1.596.864.952 1.758Zm.12-1.743v.312h2v-.312h-2Zm1.481-.565-1.596-.876-.962 1.754 1.596.876.962-1.754Zm-1.214.506.576-.984-1.726-1.01-.576.984 1.726 1.01Zm-.804-.633 1.488.9 1.035-1.712-1.488-.9-1.035 1.712Zm1.51-.824-.169.096.992 1.736.168-.096-.992-1.736Zm1.327.957-.012-1.668-2 .014.012 1.668 2-.014Zm-1.012-.66h1.128v-2h-1.128v2Zm.128-1.015-.024 1.668 2 .028.024-1.668-2-.028Zm1.472.814-.168-.096-.992 1.736.168.096.992-1.736Zm-.146 1.628 1.488-.9-1.035-1.712-1.488.9 1.035 1.712Zm.112-1.243.588.984 1.717-1.026-.588-.984-1.717 1.026Zm6.884.471.48.877.91-.5-.532-.89-.858.513Zm-1.596.876h-1v1.69l1.48-.813-.48-.877Zm0-.312.476-.88-1.476-.798v1.678h1Zm1.596.864.858.513.535-.896-.917-.496-.476.88Zm-.588.984-.513.859.859.512.512-.858-.858-.513Zm-1.488-.888-.541-.841-1.358.873 1.386.827.513-.859Zm.168-.108 1-.014-.026-1.8-1.515.973.54.841Zm.024 1.668v1h1.014l-.014-1.014-1 .014Zm-1.128 0-1-.007-.007 1.007h1.007v-1Zm.012-1.668.54-.841-1.527-.982-.013 1.816 1 .007Zm.168.108.512.859 1.386-.827-1.358-.873-.54.841Zm-1.488.888-.863.505.51.87.865-.516-.512-.859Zm-.576-.984-.476-.88-.91.493.523.892.863-.505Zm1.596-.864h1V8.03l-1.476.799.476.88Zm0 .312-.481.877 1.48.813v-1.69h-1Zm-1.596-.876-.863-.505-.52.887.902.495.48-.877Zm.576-.984.517-.856-.868-.525-.512.876.863.505Zm1.488.9.496.868 1.477-.843-1.456-.88-.517.855Zm-.168.096-1 .007.012 1.71 1.484-.849-.496-.868Zm-.012-1.668v-1h-1.007l.007 1.007 1-.007Zm1.128 0 1 .014.014-1.014H27.99v1Zm-.024 1.668-.496.868 1.471.841.025-1.695-1-.014Zm-.168-.096-.518-.856-1.455.88 1.477.844.496-.868Zm1.488-.9.858-.513-.515-.863-.86.52.517.856Zm.107.107-1.596.876.962 1.754 1.596-.876-.962-1.754Zm-.115 1.753v-.312h-2v.312h2Zm-1.476.568 1.596.864.952-1.76-1.596-.863-.952 1.758Zm1.213-.529-.588.984 1.717 1.026.588-.984-1.717-1.026Zm.783.638L28.31 9.81l-1.025 1.718 1.488.888 1.025-1.718Zm-1.46.812.169-.108-1.082-1.682-.168.108 1.081 1.682Zm-1.372-.934.024 1.668 2-.03-.024-1.667-2 .029Zm1.024.653H26.86v2h1.128v-2Zm-.128 1.007.012-1.668-2-.014-.012 1.668 2 .014Zm-1.529-.834.168.108 1.081-1.682-.168-.108-1.081 1.682Zm.196-1.592-1.488.888 1.025 1.718 1.488-.888-1.025-1.718Zm-.112 1.242-.576-.984-1.726 1.01.576.984 1.726-1.01Zm-.963.4 1.596-.864-.952-1.758-1.596.864.952 1.758Zm.12-1.743v.312h2v-.312h-2Zm1.48-.565-1.595-.876-.962 1.754 1.596.876.962-1.754Zm-1.213.506.576-.984-1.726-1.01-.576.984 1.726 1.01Zm-.805-.633 1.488.9 1.035-1.712-1.488-.9-1.035 1.712Zm1.51-.824-.168.096.992 1.736.168-.096-.992-1.736Zm1.328.957L27.86 7.48l-2 .014.012 1.668 2-.014Zm-1.012-.66h1.128v-2H26.86v2Zm.128-1.015-.024 1.668 2 .028.024-1.668-2-.028Zm1.472.814-.168-.096-.992 1.736.168.096.992-1.736Zm-.147 1.628 1.488-.9-1.035-1.712-1.488.9 1.035 1.712Zm.112-1.243.588.984 1.717-1.026-.588-.984-1.717 1.026Zm6.884.471.481.877.91-.5-.532-.89-.859.513Zm-1.596.876h-1v1.69l1.481-.813-.48-.877Zm0-.312.476-.88-1.476-.798v1.678h1Zm1.596.864.859.513.535-.896-.918-.496-.476.88Zm-.588.984-.512.859.858.512.513-.858-.859-.513Zm-1.488-.888-.54-.841-1.358.873 1.386.827.512-.859Zm.168-.108 1-.014-.026-1.8-1.514.973.54.841Zm.024 1.668v1h1.015l-.015-1.014-1 .014Zm-1.128 0-1-.007-.007 1.007h1.007v-1Zm.012-1.668.541-.841-1.528-.982-.013 1.816 1 .007Zm.168.108.513.859 1.386-.827-1.358-.873-.54.841Zm-1.488.888-.863.505.51.87.866-.516-.513-.859Zm-.576-.984-.476-.88-.91.493.523.892.863-.505Zm1.596-.864h1V8.03l-1.476.799.476.88Zm0 .312-.48.877 1.48.813v-1.69h-1Zm-1.596-.876-.863-.505-.52.887.902.495.481-.877Zm.576-.984.518-.856-.868-.525-.513.876.863.505Zm1.488.9.496.868 1.477-.843-1.455-.88-.518.855Zm-.168.096-1 .007.013 1.71 1.483-.849-.496-.868Zm-.012-1.668v-1h-1.007l.007 1.007 1-.007Zm1.128 0 1 .014.015-1.014h-1.015v1Zm-.024 1.668-.496.868 1.472.841.024-1.695-1-.014Zm-.168-.096-.517-.856-1.455.88 1.476.844.496-.868Zm1.488-.9.859-.513-.516-.863-.86.52.517.856Zm.107.107-1.596.876.962 1.754 1.596-.876-.962-1.754Zm-.115 1.753v-.312h-2v.312h2Zm-1.476.568 1.596.864.952-1.76-1.596-.863-.952 1.758Zm1.214-.529-.588.984 1.717 1.026.588-.984-1.717-1.026Zm.783.638-1.488-.888-1.025 1.718 1.488.888 1.025-1.718Zm-1.46.812.168-.108-1.081-1.682-.169.108 1.082 1.682Zm-1.373-.934.024 1.668 2-.03-.024-1.667-2 .029Zm1.024.653h-1.128v2h1.128v-2Zm-.128 1.007.012-1.668-2-.014-.012 1.668 2 .014Zm-1.529-.834.169.108 1.081-1.682-.168-.108L31.77 11.4Zm.197-1.592-1.488.888 1.025 1.718 1.488-.888-1.025-1.718Zm-.113 1.242-.576-.984-1.726 1.01.576.984 1.726-1.01Zm-.963.4 1.596-.864-.952-1.758-1.596.864.952 1.758Zm.12-1.743v.312h2v-.312h-2Zm1.481-.565-1.596-.876-.962 1.754 1.596.876.962-1.754Zm-1.214.506.576-.984-1.726-1.01-.576.984 1.726 1.01Zm-.804-.633 1.488.9 1.035-1.712-1.488-.9-1.035 1.712Zm1.51-.824-.169.096.992 1.736.168-.096-.992-1.736Zm1.327.957-.012-1.668-2 .014.012 1.668 2-.014Zm-1.012-.66h1.128v-2h-1.128v2Zm.128-1.015-.024 1.668 2 .028.024-1.668-2-.028Zm1.472.814-.168-.096-.992 1.736.168.096.992-1.736Zm-.146 1.628 1.488-.9-1.035-1.712-1.488.9 1.035 1.712Zm.112-1.243.588.984 1.717-1.026-.588-.984-1.717 1.026Zm6.884.471.48.877.91-.5-.532-.89-.858.513Zm-1.596.876h-1v1.69l1.48-.813-.48-.877Zm0-.312.476-.88-1.476-.798v1.678h1Zm1.596.864.858.513.535-.896-.917-.496-.476.88Zm-.588.984-.513.859.858.512.513-.858-.858-.513Zm-1.488-.888-.541-.841-1.358.873 1.386.827.513-.859Zm.168-.108 1-.014-.026-1.8-1.515.973.54.841Zm.024 1.668v1h1.014l-.014-1.014-1 .014Zm-1.128 0-1-.007-.007 1.007h1.007v-1Zm.012-1.668.54-.841-1.527-.982-.013 1.816 1 .007Zm.168.108.512.859 1.386-.827-1.358-.873-.54.841Zm-1.488.888-.863.505.51.87.865-.516-.512-.859Zm-.576-.984-.476-.88-.91.493.523.892.863-.505Zm1.596-.864h1V8.03l-1.476.799.476.88Zm0 .312-.481.877 1.48.813v-1.69h-1Zm-1.596-.876-.863-.505-.52.887.902.495.48-.877Zm.576-.984.517-.856-.868-.525-.512.876.863.505Zm1.488.9.496.868 1.477-.843-1.456-.88-.517.855Zm-.168.096-1 .007.012 1.71 1.484-.849-.496-.868Zm-.012-1.668v-1h-1.007l.007 1.007 1-.007Zm1.128 0 1 .014.014-1.014h-1.014v1Zm-.024 1.668-.496.868 1.471.841.025-1.695-1-.014Zm-.168-.096-.518-.856-1.455.88 1.477.844.496-.868Zm1.488-.9.858-.513-.516-.863-.86.52.518.856Zm.107.107-1.596.876.962 1.754 1.596-.876-.962-1.754Zm-.115 1.753v-.312h-2v.312h2Zm-1.476.568 1.596.864.952-1.76-1.596-.863-.952 1.758Zm1.213-.529-.588.984 1.717 1.026.588-.984-1.717-1.026Zm.783.638-1.488-.888-1.025 1.718 1.488.888 1.025-1.718Zm-1.46.812.168-.108L38.3 9.72l-.168.108 1.081 1.682Zm-1.372-.934.024 1.668 2-.03-.024-1.667-2 .029Zm1.024.653h-1.128v2h1.128v-2Zm-.128 1.007.012-1.668-2-.014-.012 1.668 2 .014Zm-1.529-.834.168.108 1.081-1.682-.168-.108-1.081 1.682Zm.196-1.592-1.488.888 1.025 1.718 1.488-.888-1.025-1.718Zm-.112 1.242-.576-.984-1.726 1.01.576.984 1.726-1.01Zm-.963.4 1.596-.864-.952-1.758-1.596.864.952 1.758Zm.12-1.743v.312h2v-.312h-2Zm1.48-.565-1.595-.876-.962 1.754 1.596.876.962-1.754Zm-1.213.506.576-.984-1.726-1.01-.576.984 1.726 1.01Zm-.805-.633 1.488.9 1.035-1.712-1.488-.9-1.035 1.712Zm1.51-.824-.168.096.992 1.736.168-.096-.992-1.736Zm1.328.957-.012-1.668-2 .014.012 1.668 2-.014Zm-1.012-.66h1.128v-2h-1.128v2Zm.128-1.015-.024 1.668 2 .028.024-1.668-2-.028Zm1.472.814-.168-.096-.992 1.736.168.096.992-1.736Zm-.147 1.628 1.488-.9-1.035-1.712-1.488.9 1.035 1.712Zm.112-1.243.588.984 1.717-1.026-.588-.984-1.717 1.026Z"
        fill="#A65AB6" mask="url(#a)" />
    <rect x=".817" y="1.316" width="53.521" height="16.416" rx="8.208" stroke="#A65AB6" />
</svg>