<svg width="39" height="37" fill="none" xmlns="http://www.w3.org/2000/svg">
    <path
        d="M34.324 31.678c2.739-.008 4.303-2.054 4.241-4.28-.097-3.489-.024-6.982-.026-10.473-.002-2.427-1.73-4.074-4.275-4.076l-6.743-.01c-.044 0-.087-.021-.225-.058v-.684c0-2.664.003-5.326-.001-7.99C27.292 1.71 25.585.09 23.053.09H4.858C2.318.09.598 1.74.596 4.176c-.003 3.47.075 6.94-.028 10.405-.063 2.148 1.344 4.298 4.245 4.347 0 1.062.002 2.129-.002 3.195-.001.434.002.84.495 1.085.524.26.838-.067 1.18-.326 1.74-1.316 3.474-2.64 5.354-4.069v.825c0 2.664.04 5.327-.011 7.99-.046 2.411 2.017 4.098 4.232 4.045 3.58-.088 7.165-.034 10.747-.007.36.003.78.152 1.066.363 1.632 1.198 3.232 2.436 4.843 3.661.332.253.707.6 1.102.247.263-.235.462-.653.482-1 .06-1.064.023-2.137.023-3.259ZM6.315 21.288c-.057-.105-.093-.142-.093-.178-.005-.716-.008-1.431-.01-2.147 0-1.152-.266-1.405-1.48-1.415C3.08 17.535 2.004 16.528 2 14.96c-.009-3.624-.007-7.247 0-10.871.003-1.576 1.129-2.656 2.774-2.657 6.132-.005 12.266-.005 18.398 0 1.625.001 2.718 1.058 2.721 2.62.006 3.647.007 7.292 0 10.939-.003 1.551-1.057 2.553-2.677 2.556-3.278.005-6.557.07-9.83-.028-1.527-.046-2.742.295-3.856 1.307-.988.895-2.126 1.64-3.214 2.463Zm6.932-2.397h.842c3.113 0 6.226.006 9.34-.004 1.824-.005 3.394-1.23 3.745-2.938.115-.56.125-1.138.188-1.758 2.31 0 4.599-.003 6.889 0 1.791.002 2.885 1.042 2.886 2.751.003 3.49-.056 6.98.026 10.469.042 1.808-1.293 3.074-3.001 2.915-.876-.082-1.233.32-1.238 1.156-.006.837-.002 1.672-.002 2.608-.261-.172-.417-.26-.558-.369-1.243-.947-2.494-1.886-3.72-2.854a2.477 2.477 0 0 0-1.654-.571c-3.722.026-7.444.017-11.165.008-1.382-.004-2.534-.954-2.558-2.262-.058-3.017-.02-6.035-.02-9.15Z"
        fill="#A65AB6" />
    <path
        d="M14.021 10.16c2.198 0 4.396-.006 6.593.004.53.002 1.06-.025 1.037-.679-.02-.568-.49-.671-1.011-.67-4.467.007-8.932.003-13.399.005-.759 0-1.245.46-.942.92.147.222.554.398.848.402 2.29.032 4.583.017 6.874.017ZM16.755 14.189c1.33 0 2.663-.01 3.994.005.513.005.924-.124.905-.673-.018-.524-.428-.678-.936-.677-2.64.006-5.279.007-7.918 0-.506-.001-.922.15-.94.673-.019.6.45.683.97.677 1.308-.015 2.616-.005 3.925-.005ZM18.215 6.13c.887 0 1.774-.007 2.66.003.481.005.785-.202.78-.657-.004-.447-.324-.681-.782-.682a720.54 720.54 0 0 0-5.39-.002c-.492.002-.83.238-.815.72.012.457.347.63.818.623.909-.014 1.82-.005 2.729-.005ZM8.291 14.189c.42 0 .859.07 1.254-.024.277-.066.716-.38.695-.535-.038-.277-.348-.716-.58-.737a16.035 16.035 0 0 0-2.794-.004c-.234.019-.568.408-.612.666-.066.395.252.638.706.635.444-.004.887-.001 1.331-.001ZM29.074 22.282c.004.52.478.996 1.008 1.013.55.019 1.063-.48 1.06-1.029-.002-.59-.44-.983-1.077-.967-.596.018-.997.414-.991.983ZM26.224 22.261c-.008-.59-.446-.98-1.084-.96-.595.019-.994.419-.985.988.008.52.485.993 1.014 1.006.551.015 1.06-.486 1.055-1.034ZM20.28 21.3c-.631-.003-1.06.406-1.045 1 .013.52.498.99 1.027.995.552.007 1.054-.497 1.042-1.045-.012-.565-.423-.947-1.024-.95Z"
        fill="#A65AB6" />
</svg>