<svg width="39" height="38" fill="none" xmlns="http://www.w3.org/2000/svg">
    <path
        d="M8.635 3.517c.508.226 1.054.396 1.515.695.644.418 1.238.918 1.829 1.414.306.256.557.351.936.123.35-.211.746-.38 1.143-.477.44-.107.602-.348.642-.769.07-.726.18-1.448.265-2.173C15.137.856 16.058.016 17.526.012c1.068-.004 2.137-.004 3.204 0 1.435.004 2.369.846 2.54 2.277.092.765.199 1.527.28 2.291.036.35.158.584.535.66.23.046.481.11.661.248.79.604 1.415.33 2.046-.275.397-.381.859-.696 1.3-1.03 1.068-.808 2.31-.733 3.27.207a126.13 126.13 0 0 1 2.391 2.393c.919.947.987 2.166.191 3.224-.499.663-1.007 1.32-1.534 1.962-.202.247-.24.45-.086.738.194.363.395.743.484 1.14.13.573.48.714 1.001.763.824.075 1.65.174 2.458.337a2.25 2.25 0 0 1 1.832 2.181c.027 1.246.026 2.493.001 3.739a2.248 2.248 0 0 1-1.823 2.187c-.81.162-1.635.26-2.458.34-.514.05-.913.166-1 .758a1.13 1.13 0 0 1-.192.494c-.553.751-.382 1.374.247 1.997.39.386.694.86 1.031 1.299.844 1.1.779 2.328-.188 3.316-.775.792-1.558 1.575-2.35 2.35-.988.968-2.213 1.03-3.314.184-.611-.47-1.232-.93-1.818-1.428-.315-.268-.579-.302-.937-.091-.302.178-.64.338-.981.403-.64.122-.764.53-.812 1.093-.067.803-.175 1.609-.334 2.4a2.252 2.252 0 0 1-2.189 1.821 87.086 87.086 0 0 1-3.738 0 2.241 2.241 0 0 1-2.177-1.836c-.164-.83-.255-1.676-.35-2.518-.05-.466-.144-.846-.705-.907a1.063 1.063 0 0 1-.491-.196c-.795-.588-1.45-.382-2.095.276-.37.378-.83.67-1.253.994-1.094.838-2.32.768-3.315-.204-.778-.761-1.546-1.531-2.309-2.308-1.002-1.02-1.073-2.236-.207-3.36.483-.626.96-1.256 1.461-1.867.213-.257.297-.486.095-.784a1.056 1.056 0 0 1-.19-.431c-.184-1.339-1.154-1.52-2.244-1.578a9.136 9.136 0 0 1-1.521-.213A2.28 2.28 0 0 1 .137 20.85a105.669 105.669 0 0 1-.001-3.679c.019-1.109.754-2.01 1.853-2.224.85-.166 1.716-.259 2.577-.354.432-.047.721-.174.826-.654.078-.36.242-.714.43-1.035.243-.414.204-.727-.116-1.092-.495-.564-.938-1.173-1.393-1.77-.817-1.071-.753-2.302.186-3.272.786-.81 1.591-1.599 2.39-2.394.464-.464 1.007-.752 1.746-.86Zm21.016 1.62c-.267.15-.502.245-.698.394-.818.62-1.633 1.246-2.435 1.888-.388.31-.742.32-1.195.103-.797-.38-1.622-.71-2.454-1.01-.487-.178-.74-.453-.79-.976-.096-.982-.233-1.959-.354-2.938-.095-.773-.37-1.018-1.169-1.023a215.63 215.63 0 0 0-2.907 0c-.786.007-1.048.257-1.142 1.048-.12 1-.245 1.997-.363 2.997-.051.434-.263.693-.695.85-.868.319-1.725.671-2.56 1.065-.46.217-.808.174-1.192-.135-.8-.644-1.617-1.266-2.432-1.892-.543-.416-.864-.397-1.346.08-.731.723-1.457 1.45-2.182 2.18-.514.518-.538.825-.103 1.391.637.831 1.277 1.66 1.928 2.48.277.351.298.684.112 1.095a36.722 36.722 0 0 0-1.065 2.56c-.173.474-.455.695-.943.746-1 .105-2 .233-2.997.362-.716.092-.968.368-.977 1.09-.011.988-.008 1.977 0 2.966.005.795.25 1.062 1.034 1.157.979.12 1.956.252 2.936.356.489.05.771.268.943.745.308.85.65 1.69 1.038 2.508.216.456.193.806-.118 1.193-.656.816-1.292 1.648-1.926 2.48-.387.508-.36.84.094 1.3a261.65 261.65 0 0 0 2.223 2.222c.487.48.802.498 1.346.08.83-.638 1.66-1.276 2.48-1.928.37-.293.712-.3 1.143-.099.8.377 1.62.72 2.452 1.015.514.183.77.468.821 1.015.093.982.23 1.96.354 2.938.095.743.369.987 1.133.994.988.009 1.977.01 2.966 0 .752-.007 1.017-.258 1.112-1.016.123-.979.26-1.956.354-2.937.051-.521.298-.803.787-.98.831-.3 1.658-.625 2.453-1.01.482-.235.84-.19 1.241.135.8.643 1.618 1.265 2.434 1.89.518.394.849.378 1.303-.07.745-.737 1.484-1.481 2.221-2.226.504-.51.517-.806.069-1.391-.625-.815-1.25-1.631-1.89-2.435-.293-.368-.32-.712-.12-1.144.387-.84.746-1.692 1.064-2.56.166-.454.44-.667.9-.718 1-.112 1.999-.238 2.996-.362.75-.094 1.002-.366 1.009-1.12.01-.968.006-1.938.001-2.907-.005-.832-.248-1.096-1.062-1.192-.979-.115-1.956-.25-2.936-.355-.496-.052-.756-.304-.927-.769a32.491 32.491 0 0 0-1.039-2.507c-.2-.432-.181-.775.111-1.144.653-.819 1.291-1.649 1.928-2.48.412-.537.388-.854-.096-1.343-.736-.745-1.473-1.49-2.225-2.22-.176-.167-.407-.276-.648-.436Z"
        fill="#AC5CD0" />
    <path
        d="M27.046 19.069c-.137 4.535-3.656 7.893-7.992 7.846-4.546-.048-7.893-3.643-7.845-7.973.05-4.545 3.638-7.896 7.972-7.848 4.54.05 7.818 3.636 7.865 7.975Zm-14.236-.092c-.013 3.531 2.754 6.324 6.28 6.337 3.53.013 6.322-2.755 6.335-6.28.013-3.532-2.755-6.325-6.28-6.338-3.529-.014-6.323 2.755-6.335 6.281Z"
        fill="#AC5CD0" />
</svg>