<svg width="33" height="28" fill="none" xmlns="http://www.w3.org/2000/svg">
    <path
        d="M16.038 4.11c.86-.733 1.634-1.528 2.54-2.145C21.965-.34 27.065.337 29.727 3.388c2.754 3.156 3.165 7.56 1.062 11.15-1.188 2.03-2.793 3.737-4.594 5.269-2.863 2.436-5.785 4.81-8.692 7.197-.903.742-1.8.785-2.655.078-3.287-2.72-6.586-5.428-9.808-8.215-1.715-1.485-3.118-3.23-4.07-5.275-1.653-3.55-.837-8.007 1.954-10.628 3.274-3.073 8.842-3.35 12.3.258.291.303.568.618.815.888Zm.14 21.727c3.28-2.776 6.542-5.497 9.748-8.274 1.253-1.086 2.345-2.334 3.148-3.769 1.676-2.997 1.664-5.975-.397-8.79-2.11-2.88-6.422-3.53-9.262-1.417-.834.62-1.51 1.458-2.16 2.267-.73.91-1.597.939-2.271-.023a15.601 15.601 0 0 0-.603-.812c-2.803-3.486-7.333-3.34-9.968-.915C1.917 6.399 1.477 9.24 2.464 12.3c.58 1.802 1.765 3.297 3.171 4.584 2.119 1.938 4.322 3.795 6.514 5.66 1.285 1.097 2.619 2.143 4.03 3.292Z"
        fill="#AC5CD0" />
</svg>