<svg width="34" height="34" fill="none" xmlns="http://www.w3.org/2000/svg">
    <path
        d="M22.033 12.834c1.978 2.76 1.979 5.503 0 8.257.042.051.082.11.131.16.295.306.59.611.92.95 1.648-1.307 3.493-1.803 5.527-1.362 1.642.355 2.95 1.266 3.9 2.653 1.841 2.686 1.345 6.276-1.154 8.445-2.365 2.054-6.048 1.995-8.365-.089-2.41-2.167-2.995-5.96-.658-8.89l-1.136-1.045c-2.686 1.937-5.429 1.947-8.21-.041l-1.059 1.117c1.238 1.554 1.733 3.35 1.346 5.335-.306 1.569-1.127 2.855-2.403 3.826-2.629 2-6.224 1.684-8.525-.736-2.183-2.296-2.288-5.959-.265-8.397 2.041-2.462 5.897-3.314 9.058-.846l1.07-1.078c-1.978-2.76-1.98-5.502-.001-8.258-.04-.05-.082-.107-.13-.158-.29-.311-.582-.62-.903-.96-1.685 1.313-3.534 1.821-5.594 1.354-1.646-.372-2.942-1.287-3.878-2.68C-.121 7.674.405 4.103 2.923 1.954c2.367-2.02 6.02-1.947 8.325.123 2.4 2.153 3.002 5.945.659 8.89l1.134 1.044c2.688-1.931 5.431-1.95 8.309.112.131-.175.277-.4.453-.595.164-.183.36-.338.562-.524-1.306-1.637-1.794-3.453-1.391-5.454.312-1.546 1.132-2.815 2.392-3.775 2.625-1.998 6.225-1.683 8.526.736 2.183 2.295 2.29 5.953.266 8.398-2.037 2.46-5.89 3.319-9.056.846l-1.07 1.078ZM7.005 1.532c-2.914.002-5.308 2.39-5.315 5.302-.007 2.94 2.39 5.344 5.328 5.341 2.912-.002 5.308-2.391 5.315-5.302.008-2.94-2.389-5.343-5.328-5.34ZM32.551 6.88c.01-2.92-2.365-5.329-5.27-5.347-2.948-.018-5.365 2.363-5.373 5.295-.009 2.92 2.363 5.33 5.269 5.348 2.944.02 5.364-2.365 5.373-5.296Zm-15.44 4.762c-2.914.004-5.306 2.392-5.312 5.305-.005 2.94 2.393 5.343 5.33 5.34 2.912-.004 5.306-2.395 5.313-5.306.006-2.94-2.392-5.343-5.332-5.339ZM1.69 27.054c-.006 2.918 2.372 5.324 5.277 5.34 2.944.016 5.359-2.372 5.365-5.305.007-2.918-2.372-5.323-5.278-5.338-2.946-.015-5.359 2.369-5.364 5.303Zm20.217-.018c-.012 2.923 2.357 5.334 5.259 5.358 2.948.022 5.37-2.358 5.383-5.288.013-2.921-2.358-5.335-5.26-5.355-2.95-.022-5.37 2.355-5.382 5.285Z"
        fill="#AC5CD0" />
    <path
        d="M6.988 10.577c-.991 0-1.983.004-2.975-.003-.555-.003-.72-.17-.722-.732-.006-1.026.011-2.054-.014-3.08-.005-.181-.194-.352-.263-.539-.08-.223-.237-.507-.164-.683.298-.715.648-1.412 1.033-2.084.097-.168.395-.309.602-.312 1.682-.024 3.365-.029 5.046.004.227.005.539.198.658.396.363.603.649 1.252.966 1.883.176.351.14.63-.218.862-.111.071-.19.271-.193.414-.016 1.027-.006 2.054-.01 3.081-.002.633-.152.788-.77.791-.993.005-1.985.002-2.976.002ZM4.395 6.329v3.153h1.022c0-.492.006-.95-.002-1.407-.009-.458.195-.692.665-.688.619.005 1.238.004 1.857 0 .464-.003.679.222.67.685-.008.471-.002.942-.002 1.404h1.023V6.331c-1.757-.002-3.473-.002-5.233-.002Zm5.42-1.084c-.376-1.053-.376-1.053-1.372-1.053H5.466c-.87 0-1.04.145-1.213 1.053h5.561ZM6.505 8.471v1.013H7.51V8.47H6.506ZM27.209 10.576c-.992 0-1.983.005-2.976 0-.556-.004-.722-.17-.725-.73-.005-1.044.007-2.089-.012-3.134a.654.654 0 0 0-.229-.447c-.292-.22-.361-.459-.202-.78.331-.662.633-1.342 1.005-1.98.108-.184.412-.354.628-.359 1.682-.03 3.365-.03 5.046.002.228.005.54.196.66.394.363.603.649 1.252.966 1.882.175.35.145.63-.215.863-.11.072-.193.27-.195.413-.017.956-.008 1.911-.008 2.868 0 .93-.076 1.008-.981 1.008h-2.762Zm2.646-1.085V6.358h-5.247V9.49h1.027c0-.499.003-.972 0-1.446-.004-.435.201-.656.642-.655.619.001 1.238.006 1.857-.002.494-.006.706.23.692.717-.012.455-.003.91-.003 1.388h1.032Zm.171-4.246c-.36-1.053-.36-1.053-1.36-1.053H25.69c-.886 0-1.022.115-1.226 1.053h5.563Zm-3.3 3.228v1.009h1V8.473h-1ZM17.073 20.686c-.991 0-1.982-.008-2.975.003-.491.005-.708-.216-.703-.707.01-1.044.014-2.09-.009-3.134-.003-.168-.119-.378-.25-.49-.257-.216-.339-.436-.188-.738.338-.678.651-1.372 1.027-2.03.099-.172.385-.333.588-.336 1.7-.026 3.4-.028 5.1.001.214.005.514.183.623.37.371.639.702 1.306.984 1.99.076.186.003.6-.131.673-.308.17-.299.386-.298.653.005.85.002 1.7.002 2.55 0 1.194 0 1.194-1.22 1.194h-2.55Zm-1.546-1.087c0-.493.008-.95-.002-1.407-.012-.494.222-.709.709-.698.601.012 1.203.007 1.805.002.46-.004.686.21.679.676-.008.472-.002.943-.002 1.416h1.026V16.47h-5.256V19.6h1.04Zm4.393-4.245c-.365-1.053-.365-1.053-1.363-1.053H15.58c-.88 0-1.027.125-1.222 1.053h5.562Zm-3.29 3.223v1.018h.991v-1.018h-.99ZM7.013 30.795c-.992 0-1.983.003-2.976-.001-.588-.003-.744-.163-.746-.761-.005-1.027.01-2.054-.013-3.081-.004-.167-.124-.375-.255-.486-.258-.218-.331-.44-.181-.74.338-.68.652-1.372 1.027-2.03.098-.172.387-.328.592-.332 1.7-.026 3.4-.028 5.1.003.213.004.51.186.62.373.37.64.696 1.309.984 1.99.076.18.017.593-.092.642-.403.178-.336.485-.337.79-.003.957.002 1.914-.003 2.869-.002.598-.16.76-.746.762-.992.005-1.983.002-2.974.002Zm-1.595-1.081v-1.487c.002-.412.212-.62.622-.62.638-.002 1.275.001 1.91-.002.473-.003.667.242.657.697-.01.47-.002.94-.002 1.408h1.038v-3.14h-5.26v3.144h1.035ZM4.176 25.44h5.67c-.132-.271-.21-.513-.354-.703-.108-.143-.302-.31-.46-.313a121.722 121.722 0 0 0-4.04-.002c-.15.002-.34.138-.434.268-.152.209-.24.463-.382.75Zm3.33 4.274v-1.021h-.997v1.02h.996ZM27.21 30.795c-.99 0-1.982.004-2.975-.001-.558-.003-.725-.17-.727-.726-.005-1.045.007-2.09-.012-3.134a.654.654 0 0 0-.226-.449c-.292-.22-.365-.456-.205-.778.331-.663.633-1.342 1.005-1.98.108-.185.411-.357.627-.361 1.682-.03 3.365-.031 5.046 0 .23.005.543.194.66.392.364.603.65 1.252.967 1.882.175.35.145.626-.21.866-.12.081-.197.303-.199.463-.018 1.009-.006 2.018-.01 3.028-.001.653-.148.796-.818.797-.975.003-1.948 0-2.922 0Zm-2.6-4.236v3.145h1.025c0-.502.002-.976 0-1.45-.003-.438.21-.65.648-.649.62.003 1.24.007 1.858 0 .462-.007.69.202.683.67-.005.472 0 .944 0 1.425h1.029v-3.14H24.61Zm5.418-1.095c-.367-1.054-.367-1.054-1.363-1.054h-2.978c-.878 0-1.028.128-1.22 1.054h5.561Zm-3.31 4.242h1.014v-1.003h-1.014v1.003Z"
        fill="#AC5CD0" />
</svg>