<svg xmlns="http://www.w3.org/2000/svg" xmlns:xlink="http://www.w3.org/1999/xlink" width="1200" zoomAndPan="magnify" viewBox="0 0 900 899.99999" height="1200" preserveAspectRatio="xMidYMid meet" version="1.0"><defs><g/><clipPath id="ca432d2928"><path d="M 169 417 L 304 417 L 304 520 L 169 520 Z M 169 417 " clip-rule="nonzero"/></clipPath><clipPath id="8f00a7e68f"><path d="M 70.804688 28.238281 L 633.429688 -47.882812 L 748.769531 804.597656 L 186.144531 880.722656 Z M 70.804688 28.238281 " clip-rule="nonzero"/></clipPath><clipPath id="e9dafdabd6"><path d="M 70.804688 28.238281 L 633.429688 -47.882812 L 748.769531 804.597656 L 186.144531 880.722656 Z M 70.804688 28.238281 " clip-rule="nonzero"/></clipPath><clipPath id="eae79df05c"><path d="M 165 9 L 633 9 L 633 812 L 165 812 Z M 165 9 " clip-rule="nonzero"/></clipPath><clipPath id="61e7d30017"><path d="M 70.804688 28.238281 L 633.429688 -47.882812 L 748.769531 804.597656 L 186.144531 880.722656 Z M 70.804688 28.238281 " clip-rule="nonzero"/></clipPath><clipPath id="7328385009"><path d="M 70.804688 28.238281 L 633.429688 -47.882812 L 748.769531 804.597656 L 186.144531 880.722656 Z M 70.804688 28.238281 " clip-rule="nonzero"/></clipPath></defs><g fill="#000000" fill-opacity="1"><g transform="translate(461.036917, 906.429543)"><g><path d="M -6.890625 -41.21875 C -11.453125 -52.582031 -14.671875 -63.203125 -16.546875 -73.078125 C -18.421875 -82.960938 -19.738281 -93.066406 -20.5 -103.390625 C -21.269531 -113.722656 -22.34375 -125.210938 -23.71875 -137.859375 C -25.09375 -150.515625 -27.445312 -165.195312 -30.78125 -181.90625 C -34.113281 -198.625 -39.195312 -218.09375 -46.03125 -240.3125 C -52.863281 -262.53125 -62.238281 -288.484375 -74.15625 -318.171875 C -86.082031 -347.847656 -97.265625 -373.070312 -107.703125 -393.84375 C -118.140625 -414.625 -127.929688 -432.195312 -137.078125 -446.5625 C -146.234375 -460.925781 -154.691406 -473.15625 -162.453125 -483.25 C -170.210938 -493.34375 -177.382812 -502.378906 -183.96875 -510.359375 C -190.5625 -518.335938 -196.625 -526.613281 -202.15625 -535.1875 C -207.695312 -543.757812 -212.695312 -553.59375 -217.15625 -564.6875 C -221.28125 -574.945312 -221.976562 -583.6875 -219.25 -590.90625 C -216.519531 -598.132812 -212.03125 -604.207031 -205.78125 -609.125 C -199.539062 -614.050781 -192.984375 -617.976562 -186.109375 -620.90625 C -179.234375 -623.832031 -173.578125 -626.1875 -169.140625 -627.96875 L 17.71875 -703.015625 C 65.707031 -722.296875 109.171875 -731.378906 148.109375 -730.265625 C 187.054688 -729.160156 220.5625 -718.535156 248.625 -698.390625 C 276.695312 -678.253906 298.421875 -649.039062 313.796875 -610.75 C 325.835938 -580.789062 331.664062 -553.25 331.28125 -528.125 C 330.894531 -503.007812 325.984375 -480.34375 316.546875 -460.125 C 307.117188 -439.90625 294.738281 -421.804688 279.40625 -405.828125 C 264.082031 -389.847656 247.578125 -375.804688 229.890625 -363.703125 C 212.203125 -351.597656 194.796875 -341.378906 177.671875 -333.046875 C 160.554688 -324.722656 145.613281 -318 132.84375 -312.875 C 127.582031 -310.757812 124.550781 -307.691406 123.75 -303.671875 C 122.957031 -299.648438 123.34375 -295.695312 124.90625 -291.8125 C 131.707031 -274.882812 139.773438 -259.597656 149.109375 -245.953125 C 158.453125 -232.304688 168.144531 -219.601562 178.1875 -207.84375 C 188.226562 -196.09375 197.53125 -184.367188 206.09375 -172.671875 C 214.65625 -160.972656 221.609375 -148.46875 226.953125 -135.15625 C 231.078125 -124.882812 231.773438 -116.140625 229.046875 -108.921875 C 226.316406 -101.703125 221.828125 -95.628906 215.578125 -90.703125 C 209.335938 -85.785156 202.78125 -81.863281 195.90625 -78.9375 C 189.03125 -76.007812 183.375 -73.65625 178.9375 -71.875 L 71.5625 -28.75 C 67.125 -26.96875 61.410156 -24.753906 54.421875 -22.109375 C 47.429688 -19.460938 39.976562 -17.753906 32.0625 -16.984375 C 24.15625 -16.222656 16.71875 -17.503906 9.75 -20.828125 C 2.78125 -24.148438 -2.765625 -30.945312 -6.890625 -41.21875 Z M 51.03125 -576.734375 C 41.757812 -573.328125 34.269531 -568.707031 28.5625 -562.875 C 22.863281 -557.039062 21.738281 -549.820312 25.1875 -541.21875 L 51.59375 -475.484375 C 55.050781 -466.878906 60.800781 -462.582031 68.84375 -462.59375 C 76.894531 -462.601562 85.554688 -464.304688 94.828125 -467.703125 C 110.742188 -473.785156 122.875 -480.675781 131.21875 -488.375 C 139.570312 -496.070312 145.210938 -503.894531 148.140625 -511.84375 C 151.078125 -519.789062 152.257812 -527.273438 151.6875 -534.296875 C 151.125 -541.316406 149.835938 -547.320312 147.828125 -552.3125 C 145.929688 -557.03125 142.789062 -562.050781 138.40625 -567.375 C 134.019531 -572.695312 128.070312 -577.070312 120.5625 -580.5 C 113.0625 -583.925781 103.601562 -585.601562 92.1875 -585.53125 C 80.78125 -585.46875 67.0625 -582.535156 51.03125 -576.734375 Z M 51.03125 -576.734375 "/></g></g></g><g clip-path="url(#ca432d2928)"><g clip-path="url(#8f00a7e68f)"><g clip-path="url(#e9dafdabd6)"><path fill="#fbb040" d="M 303.21875 488.332031 L 303.199219 488.324219 C 301.878906 487.742188 230.859375 456.546875 184.59375 519.296875 C 184.59375 519.296875 138.8125 492.15625 205.878906 417.292969 C 303.597656 411.871094 303.21875 488.332031 303.21875 488.332031 " fill-opacity="1" fill-rule="nonzero"/></g></g></g><g clip-path="url(#eae79df05c)"><g clip-path="url(#61e7d30017)"><g clip-path="url(#7328385009)"><path fill="#fa090f" d="M 580.34375 286.792969 C 478.730469 261.949219 411.921875 202.558594 368.867188 305.761719 C 358.046875 331.699219 347.546875 351.828125 337.890625 367.433594 C 321.628906 393.714844 333.605469 428.246094 362.742188 438.558594 C 413.769531 456.617188 475.972656 491.257812 498.316406 555.804688 C 538.632812 672.28125 540.15625 832.613281 461.519531 809.039062 C 382.890625 785.464844 301.109375 706.171875 287.710938 639.5625 C 274.3125 572.953125 303.214844 488.335938 303.214844 488.335938 C 303.214844 488.335938 303.59375 411.871094 205.878906 417.292969 C 205.878906 417.292969 108.242188 305.105469 217.527344 172.714844 C 217.527344 172.714844 242.503906 286.011719 252.96875 201.261719 C 263.433594 116.503906 346.117188 7.949219 344.121094 45.0625 C 342.125 82.175781 361.816406 195.308594 366.648438 140.261719 C 371.488281 85.21875 472.226562 -26.03125 465.382812 20.632812 C 458.539062 67.304688 425.28125 187.597656 457.671875 140.226562 C 490.070312 92.867188 565.640625 48.425781 594.355469 72.613281 C 623.066406 96.792969 578.734375 106.304688 592.945312 146.488281 C 607.148438 186.675781 681.957031 311.644531 580.34375 286.792969 " fill-opacity="1" fill-rule="nonzero"/></g></g></g></svg>