<svg viewBox="4.5610526315789475 5.25608 21.856491228070176 23.807840000000002" fill="none"
    xmlns="http://www.w3.org/2000/svg" style="max-height: 500px" width="21.856491228070176" height="23.807840000000002">
    <path data-darkreader-inline-stroke="" style="--darkreader-inline-stroke: #9d9588;"
        d="M6.615 16.881c0-1.715 0-2.573.347-3.327.346-.755.998-1.313 2.3-2.43l1.264-1.083c2.355-2.018 3.532-3.027 4.935-3.027 1.402 0 2.58 1.01 4.934 3.027l1.264 1.084c1.303 1.116 1.954 1.675 2.3 2.429.348.754.348 1.612.348 3.327v5.359c0 2.383 0 3.574-.74 4.315-.74.74-1.932.74-4.315.74H11.67c-2.383 0-3.575 0-4.315-.74-.74-.74-.74-1.932-.74-4.315v-5.359Z"
        stroke-width="1.8" stroke="#AC5CD0" />
    <path data-darkreader-inline-stroke="" style="--darkreader-inline-stroke: #9d9588;"
        d="M18.62 27.295v-6.319c0-.698-.566-1.264-1.263-1.264h-3.791c-.699 0-1.264.566-1.264 1.264v6.319"
        stroke-width="1.8" stroke-linejoin="round" stroke-linecap="round" stroke="#AC5CD0" />
</svg>