<svg width="35" height="35" fill="none" xmlns="http://www.w3.org/2000/svg">
    <path
        d="M.768 19.212c0-4.678.008-9.357-.01-14.036-.003-.543.162-.82.685-1.014C4.9 2.886 8.34 1.57 11.794.294c.283-.105.67-.098.956.004 1.71.608 3.407 1.25 5.1 1.907.304.118.483.103.73-.13 2.699-2.555 6.696-2.54 9.362.036.235.227.416.224.689.12 1.68-.638 3.358-1.278 5.05-1.882.913-.327 1.063-.199 1.063.744 0 9.34-.006 18.68.014 28.02 0 .604-.203.86-.759 1.065a963.941 963.941 0 0 0-10.191 3.834c-.407.154-.756.134-1.162-.02-3.312-1.26-6.629-2.503-9.952-3.728a1.336 1.336 0 0 0-.855.002c-3.354 1.243-6.7 2.51-10.048 3.772-.779.294-1.023.12-1.023-.736v-14.09ZM33.706 1.41 29.073 3.15c.282.882.633 1.677.778 2.51.258 1.481-.108 2.918-.587 4.315-1.155 3.368-3.021 6.339-5.15 9.157-.786 1.04-.91 1.028-1.723-.024-.02-.028-.048-.052-.069-.08-2.047-2.765-3.932-5.624-5.105-8.892-.54-1.5-.864-3.04-.504-4.627.176-.777.515-1.519.797-2.327-1.54-.578-3.114-1.17-4.722-1.772V14.9c.996.373 1.97.737 2.942 1.103l3.66 1.38c.314.118.476.343.366.66-.117.334-.387.434-.726.296-.082-.033-.167-.056-.25-.087L14.373 16.6c-.52-.195-1.04-.388-1.61-.6 0 2.435.01 4.79-.011 7.147-.004.412.143.575.51.71 2.446.905 4.882 1.834 7.323 2.752.701.264 1.407.512 2.16.785 0-1.652.001-3.228-.001-4.804 0-.37-.017-.756.505-.748.518.006.502.41.506.766.008.726.003 1.453.003 2.18v2.588c.2-.063.334-.097.463-.144 1.6-.6 3.196-1.21 4.803-1.792.341-.123.45-.294.449-.654-.016-2.234-.008-4.466-.01-6.7 0-.138-.018-.275-.032-.466-.598.219-1.16.417-1.716.633-.377.146-.792.323-.988-.18-.206-.528.275-.636.625-.791.016-.008.035-.008.051-.014 1.947-.731 3.89-1.47 5.841-2.186.352-.129.47-.301.47-.682-.015-4.149-.01-8.296-.01-12.445.002-.157.002-.315.002-.546ZM23.19 18.494c.08-.046.12-.055.139-.082 1.958-2.611 3.737-5.331 4.902-8.401.539-1.417.892-2.885.537-4.412-.72-3.096-3.7-4.951-6.834-4.279-2.926.628-4.876 3.722-4.215 6.75.87 3.977 3.194 7.19 5.47 10.424ZM1.808 27.371c.14-.04.224-.057.302-.087 3.086-1.158 6.169-2.322 9.26-3.464.353-.13.38-.342.38-.646-.007-2.216-.004-4.432-.006-6.648 0-.149-.02-.299-.035-.468-.12.025-.192.03-.256.054-3.102 1.164-6.204 2.333-9.31 3.488-.295.11-.342.288-.34.562.009 1.897.005 3.793.005 5.69v1.519Zm0-8.785c.166-.044.286-.064.398-.106 3.047-1.143 6.093-2.294 9.144-3.425.333-.123.404-.302.402-.624-.013-1.913-.007-3.824-.007-5.737v-1.4c-.123.017-.193.016-.253.038-3.133 1.176-6.265 2.35-9.39 3.547-.141.054-.28.332-.282.507-.023 1.4-.012 2.798-.012 4.197v3.003Zm31.898-2.58c-.963.364-1.84.727-2.74 1.022-.374.123-.477.294-.474.672.016 2.461.009 4.922.009 7.384 0 .905-.001.902-.84 1.215a773.66 773.66 0 0 0-5.489 2.062c-.154.059-.379.222-.381.34-.027 1.377-.017 2.755-.017 4.182.19-.057.323-.09.45-.137 3-1.123 5.995-2.258 9.002-3.361.396-.146.49-.339.49-.728-.013-4.02-.008-8.04-.008-12.06-.002-.172-.002-.343-.002-.59ZM1.81 9.773c.092.023.112.035.126.03 3.182-1.19 6.365-2.38 9.543-3.583.113-.043.252-.216.255-.33.017-1.467.011-2.934.011-4.388-.07-.015-.091-.025-.105-.021-3.201 1.188-6.403 2.374-9.598 3.576-.107.04-.22.233-.223.355-.016 1.451-.01 2.902-.01 4.36Zm20.94 23.142c0-1.382-.015-2.674.009-3.965.006-.344-.11-.489-.422-.605-3.037-1.13-6.068-2.275-9.102-3.413-.137-.051-.284-.077-.47-.126 0 1.359.014 2.65-.008 3.941-.005.35.127.477.439.592 1.834.674 3.656 1.38 5.485 2.068 1.332.5 2.669.99 4.068 1.508Zm-20.941-.013c.2-.067.317-.102.43-.144l8.36-3.143c1.147-.431 1.147-.43 1.147-1.692v-3.152c-3.36 1.263-6.635 2.492-9.937 3.734v4.398Z"
        fill="#AC5CD0" />
    <path
        d="M20.171 6.904c-.003-1.707 1.396-3.123 3.082-3.12 1.677.003 3.101 1.443 3.094 3.128-.009 1.674-1.391 3.058-3.075 3.077-1.702.02-3.098-1.37-3.1-3.085Zm5.107-.009c0-1.084-.958-2.065-2.014-2.061-1.068.003-2.005.965-2.006 2.061 0 1.09.949 2.067 2.005 2.064 1.06-.002 2.014-.981 2.014-2.064Z"
        fill="#AC5CD0" />
</svg>