<svg width="39" height="38" fill="none" xmlns="http://www.w3.org/2000/svg">
    <path
        d="M38.558 23.748c0 1.522-.015 3.043.008 4.565.007.47-.178.739-.595.954a1887.01 1887.01 0 0 0-9.978 5.179c-.356.186-.635.185-.982-.028-3.352-2.068-6.717-4.114-10.059-6.196-.23-.143-.44-.514-.442-.782-.032-2.812-.014-5.624-.025-8.436 0-.44.186-.713.576-.916 3.343-1.736 6.679-3.484 10.028-5.207.202-.104.556-.112.753-.01 3.425 1.79 6.837 3.606 10.256 5.407.368.194.468.468.464.85-.011 1.539-.004 3.08-.004 4.62ZM26.88 33.01c0-2.75.009-5.348-.017-7.945-.003-.185-.22-.436-.405-.541-1.808-1.022-3.63-2.02-5.45-3.021-1.092-.603-2.188-1.2-3.333-1.826-.026.166-.052.255-.052.344-.002 2.31-.015 4.62.018 6.93.003.22.24.51.451.641 2.473 1.549 4.96 3.074 7.446 4.605.41.252.822.498 1.342.813Zm4.36-9.892c-.96.508-1.81.983-2.685 1.408-.357.173-.465.383-.462.76.018 2.404.008 4.81.01 7.215 0 .16.024.32.038.506.11-.036.167-.046.215-.07 2.899-1.478 5.793-2.963 8.699-4.427.31-.157.346-.36.345-.644-.006-2.482-.002-4.964-.005-7.446 0-.147-.021-.295-.038-.529-.676.35-1.285.694-1.92.983-.393.178-.555.404-.534.838.037.767-.007 1.54.017 2.308.013.422-.16.675-.537.862-.65.321-1.283.675-1.923 1.016-.879.468-1.21.271-1.217-.728-.007-.648-.004-1.295-.004-2.052Zm-.693-.934c-.1-.08-.15-.136-.213-.17-2.938-1.571-5.877-3.14-8.823-4.7-.13-.07-.357-.09-.483-.026-.914.456-1.814.94-2.786 1.451 3.052 1.676 6.022 3.309 8.998 4.93.132.071.361.102.482.039.937-.482 1.857-.995 2.825-1.524Zm6.218-3.306c-.062-.061-.084-.098-.116-.116-2.958-1.57-5.914-3.141-8.876-4.705-.11-.058-.286-.113-.38-.068-.744.36-1.477.744-2.293 1.163 3.084 1.649 6.068 3.246 9.058 4.835.12.064.324.099.434.043.73-.366 1.444-.762 2.173-1.152Zm-14.254-2.314c.226.128.407.238.595.337 2.877 1.518 5.748 3.046 8.637 4.54.49.253.686.548.65 1.082-.046.665-.012 1.334-.012 2.017 1.346-.422 1.41-.503 1.41-1.734 0-.365-.032-.734.008-1.095.047-.431-.145-.645-.52-.844-2.79-1.471-5.596-2.92-8.335-4.477-.89-.506-1.574-.515-2.33.085a8.383 8.383 0 0 1-.103.089Z"
        fill="#AC5CD0" />
    <path
        d="M27.63 36.224c.023-.234-.022-.482.078-.642.126-.2.385-.464.563-.448.196.018.48.299.52.504.082.408.073.851 0 1.262-.031.184-.288.367-.485.474-.136.074-.348.02-.526.02H1.607c-.97 0-1.04-.068-1.04-1.015V7.32c0-.965.055-1.02 1.032-1.02 1.978 0 3.956-.006 5.935.007.346.002.54-.12.786-.37.632-.647 1.354-1.21 2.025-1.824.17-.155.366-.358.402-.564.311-1.788 1.91-3.133 3.764-3.135 2.323-.003 3.691 1.073 4.226 3.303a.652.652 0 0 0 .3.37 6.553 6.553 0 0 1 2.226 1.95c.113.156.42.249.64.251 2.058.019 4.115.01 6.173.013.632.001.822.165.828.775.013 1.33.004 2.657.002 3.987 0 .095.021.228-.033.28-.19.182-.408.338-.615.504-.169-.2-.472-.393-.481-.6-.05-1.037-.024-2.079-.024-3.118v-.653h-5.729c.05.63.112 1.25.144 1.871.027.517-.224.777-.781.776a4269.06 4269.06 0 0 0-13.295.001c-.554.001-.806-.218-.774-.76.037-.612.06-1.224.092-1.878H1.762v28.74c8.63-.002 17.243-.002 25.869-.002ZM8.45 8.943h12.476c-.125-1.893-1.065-3.208-2.78-3.997-.377-.173-.602-.358-.617-.802-.051-1.487-1.215-2.562-2.763-2.594-1.613-.034-2.847.968-2.947 2.46-.034.515-.252.77-.709.999-1.608.808-2.537 2.082-2.66 3.934Z"
        fill="#AC5CD0" />
    <path
        d="M9 23.04c0 .636-.012 1.272.005 1.906.013.462-.179.67-.663.666a169.553 169.553 0 0 0-3.679.001c-.482.006-.68-.195-.678-.655.01-1.29.011-2.58 0-3.87-.006-.496.238-.687.726-.684 1.186.01 2.373.01 3.56 0 .522-.004.756.208.736.73C8.982 21.77 9 22.406 9 23.042Zm-3.889 1.475c.858 0 1.665.01 2.47-.011.103-.003.285-.169.287-.263.022-.88.013-1.76.013-2.645h-2.77v2.92ZM9 30.622c0 .635-.017 1.27.006 1.904.018.477-.232.68-.67.684-1.224.013-2.449.01-3.674.001-.442-.003-.683-.208-.678-.678.014-1.307.01-2.616.003-3.924-.003-.41.185-.608.601-.607l3.794.001c.443.002.633.225.622.657-.015.654-.003 1.308-.003 1.962Zm-1.156 1.432v-2.921H5.132v2.921h2.712ZM9 15.485c0 .673-.007 1.347.002 2.02.006.415-.197.596-.613.595a600.728 600.728 0 0 0-3.797 0c-.427.001-.604-.205-.603-.606.003-1.328.005-2.656.001-3.985-.001-.41.215-.608.615-.61 1.266-.007 2.531-.01 3.797.002.396.004.61.206.602.621C8.99 14.175 9 14.83 9 15.485Zm-3.867-1.52v2.942H7.88c0-.91.01-1.792-.013-2.673-.003-.091-.19-.253-.295-.257-.805-.022-1.61-.011-2.439-.011ZM14.01 31.14c-1.166 0-2.332-.002-3.498 0-.424 0-.835-.044-.814-.59.019-.483.38-.557.796-.557 2.351.005 4.703.008 7.054-.003.428-.002.787.093.792.56.006.46-.347.593-.775.59-1.184-.004-2.37 0-3.555 0ZM14.813 14.948c1.285 0 2.571.003 3.856 0 .379-.002.754.026.766.503.013.491-.346.587-.765.587-2.61-.002-5.222-.002-7.833.001-.419 0-.778-.08-.762-.579.016-.469.374-.515.761-.513 1.326.005 2.651.001 3.976.001ZM12.975 22.485c.73 0 1.462.003 2.194-.001.399-.003.713.089.732.552.02.468-.29.588-.69.59-1.504.002-3.006 0-4.509 0-.385 0-.676-.145-.68-.554-.005-.432.272-.595.698-.59.751.011 1.503.003 2.255.003ZM14.651 2.61c1.268-.008 2.262.941 2.268 2.162.006 1.183-1.048 2.215-2.256 2.21-1.2-.004-2.215-.99-2.228-2.164-.014-1.229.963-2.203 2.216-2.209Zm-1.065 2.142c-.017.58.457 1.072 1.054 1.095a1.064 1.064 0 0 0 1.116-1.023c.02-.599-.43-1.059-1.05-1.07-.643-.014-1.103.396-1.12.998Z"
        fill="#AC5CD0" />
</svg>