<svg width="44" height="40" fill="none" xmlns="http://www.w3.org/2000/svg">
    <mask id="a" fill="#fff">
        <path
            d="M21.969 10.291c.47-3.598 2.092-6.432 4.987-8.375C28.97.563 31.199.033 33.576.276c5.384.554 9.319 5.3 9.568 10.642.265 5.681-3.647 11.05-9.48 11.78v.482c0 3.89.007 7.78-.004 11.67-.005 2.35-1.466 4.363-3.575 4.938a4.626 4.626 0 0 1-1.198.157c-7.81.01-15.619.015-23.429.006-2.512-.002-4.56-2.19-4.653-4.986-.046-1.407-.015-2.818.003-4.226.01-.774.438-1.219 1.176-1.225 1.862-.017 3.724-.012 5.587-.016h.527v-2.424c-.001-5.13-.004-10.26-.003-15.39 0-.96.389-1.37 1.294-1.372 4.07-.002 8.141.002 12.213.002.112 0 .226-.014.367-.023ZM10.293 29.509h.722c4.677-.002 9.354-.007 14.03-.009.857 0 1.28.44 1.284 1.347.004 1.332-.008 2.665.002 3.997.01 1.4.954 2.559 2.19 2.719 1.605.207 2.899-.99 2.903-2.723.009-3.645 0-7.29-.002-10.936 0-.381.12-.887-.061-1.11-.195-.242-.68-.218-1.038-.309-.53-.136-1.06-.385-1.591-.388-3.97-.03-7.94-.011-11.91-.012-.966 0-1.935.016-2.9-.034-.607-.032-.99-.56-.966-1.188.025-.612.47-1.095 1.05-1.13.187-.013.375-.007.563-.007l10.178.003c.15 0 .301-.016.506-.027-.433-.54-.813-1.031-1.216-1.502-.07-.082-.237-.097-.36-.098-1.457-.009-2.915-.009-4.373-.009-1.703 0-3.407.008-5.11.002-.805-.002-1.322-.581-1.23-1.352.073-.62.546-1.012 1.244-1.012 2.641 0 5.283.006 7.925.006.175 0 .35-.03.5-.044l-.717-3.025c-.06-.007-.117-.018-.174-.018-3.682 0-7.362.005-11.044-.01-.382-.003-.409.18-.409.497.006 4.916.005 9.833.005 14.749l-.001 1.623ZM32.534 2.585c-4.544.002-8.284 3.833-8.37 8.647-.088 5.093 3.622 9.108 8.34 9.14 4.572.03 8.406-3.943 8.432-8.74.028-5.024-3.679-9.016-8.402-9.047ZM24.863 37.6c-.685-1.132-.78-2.278-.737-3.458.021-.58-.021-1.164.011-1.744.023-.418-.09-.542-.5-.542-6.506.012-13.013.005-19.52.003-1.092-.001-1.093-.003-1.098 1.146-.003.52.04 1.044-.005 1.56-.13 1.507.89 3.06 2.829 3.047 5.51-.035 11.022-.012 16.533-.011h2.487Z" />
    </mask>
    <path
        d="M21.969 10.291c.47-3.598 2.092-6.432 4.987-8.375C28.97.563 31.199.033 33.576.276c5.384.554 9.319 5.3 9.568 10.642.265 5.681-3.647 11.05-9.48 11.78v.482c0 3.89.007 7.78-.004 11.67-.005 2.35-1.466 4.363-3.575 4.938a4.626 4.626 0 0 1-1.198.157c-7.81.01-15.619.015-23.429.006-2.512-.002-4.56-2.19-4.653-4.986-.046-1.407-.015-2.818.003-4.226.01-.774.438-1.219 1.176-1.225 1.862-.017 3.724-.012 5.587-.016h.527v-2.424c-.001-5.13-.004-10.26-.003-15.39 0-.96.389-1.37 1.294-1.372 4.07-.002 8.141.002 12.213.002.112 0 .226-.014.367-.023ZM10.293 29.509h.722c4.677-.002 9.354-.007 14.03-.009.857 0 1.28.44 1.284 1.347.004 1.332-.008 2.665.002 3.997.01 1.4.954 2.559 2.19 2.719 1.605.207 2.899-.99 2.903-2.723.009-3.645 0-7.29-.002-10.936 0-.381.12-.887-.061-1.11-.195-.242-.68-.218-1.038-.309-.53-.136-1.06-.385-1.591-.388-3.97-.03-7.94-.011-11.91-.012-.966 0-1.935.016-2.9-.034-.607-.032-.99-.56-.966-1.188.025-.612.47-1.095 1.05-1.13.187-.013.375-.007.563-.007l10.178.003c.15 0 .301-.016.506-.027-.433-.54-.813-1.031-1.216-1.502-.07-.082-.237-.097-.36-.098-1.457-.009-2.915-.009-4.373-.009-1.703 0-3.407.008-5.11.002-.805-.002-1.322-.581-1.23-1.352.073-.62.546-1.012 1.244-1.012 2.641 0 5.283.006 7.925.006.175 0 .35-.03.5-.044l-.717-3.025c-.06-.007-.117-.018-.174-.018-3.682 0-7.362.005-11.044-.01-.382-.003-.409.18-.409.497.006 4.916.005 9.833.005 14.749l-.001 1.623ZM32.534 2.585c-4.544.002-8.284 3.833-8.37 8.647-.088 5.093 3.622 9.108 8.34 9.14 4.572.03 8.406-3.943 8.432-8.74.028-5.024-3.679-9.016-8.402-9.047ZM24.863 37.6c-.685-1.132-.78-2.278-.737-3.458.021-.58-.021-1.164.011-1.744.023-.418-.09-.542-.5-.542-6.506.012-13.013.005-19.52.003-1.092-.001-1.093-.003-1.098 1.146-.003.52.04 1.044-.005 1.56-.13 1.507.89 3.06 2.829 3.047 5.51-.035 11.022-.012 16.533-.011h2.487Z"
        fill="#67666D" />
    <path
        d="M21.969 10.291c.47-3.598 2.092-6.432 4.987-8.375C28.97.563 31.199.033 33.576.276c5.384.554 9.319 5.3 9.568 10.642.265 5.681-3.647 11.05-9.48 11.78v.482c0 3.89.007 7.78-.004 11.67-.005 2.35-1.466 4.363-3.575 4.938a4.626 4.626 0 0 1-1.198.157c-7.81.01-15.619.015-23.429.006-2.512-.002-4.56-2.19-4.653-4.986-.046-1.407-.015-2.818.003-4.226.01-.774.438-1.219 1.176-1.225 1.862-.017 3.724-.012 5.587-.016h.527v-2.424c-.001-5.13-.004-10.26-.003-15.39 0-.96.389-1.37 1.294-1.372 4.07-.002 8.141.002 12.213.002.112 0 .226-.014.367-.023ZM10.293 29.509h.722c4.677-.002 9.354-.007 14.03-.009.857 0 1.28.44 1.284 1.347.004 1.332-.008 2.665.002 3.997.01 1.4.954 2.559 2.19 2.719 1.605.207 2.899-.99 2.903-2.723.009-3.645 0-7.29-.002-10.936 0-.381.12-.887-.061-1.11-.195-.242-.68-.218-1.038-.309-.53-.136-1.06-.385-1.591-.388-3.97-.03-7.94-.011-11.91-.012-.966 0-1.935.016-2.9-.034-.607-.032-.99-.56-.966-1.188.025-.612.47-1.095 1.05-1.13.187-.013.375-.007.563-.007l10.178.003c.15 0 .301-.016.506-.027-.433-.54-.813-1.031-1.216-1.502-.07-.082-.237-.097-.36-.098-1.457-.009-2.915-.009-4.373-.009-1.703 0-3.407.008-5.11.002-.805-.002-1.322-.581-1.23-1.352.073-.62.546-1.012 1.244-1.012 2.641 0 5.283.006 7.925.006.175 0 .35-.03.5-.044l-.717-3.025c-.06-.007-.117-.018-.174-.018-3.682 0-7.362.005-11.044-.01-.382-.003-.409.18-.409.497.006 4.916.005 9.833.005 14.749l-.001 1.623ZM32.534 2.585c-4.544.002-8.284 3.833-8.37 8.647-.088 5.093 3.622 9.108 8.34 9.14 4.572.03 8.406-3.943 8.432-8.74.028-5.024-3.679-9.016-8.402-9.047ZM24.863 37.6c-.685-1.132-.78-2.278-.737-3.458.021-.58-.021-1.164.011-1.744.023-.418-.09-.542-.5-.542-6.506.012-13.013.005-19.52.003-1.092-.001-1.093-.003-1.098 1.146-.003.52.04 1.044-.005 1.56-.13 1.507.89 3.06 2.829 3.047 5.51-.035 11.022-.012 16.533-.011h2.487Z"
        fill="#000" fill-opacity=".2" />
    <path
        d="m21.969 10.291.095 1.454 1.195-.077.155-1.188-1.445-.189Zm4.987-8.375.812 1.21-.812-1.21Zm6.62-1.64.149-1.45-.15 1.45Zm9.568 10.642 1.456-.068-1.456.068Zm-9.48 11.78-.18-1.446-1.277.16V22.7h1.458Zm0 .482h1.458-1.457Zm-.004 11.67-1.457-.003 1.457.004Zm-3.575 4.938-.383-1.407H29.7l.385 1.407Zm-1.198.157.002 1.457h.002l-.003-1.457Zm-23.429.006-.001 1.458.001-1.458ZM.805 34.965l1.457-.049-1.457.049Zm.003-4.226 1.457.019v-.001l-1.457-.018Zm1.176-1.225.013 1.457-.013-1.457Zm5.587-.016v-1.457h-.003l.003 1.457Zm.527 0v1.458h1.458v-1.458H8.098Zm0-2.424h1.458-1.458Zm-.003-15.39h1.457-1.457Zm1.294-1.372V8.855h-.001l.001 1.457Zm12.213.002v1.457-1.457Zm-11.31 19.195H8.836v1.458h1.458V29.51Zm.723 0v1.458h.001V29.51Zm14.03-.009v-1.457V29.5Zm1.284 1.347 1.457-.005-1.457.005Zm.002 3.997 1.458-.01v-.001l-1.458.011Zm2.19 2.719-.187 1.445.187-1.445Zm2.903-2.723 1.457.003-1.457-.003Zm-.002-10.936h-1.457v.001h1.457Zm-.061-1.11-1.133.916v.002l1.133-.919Zm-1.038-.309-.362 1.412.004.001.358-1.413Zm-1.591-.388-.011 1.457.01-1.457Zm-11.91-.012v-1.458 1.458Zm-2.9-.034-.077 1.455h.001l.076-1.455Zm-.966-1.188 1.457.058-1.457-.058Zm1.05-1.13.09 1.454h.003l-.093-1.455Zm.563-.007.001-1.458v1.458Zm10.684-.024.078 1.455 2.833-.153-1.774-2.214-1.137.912ZM24.037 18.2l-1.107.95 1.107-.95Zm-.36-.098.012-1.458h-.003l-.008 1.458Zm-9.483-.007-.005 1.458.005-1.458Zm-1.23-1.352-1.448-.172 1.447.171Zm9.668-1.05.135 1.451 1.67-.154-.386-1.633-1.419.336Zm-.716-3.025 1.418-.336-.237-1.005-1.027-.109-.154 1.45Zm-.174-.018v1.458-1.458Zm-11.044-.01-.007 1.457.007-1.458Zm-.409.497H8.832v.002l1.457-.002Zm.005 14.749 1.457.002v-.002h-1.457Zm22.24-25.3.01-1.458h-.01v1.457Zm-8.37 8.646-1.457-.026 1.458.026Zm8.34 9.14.01-1.458-.01 1.458Zm8.432-8.74-1.457-.007 1.457.008ZM24.863 37.6v1.457h2.586l-1.34-2.212-1.246.755Zm-.737-3.459-1.457-.054 1.457.054Zm.011-1.744-1.455-.081 1.455.081Zm-.5-.542v-1.458h-.003l.003 1.458Zm-19.52.003-.001 1.457.001-1.457ZM3.02 33.004l1.457.007-1.457-.007Zm-.005 1.56-1.452-.127v.002l1.452.125Zm2.829 3.047-.01-1.458.01 1.458Zm16.533-.011v1.457V37.6Zm1.038-27.12c.421-3.23 1.845-5.67 4.354-7.354L26.144.706c-3.281 2.202-5.103 5.43-5.62 9.396l2.89.378Zm4.354-7.354c1.726-1.158 3.612-1.61 5.66-1.4l.296-2.9c-2.707-.277-5.275.333-7.58 1.88l1.624 2.42Zm5.659-1.4c4.574.47 8.04 4.54 8.261 9.26l2.912-.136C44.322 4.884 39.92-.537 33.725-1.173l-.298 2.9Zm8.261 9.26c.234 5.02-3.222 9.642-8.204 10.266l.362 2.893c6.682-.837 11.05-6.953 10.754-13.295l-2.912.136Zm-9.48 11.713V23.18h2.914V22.698h-2.915Zm0 .48c-.002 3.895.005 7.78-.005 11.668l2.915.008c.01-3.893.003-7.788.004-11.674l-2.915-.001Zm-.005 11.668c-.005 1.76-1.087 3.15-2.501 3.534l.766 2.813c2.804-.764 4.643-3.4 4.65-6.34l-2.915-.007ZM29.7 38.382c-.25.068-.533.105-.816.105l.007 2.915a6.082 6.082 0 0 0 1.578-.208l-.769-2.812Zm-.814.105c-7.81.01-15.618.015-23.426.007l-.003 2.915c7.811.008 15.622.004 23.432-.007l-.003-2.915Zm-23.426.007c-1.595-.002-3.127-1.428-3.198-3.578l-2.913.097c.114 3.442 2.678 6.392 6.108 6.396l.003-2.915Zm-3.198-3.578c-.045-1.364-.015-2.73.003-4.158l-2.914-.038c-.018 1.388-.05 2.843-.002 4.293l2.913-.097Zm.004-4.159c.001-.128.032-.037-.092.092a.47.47 0 0 1-.166.113c-.042.016-.052.01-.01.01l-.026-2.915c-.663.005-1.366.217-1.9.772-.525.546-.713 1.246-.721 1.892l2.915.036Zm-.269.214c1.855-.016 3.706-.011 5.577-.015l-.006-2.915c-1.854.004-3.728-.001-5.596.016l.025 2.915Zm5.574-.015H8.099v-2.915H7.57v2.915Zm1.985-1.458V27.074H6.641V29.498h2.915Zm0-2.424c-.002-5.13-.004-10.261-.003-15.39H6.636c0 5.13.002 10.261.004 15.39h2.915Zm-.003-15.39c0-.072.003-.124.008-.16.004-.037.008-.052.008-.05a.463.463 0 0 1-.107.165.591.591 0 0 1-.203.138c-.023.008.009-.007.132-.007l-.003-2.915c-.642 0-1.442.144-2.045.783-.585.62-.706 1.415-.706 2.045h2.916Zm-.163.086c4.07-.002 8.138.002 12.212.002V8.855c-4.07 0-8.143-.003-12.214-.001l.002 2.915Zm12.212.002c.171 0 .431-.024.462-.027l-.19-2.908a7.967 7.967 0 0 0-.123.009l-.088.007-.061.003v2.915Zm-11.31 19.195H11.016v-2.915H10.293v2.915Zm.724 0 14.03-.01v-2.914c-4.678.002-9.356.006-14.032.009l.002 2.915Zm14.03-.01c.094 0 .113.013.084.004a.527.527 0 0 1-.178-.12.415.415 0 0 1-.094-.146c-.002-.006.013.039.013.157l2.915-.01c-.002-.653-.155-1.418-.725-2.015-.583-.61-1.351-.784-2.015-.784v2.915Zm-.175-.106c.004 1.298-.008 2.679.003 4.005l2.915-.023c-.01-1.339.002-2.624-.003-3.991l-2.915.01Zm.003 4.004c.015 2.009 1.389 3.885 3.46 4.153l.374-2.89c-.401-.053-.913-.494-.92-1.285l-2.914.022Zm3.46 4.153c2.566.33 4.541-1.648 4.547-4.165l-2.915-.007c-.002.948-.614 1.364-1.259 1.281l-.372 2.891Zm4.547-4.165c.01-3.648.001-7.298-.001-10.94l-2.915.002c.002 3.648.01 7.29.001 10.931l2.915.007Zm-.001-10.939c0-.03.002-.078.01-.185.008-.086.021-.234.026-.376.005-.141.007-.35-.032-.577a1.906 1.906 0 0 0-.391-.89l-2.264 1.835a1.016 1.016 0 0 1-.224-.5l-.001-.009V23.2a.341.341 0 0 0 0 .038c-.003.06-.009.124-.019.247-.008.102-.02.26-.02.42h2.915Zm-.387-2.028a1.938 1.938 0 0 0-.76-.563 2.74 2.74 0 0 0-.563-.163c-.133-.024-.283-.044-.352-.054a3.206 3.206 0 0 1-.128-.021l-.009-.002-.716 2.825c.17.043.332.068.435.082l.079.012a13.632 13.632 0 0 1 .157.024c.052.01.026.01-.035-.016a.98.98 0 0 1-.373-.29l2.265-1.834Zm-1.808-.802c-.242-.063-.35-.112-.738-.228a4.284 4.284 0 0 0-1.205-.207l-.02 2.915c.053 0 .158.015.386.083.143.043.565.186.853.26l.724-2.823Zm-1.942-.435c-3.976-.03-7.96-.01-11.92-.012v2.915c3.98.001 7.935-.018 11.898.012l.022-2.915Zm-11.92-.012c-1.001 0-1.91.016-2.825-.032l-.152 2.911c1.015.053 2.044.036 2.976.036v-2.915Zm-2.824-.032a.49.49 0 0 1 .349.184c.069.088.064.149.065.142l-2.913-.117c-.049 1.22.75 2.618 2.345 2.702l.154-2.91Zm.414.325a.246.246 0 0 1-.071.152.373.373 0 0 1-.246.115l-.18-2.91c-1.395.087-2.365 1.24-2.416 2.528l2.913.115Zm-.314.267c.125-.008.225-.004.47-.004v-2.915c-.13 0-.407-.006-.656.01l.186 2.909Zm.47-.004c3.392.002 6.785.004 10.178.004v-2.915c-3.392 0-6.785-.002-10.177-.004l-.002 2.915Zm10.178.004c.197 0 .49-.025.584-.03l-.157-2.91c-.314.016-.322.025-.427.025v2.915Zm1.643-2.397c-.411-.513-.822-1.044-1.247-1.539l-2.213 1.898c.383.446.732.899 1.185 1.464l2.275-1.823Zm-1.247-1.539a1.737 1.737 0 0 0-.957-.555 2.445 2.445 0 0 0-.497-.052l-.022 2.915c.018 0-.024.002-.1-.014a1.033 1.033 0 0 1-.224-.078 1.256 1.256 0 0 1-.413-.318l2.213-1.898Zm-1.457-.607c-1.462-.008-2.925-.008-4.382-.008v2.915c1.459 0 2.913 0 4.366.008l.016-2.915Zm-4.382-.008c-1.712 0-3.404.007-5.105.002l-.01 2.915c1.706.005 3.422-.002 5.115-.002v-2.915Zm-5.105.002c-.026 0-.019-.005.01.008a.357.357 0 0 1 .192.219c.013.04.008.06.01.048l-2.895-.341c-.09.758.116 1.527.646 2.113.528.584 1.269.865 2.027.868l.01-2.915Zm.212.276a.274.274 0 0 1-.032.09.423.423 0 0 1-.105.129c-.092.075-.144.055-.066.055v-2.915c-.62 0-1.258.177-1.779.602a2.55 2.55 0 0 0-.913 1.696l2.895.343Zm-.203.274 3.96.003c1.321.002 2.643.004 3.965.004V14.28c-1.32 0-2.64-.002-3.96-.004-1.322-.001-2.643-.003-3.965-.003v2.915Zm7.925.007c.166 0 .316-.015.419-.026.143-.016.149-.019.215-.025l-.269-2.902a5.62 5.62 0 0 0-.154.016l-.111.014a1.072 1.072 0 0 1-.1.008v2.915Zm1.918-1.838-.717-3.025-2.837.67.717 3.027 2.837-.672Zm-1.981-4.139h-.008a2.12 2.12 0 0 0-.32-.025v2.915a.926.926 0 0 1-.073-.003l-.017-.002h-.003l.01.001a.64.64 0 0 0 .022.003l.034.005.047.005.308-2.899Zm-.328-.025c-3.685-.001-7.36.004-11.038-.011l-.012 2.915c3.685.015 7.371.01 11.05.01v-2.914Zm-11.037-.011c-.372-.002-1.122.083-1.582.8-.186.29-.244.574-.268.745a3.014 3.014 0 0 0-.023.41h2.915c0-.075.002-.059-.004-.014a1.087 1.087 0 0 1-.165.432 1.215 1.215 0 0 1-.579.476c-.177.068-.304.066-.308.066l.014-2.915Zm-1.873 1.957c.006 4.915.004 9.83.004 14.747h2.915c0-4.915.002-9.834-.004-14.75l-2.915.003Zm.004 14.744v1.627h2.914l.001-1.622-2.915-.005ZM32.534 1.128c-5.403.002-9.729 4.535-9.827 10.078l2.915.052c.072-4.084 3.227-7.214 6.913-7.215l-.001-2.915Zm-9.827 10.079c-.101 5.815 4.173 10.584 9.787 10.622l.02-2.915c-3.82-.026-6.969-3.286-6.892-7.656l-2.915-.051Zm9.787 10.622c5.443.037 9.87-4.653 9.9-10.188l-2.915-.016c-.022 4.057-3.264 7.314-6.965 7.29l-.02 2.914Zm9.9-10.188c.031-5.743-4.24-10.476-9.85-10.513l-.02 2.915c3.836.025 6.978 3.275 6.955 7.582l2.915.016ZM26.11 36.845c-.47-.776-.567-1.584-.528-2.65l-2.913-.107c-.047 1.293.046 2.777.947 4.266l2.494-1.51Zm-.528-2.65c.013-.335.007-.668.003-.946-.004-.293-.006-.538.007-.772l-2.91-.16c-.02.346-.016.682-.012.971.004.304.008.554 0 .799l2.912.109Zm.01-1.717c.013-.23.05-.932-.471-1.497-.532-.577-1.248-.584-1.484-.584v2.915c.044 0-.015.005-.123-.023a1.143 1.143 0 0 1-.537-.332 1.132 1.132 0 0 1-.281-.54c-.02-.1-.012-.15-.014-.101l2.91.162Zm-1.957-2.08c-6.505.011-13.009.005-19.517.002l-.001 2.915c6.506.003 13.014.01 19.523-.003l-.006-2.915ZM4.117 30.4c-.235 0-.541-.003-.799.027-.254.029-.782.117-1.21.563-.414.431-.492.949-.519 1.19-.028.256-.028.563-.029.817l2.915.013c0-.148.002-.258.004-.35.002-.094.005-.14.008-.16.002-.022-.001.03-.031.115a1.096 1.096 0 0 1-.246.394c-.142.149-.296.23-.409.273-.099.037-.163.042-.15.04.01 0 .047-.004.134-.005.086-.002.188-.002.33-.002l.002-2.915Zm-2.557 2.596c-.003.706.04.992.001 1.441l2.904.254c.051-.582.009-1.345.01-1.68l-2.915-.015Zm.001 1.443c-.19 2.218 1.354 4.648 4.29 4.63l-.019-2.916c-.546.004-.868-.198-1.063-.43a1.431 1.431 0 0 1-.303-1.034l-2.905-.25Zm4.29 4.63c5.505-.036 11.005-.013 16.524-.012v-2.915c-5.503 0-11.025-.024-16.543.011l.019 2.915Zm16.524-.012H24.863v-2.915H22.376v2.915Z"
        fill="#AC5CD0" mask="url(#a)" />
    <path
        d="m18.443 25.339 1.13.001c1.052.002 2.1.003 3.15-.002h-4.28Zm0 0-4.369-.001m4.37 0h-4.37m0 0c-.123 0-.182-.03-.215-.052m.215.052-.215-.052m-.088-.675c-.061.049-.145.248-.066.446l.066-.446Zm0 0 .002-.001m-.002.001.002-.001m0 0a.624.624 0 0 1 .298-.133c2.895-.02 5.79-.02 8.687-.008m-8.985.141 8.985-.141m0 0c.172 0 .264.057.314.108m-.314-.108.314.108m-9.213.709c-.037-.026-.096-.086-.153-.229l.153.229Zm9.213-.71c.052.054.106.152.106.319m-.106-.318.106.318m0 0c0 .27-.156.441-.456.443l.456-.443Z"
        fill="#67666D" />
    <path
        d="m18.443 25.339 1.13.001c1.052.002 2.1.003 3.15-.002h-4.28Zm0 0-4.369-.001m4.37 0h-4.37m0 0c-.123 0-.182-.03-.215-.052m.215.052-.215-.052m-.088-.675c-.061.049-.145.248-.066.446l.066-.446Zm0 0 .002-.001m-.002.001.002-.001m0 0a.624.624 0 0 1 .298-.133c2.895-.02 5.79-.02 8.687-.008m-8.985.141 8.985-.141m0 0c.172 0 .264.057.314.108m-.314-.108.314.108m-9.213.709c-.037-.026-.096-.086-.153-.229l.153.229Zm9.213-.71c.052.054.106.152.106.319m-.106-.318.106.318m0 0c0 .27-.156.441-.456.443l.456-.443Z"
        fill="#000" fill-opacity=".2" />
    <path
        d="m18.443 25.339 1.13.001c1.052.002 2.1.003 3.15-.002h-4.28Zm0 0-4.369-.001m4.37 0h-4.37m0 0c-.123 0-.182-.03-.215-.052m.215.052-.215-.052m-.088-.675c-.061.049-.145.248-.066.446l.066-.446Zm0 0 .002-.001m-.002.001.002-.001m0 0a.624.624 0 0 1 .298-.133c2.895-.02 5.79-.02 8.687-.008m-8.985.141 8.985-.141m0 0c.172 0 .264.057.314.108m-.314-.108.314.108m-9.213.709c-.037-.026-.096-.086-.153-.229l.153.229Zm9.213-.71c.052.054.106.152.106.319m-.106-.318.106.318m0 0c0 .27-.156.441-.456.443l.456-.443Z"
        stroke="#AC5CD0" stroke-width="1.458" />
    <path
        d="M30.903 16.386c.374.175.531.318.52.762-.02.736.43 1.216 1.066 1.232l-1.586-1.994Zm0 0a11.289 11.289 0 0 1-2.051-1.231l2.051 1.231Zm1.604 1.265c-.132-.003-.207-.05-.252-.1-.048-.055-.11-.17-.104-.383.008-.306-.038-.641-.26-.938-.202-.27-.484-.413-.68-.504a10.559 10.559 0 0 1-1.918-1.151c-.17-.13-.216-.4-.038-.616.098-.118.185-.144.245-.147.066-.004.186.018.338.15l2.669 3.689Zm0 0a.44.44 0 0 0 .283-.08c.039-.03.063-.068.065-.14.007-.48.136-.888.432-1.218.261-.29.606-.46.852-.58h.001c1.553-.756 1.72-2.888.365-3.853-.307-.218-.686-.385-1.113-.538-.288-.104-.586-.19-.904-.28l-.146-.041c-.27-.076-.556-.156-.838-.247m1.003 6.977-1.324-8.355c.003-.397.277-.54.59-.621m-.27 2 .224-.694-.223.693Zm0 0a1.582 1.582 0 0 1-.711-.45 1.372 1.372 0 0 1-.338-.935 1.27 1.27 0 0 1 .425-.97c.239-.21.521-.301.71-.35m0 0h-.001l.185.705m-.184-.705.184.705m-.184-.705c1.213-.32 2.248.087 3.106.755.151.118.266.132.33.126.059-.006.139-.036.222-.147a.47.47 0 0 0-.098-.679 6.42 6.42 0 0 0-1.282-.754c-.204-.09-.486-.231-.693-.504-.222-.293-.28-.63-.275-.95.004-.245-.068-.37-.12-.427-.048-.051-.127-.098-.27-.094-.122.003-.19.046-.238.103-.054.064-.123.201-.12.447.003.212-.014.522-.203.805-.198.296-.49.428-.72.5l-.001.001a2.204 2.204 0 0 0-1.53 2.419l2.076-.896m2.083 3.73h.001c.502.218.802.682.796 1.194-.007.499-.302.945-.763 1.18-.38.194-.845.32-1.298.31-1.07-.021-1.988-.466-2.753-1.127l4.017-1.558Zm0 0c-.726-.315-1.481-.534-2.19-.73m2.19.73-2.19-.73m0 0c-1.155-.32-1.83-1.077-1.969-2.104l1.969 2.104Z"
        fill="#67666D" />
    <path
        d="M30.903 16.386c.374.175.531.318.52.762-.02.736.43 1.216 1.066 1.232l-1.586-1.994Zm0 0a11.289 11.289 0 0 1-2.051-1.231l2.051 1.231Zm1.604 1.265c-.132-.003-.207-.05-.252-.1-.048-.055-.11-.17-.104-.383.008-.306-.038-.641-.26-.938-.202-.27-.484-.413-.68-.504a10.559 10.559 0 0 1-1.918-1.151c-.17-.13-.216-.4-.038-.616.098-.118.185-.144.245-.147.066-.004.186.018.338.15l2.669 3.689Zm0 0a.44.44 0 0 0 .283-.08c.039-.03.063-.068.065-.14.007-.48.136-.888.432-1.218.261-.29.606-.46.852-.58h.001c1.553-.756 1.72-2.888.365-3.853-.307-.218-.686-.385-1.113-.538-.288-.104-.586-.19-.904-.28l-.146-.041c-.27-.076-.556-.156-.838-.247m1.003 6.977-1.324-8.355c.003-.397.277-.54.59-.621m-.27 2 .224-.694-.223.693Zm0 0a1.582 1.582 0 0 1-.711-.45 1.372 1.372 0 0 1-.338-.935 1.27 1.27 0 0 1 .425-.97c.239-.21.521-.301.71-.35m0 0h-.001l.185.705m-.184-.705.184.705m-.184-.705c1.213-.32 2.248.087 3.106.755.151.118.266.132.33.126.059-.006.139-.036.222-.147a.47.47 0 0 0-.098-.679 6.42 6.42 0 0 0-1.282-.754c-.204-.09-.486-.231-.693-.504-.222-.293-.28-.63-.275-.95.004-.245-.068-.37-.12-.427-.048-.051-.127-.098-.27-.094-.122.003-.19.046-.238.103-.054.064-.123.201-.12.447.003.212-.014.522-.203.805-.198.296-.49.428-.72.5l-.001.001a2.204 2.204 0 0 0-1.53 2.419l2.076-.896m2.083 3.73h.001c.502.218.802.682.796 1.194-.007.499-.302.945-.763 1.18-.38.194-.845.32-1.298.31-1.07-.021-1.988-.466-2.753-1.127l4.017-1.558Zm0 0c-.726-.315-1.481-.534-2.19-.73m2.19.73-2.19-.73m0 0c-1.155-.32-1.83-1.077-1.969-2.104l1.969 2.104Z"
        fill="#000" fill-opacity=".2" />
    <path
        d="M30.903 16.386c.374.175.531.318.52.762-.02.736.43 1.216 1.066 1.232l-1.586-1.994Zm0 0a11.289 11.289 0 0 1-2.051-1.231l2.051 1.231Zm1.604 1.265c-.132-.003-.207-.05-.252-.1-.048-.055-.11-.17-.104-.383.008-.306-.038-.641-.26-.938-.202-.27-.484-.413-.68-.504a10.559 10.559 0 0 1-1.918-1.151c-.17-.13-.216-.4-.038-.616.098-.118.185-.144.245-.147.066-.004.186.018.338.15l2.669 3.689Zm0 0a.44.44 0 0 0 .283-.08c.039-.03.063-.068.065-.14.007-.48.136-.888.432-1.218.261-.29.606-.46.852-.58h.001c1.553-.756 1.72-2.888.365-3.853-.307-.218-.686-.385-1.113-.538-.288-.104-.586-.19-.904-.28l-.146-.041c-.27-.076-.556-.156-.838-.247m1.003 6.977-1.324-8.355c.003-.397.277-.54.59-.621m-.27 2 .224-.694-.223.693Zm0 0a1.582 1.582 0 0 1-.711-.45 1.372 1.372 0 0 1-.338-.935 1.27 1.27 0 0 1 .425-.97c.239-.21.521-.301.71-.35m0 0h-.001l.185.705m-.184-.705.184.705m-.184-.705c1.213-.32 2.248.087 3.106.755.151.118.266.132.33.126.059-.006.139-.036.222-.147a.47.47 0 0 0-.098-.679 6.42 6.42 0 0 0-1.282-.754c-.204-.09-.486-.231-.693-.504-.222-.293-.28-.63-.275-.95.004-.245-.068-.37-.12-.427-.048-.051-.127-.098-.27-.094-.122.003-.19.046-.238.103-.054.064-.123.201-.12.447.003.212-.014.522-.203.805-.198.296-.49.428-.72.5l-.001.001a2.204 2.204 0 0 0-1.53 2.419l2.076-.896m2.083 3.73h.001c.502.218.802.682.796 1.194-.007.499-.302.945-.763 1.18-.38.194-.845.32-1.298.31-1.07-.021-1.988-.466-2.753-1.127l4.017-1.558Zm0 0c-.726-.315-1.481-.534-2.19-.73m2.19.73-2.19-.73m0 0c-1.155-.32-1.83-1.077-1.969-2.104l1.969 2.104Z"
        stroke="#AC5CD0" stroke-width="1.458" />
</svg>