<svg width="37" height="36" fill="none" xmlns="http://www.w3.org/2000/svg">
    <path
        d="M27.378 19.889c1.55-1.384 3.064-2.707 4.545-4.063 1.428-1.308 3.723-.998 4.532.717.451.954.466 2.007-.281 2.88-2.118 2.472-4.233 4.949-6.42 7.364-1.22 1.348-2.88 1.87-4.725 1.87-2.972-.004-5.943.007-8.915-.007-.819-.004-1.513.2-2.088.791-.29.298-.521.526-.421 1.01.124.596-.143 1.144-.595 1.578a411.916 411.916 0 0 1-3.353 3.184c-.422.396-.763.395-1.18-.006a3128.277 3128.277 0 0 1-7.812-7.548c-.403-.392-.4-.752 0-1.144 1.09-1.063 2.155-2.155 3.31-3.149.403-.345 1.042-.43 1.568-.647.183-.075.417-.147.515-.29 2.185-3.223 5.344-4.32 9.185-3.895.665.075 1.312.312 1.97.463.216.05.44.093.662.093 2.29.006 4.58.004 6.87.004 1.485.001 1.72.08 2.633.795Zm-14.76 8.93c.138-.113.234-.174.309-.254.9-.954 2.018-1.305 3.35-1.287 2.971.042 5.945.021 8.917.01 1.407-.006 2.654-.458 3.579-1.497 2.079-2.337 4.121-4.704 6.17-7.067.58-.668.535-1.486-.076-2-.615-.517-1.393-.472-2.026.148a465.611 465.611 0 0 0-4.35 4.313 1.01 1.01 0 0 0-.263.61c-.087 1.638-1.262 2.753-2.958 2.76-1.514.007-3.03.002-4.544.002-.36 0-.719.003-1.08-.001-.47-.006-.775-.243-.778-.689-.004-.427.31-.638.742-.671.17-.013.341-.011.512-.011l4.827-.001c1.194-.001 1.858-.497 1.848-1.376-.012-.88-.67-1.36-1.877-1.362-2.405-.002-4.81.003-7.213-.006-.28 0-.58-.013-.834-.109-1.617-.61-3.266-.716-4.952-.352-1.976.427-3.531 1.442-4.595 3.112-.088.14-.11.455-.014.55 1.752 1.739 3.53 3.454 5.306 5.178ZM2.112 27.035c2.38 2.26 4.711 4.477 7.19 6.833.848-.878 1.739-1.797 2.626-2.718.352-.366.36-.738.007-1.109-.294-.308-.612-.595-.92-.892-1.635-1.569-3.273-3.135-4.904-4.708-.334-.322-.728-.492-1.098-.157-.991.896-1.94 1.832-2.9 2.75ZM21.576 15.518c-4.312.007-7.83-3.333-7.84-7.444C13.723 3.916 17.222.515 21.52.51c4.33-.007 7.87 3.355 7.88 7.485.01 4.142-3.497 7.515-7.825 7.523Zm-6.393-7.482c.004 3.4 2.85 6.14 6.377 6.142 3.526 0 6.38-2.746 6.383-6.139.002-3.43-2.862-6.185-6.408-6.162-3.54.02-6.357 2.752-6.352 6.16Z"
        fill="#AC5CD0" />
    <path
        d="M15.903 23.677c.043-.337.28-.568.69-.598.398-.028.697.292.692.696-.004.43-.277.627-.673.664-.38.036-.72-.32-.71-.762ZM22.134 4.627c.397.281.734.484 1.026.736.32.274.318.623.043.923-.253.276-.579.327-.916.109-.172-.112-.333-.291-.518-.318-.255-.039-.586-.04-.776.09-.164.11-.29.466-.226.644.073.206.355.367.582.49.154.084.371.054.554.1.846.206 1.396.728 1.595 1.534.209.85-.148 1.713-.89 2.138-.355.203-.497.412-.476.81.033.61-.234.898-.723.891-.467-.005-.734-.285-.711-.856.017-.415-.095-.66-.507-.846-.294-.134-.54-.396-.763-.64-.279-.303-.253-.658.046-.927.3-.269.651-.251.973.012.171.141.328.357.524.4.284.06.64.074.884-.044.158-.077.303-.496.222-.639-.13-.228-.437-.464-.699-.505-1.058-.16-1.796-.692-2.025-1.567-.24-.91.142-1.714 1.063-2.324.136-.09.213-.298.26-.467.052-.189-.037-.449.068-.582.175-.222.434-.47.695-.518.379-.07.628.226.686.583.044.267.009.546.009.773Z"
        fill="#AC5CD0" />
</svg>