<svg width="41" height="43" fill="none" xmlns="http://www.w3.org/2000/svg">
    <path
        d="M2.087 30.43c0-.853.004-1.637-.002-2.422-.008-1.526.495-2.857 1.45-4.042.209-.257.36-.645.363-.974.022-4.9.016-9.802.016-14.703 0-1.267.308-1.571 1.587-1.572 1.396 0 2.791.005 4.187-.003.452-.003.798.125.79.64-.008.495-.361.571-.778.569-1.477-.01-2.953-.004-4.47-.004V22.6c.17-.052.326-.09.474-.147 2.348-.912 4.798-.327 6.508 1.52.175.189.508.32.77.324 2.092.026 4.186.006 6.278.026.258.003.559.101.752.26.113.093.147.484.053.585-.17.18-.46.335-.704.339-1.766.027-3.531.015-5.298.015h-.78c.118.564.187 1.078.353 1.558.046.13.385.222.59.225 2.246.015 4.492.009 6.737.01h4.252c.446 0 .936-.031.92.622-.016.604-.474.575-.9.575-3.664-.002-7.326-.002-10.99-.002h-.5v1.744h.739c3.51 0 7.02 0 10.53.003.238 0 .515-.033.702.076.188.11.399.378.395.572-.004.2-.222.444-.41.574-.138.094-.38.047-.575.047-2.9.003-5.799.001-8.7.001h-.768c0 .688-.002 1.315.002 1.944.002.436-.105.815-.62.824-.513.01-.646-.366-.653-.8-.009-.584-.003-1.168-.003-1.798-.286-.015-.498-.036-.708-.036-3.86-.001-7.718.01-11.578-.013-.554-.003-.763.118-.757.72.03 2.625.022 5.25.005 7.877-.004.52.13.732.699.73 3.902-.023 7.805-.019 11.708-.003.475.001.658-.125.642-.628-.033-1.115-.01-2.232-.01-3.347 0-.483.03-.996.657-.993.593.002.63.492.619.955-.005.218-.001.435-.001.702h15.974V22.836c-.922.618-1.639.12-2.33-.379-1.182-.854-2.332-1.75-3.517-2.6a1.497 1.497 0 0 0-.82-.264c-2.464-.02-4.927-.007-7.391-.02-.245-.002-.548-.053-.714-.202-.132-.12-.196-.484-.11-.635.1-.178.396-.338.61-.342 1.788-.027 3.576-.017 5.364-.017h1.555c-.416-.605-.75-1.154-1.156-1.645-.114-.137-.434-.138-.66-.14-3.51-.007-7.021-.005-10.531-.005-.197 0-.43.066-.58-.02-.247-.14-.577-.348-.624-.58-.082-.407.234-.61.652-.61 1.722.002 3.445 0 5.167 0h5.85c-.178-.564-.293-1.09-.522-1.56-.07-.145-.45-.193-.688-.194-3.052-.012-6.105.001-9.157-.017-.514-.003-1.31.241-1.3-.629.009-.804.765-.6 1.274-.602 2.921-.012 5.843-.007 8.765-.007h.651V7.923h-.833c-2.464 0-4.928 0-7.39-.002-.45 0-1.02.101-1.024-.578-.003-.651.535-.624 1.006-.624 2.464.003 4.928.002 7.391.002h.821c0-.378.003-.718 0-1.06-.005-.656.287-1.125.87-1.418 2.588-1.295 5.177-2.588 7.761-3.89.511-.257.997-.238 1.498.014 2.563 1.29 5.13 2.573 7.695 3.86.55.276.907.705.903 1.334-.012 1.923.026 3.852-.095 5.77-.22 3.523-1.83 6.37-4.469 8.65a26.614 26.614 0 0 1-2.168 1.682c-.35.243-.472.487-.47.906.014 4.944.008 9.89.008 14.835 0 1.274-.315 1.593-1.577 1.593H15.662c0 .585.012 1.105-.002 1.623-.026.962-.607 1.543-1.57 1.546-4.142.006-8.285.006-12.427 0C.729 42.164.137 41.592.13 40.66c-.014-2.91-.015-5.82 0-8.73.006-.913.56-1.427 1.485-1.468.121-.009.25-.02.47-.034ZM38.89 8.961c0-1.188-.02-2.063.01-2.936.014-.434-.142-.67-.527-.86-2.397-1.18-4.778-2.393-7.18-3.562a1.138 1.138 0 0 0-.88 0c-2.424 1.181-4.827 2.407-7.245 3.6-.339.169-.474.36-.467.745.023 1.53-.026 3.063.025 4.591.074 2.226.678 4.297 1.973 6.135 1.53 2.175 3.636 3.677 5.858 5.037.164.1.513.059.69-.053a37.685 37.685 0 0 0 2.427-1.653c1.892-1.417 3.484-3.093 4.422-5.317.819-1.939.925-3.978.895-5.727ZM4.55 30.424c0-.629-.009-1.175.003-1.72.012-.521-.031-1.062.086-1.56.421-1.77 1.915-2.827 3.6-2.615 1.793.226 2.976 1.593 2.985 3.454.004.803.002 1.606.002 2.432h1.185c0-.918.008-1.789-.002-2.66-.02-1.9-.954-3.26-2.61-4.054-1.702-.816-3.35-.559-4.824.633-2.026 1.637-1.636 3.897-1.602 6.092.42-.002.759-.002 1.177-.002Zm5.367.004c0-1.07.083-2.116-.027-3.142-.092-.87-.973-1.498-1.858-1.546-.977-.052-1.955.483-2.11 1.384-.184 1.073-.142 2.186-.2 3.304h4.195Z"
        fill="#AC5CD0" />
    <path
        d="M18.486 21.3c2.2 0 4.398-.003 6.598.003.234.002.504-.005.69.107.17.1.342.36.34.544-.004.188-.185.43-.358.54-.163.103-.417.086-.63.088-4.464.003-8.927.002-13.391.002-.131 0-.3.049-.385-.014-.236-.177-.438-.4-.654-.605.224-.22.416-.568.678-.634.431-.106.907-.032 1.364-.032h5.748ZM23.653 24.315c.611 0 1.22-.004 1.832.002.413.002.732.208.626.627-.058.23-.399.543-.624.552a41.536 41.536 0 0 1-3.66 0c-.23-.01-.583-.317-.638-.547-.098-.41.22-.627.632-.631.612-.008 1.222-.003 1.832-.003ZM13.047 18.379c.565 0 1.136-.056 1.69.024.244.036.59.309.644.533.097.406-.231.631-.632.635-1.128.014-2.257.01-3.386.002-.401-.003-.732-.215-.637-.626.053-.226.391-.508.632-.543.552-.08 1.125-.025 1.689-.025ZM24.496 10.644c.046-3.088 2.313-5.739 5.293-6.155 3.144-.438 6.12 1.525 6.93 4.575.05.189.15.417.09.572-.091.235-.27.521-.478.595-.16.056-.454-.146-.63-.3-.11-.097-.116-.317-.158-.485-.592-2.38-2.79-3.949-5.277-3.766-2.287.168-4.299 2.152-4.516 4.452a5.082 5.082 0 0 0 3.679 5.365c2.238.627 4.714-.513 5.752-2.65.067-.136.124-.278.184-.417.173-.399.466-.609.882-.417.385.175.41.508.255.888-.789 1.921-2.166 3.227-4.158 3.757-3.47.924-6.781-1.088-7.659-4.59-.119-.462-.13-.949-.19-1.424Z"
        fill="#AC5CD0" />
    <path
        d="M30.443 11.477c.778-.815 1.485-1.55 2.186-2.29.308-.326.647-.598 1.05-.203.4.394.147.743-.172 1.06-.819.813-1.628 1.634-2.447 2.447-.544.54-.74.54-1.295-.005-.513-.502-1.015-1.017-1.518-1.527-.272-.277-.414-.6-.113-.918.311-.331.674-.259.975.04.415.414.812.848 1.334 1.396Z"
        fill="#AC5CD0" />
</svg>