<svg width="41" height="42" fill="none" xmlns="http://www.w3.org/2000/svg">
    <path
        d="M32.934 11.894c.322-.16.913-.377 1.419-.722.75-.514 1.14-.543 1.782.093 1.365 1.353 2.721 2.715 4.078 4.078.833.836.834 1.3.011 2.121L22.815 34.87c-1.973 1.972-3.944 3.947-5.92 5.916-.763.762-1.25.765-2.023 0a696.764 696.764 0 0 1-4.08-4.075c-.705-.71-.715-1.087-.086-1.876.898-1.126.842-2.593-.133-3.579-.959-.965-2.394-1.044-3.52-.191-.93.701-1.223.684-2.035-.128-1.343-1.343-2.688-2.683-4.027-4.03-.7-.704-.706-1.228-.007-1.926A52483.4 52483.4 0 0 1 24.46 1.51c.705-.706 1.217-.701 1.923.001 1.38 1.371 2.755 2.75 4.127 4.129.7.703.712 1.082.083 1.872-.712.894-.849 1.87-.342 2.893.481.97 1.317 1.42 2.683 1.49ZM15.722 38.756l14.78-14.79c-.897-1.064-1.028-1.47-.548-1.976.166-.176.481-.403.646-.35.55.174 1.064.465 1.703.765 1.751-1.758 3.601-3.616 5.45-5.476.162-.163.315-.335.497-.529-.114-.13-.199-.238-.294-.335-.918-.936-1.838-1.87-2.553-2.596-1.257.185-2.301.542-3.302.448-3.3-.313-5.152-3.704-3.797-6.741.09-.201.166-.559.062-.672-.932-1.013-1.904-1.989-2.833-2.94l-6.172 6.174c.463.585 1.42 1.19.522 2.072-.89.874-1.493-.065-2-.489L3.107 26.116c.86.839 1.791 1.728 2.699 2.645.26.263.457.215.79.13.87-.222 1.796-.553 2.651-.45 3.371.407 5.1 3.694 3.708 6.832-.076.17-.095.485.008.598.918.995 1.869 1.962 2.76 2.885Z"
        fill="#898989" />
    <path
        d="M26.019 16.846c.37.201.674.296.882.493.748.71 1.476 1.441 2.19 2.186.509.53.521 1.122.08 1.558-.452.446-1.04.44-1.562-.062-.743-.715-1.506-1.419-2.166-2.207-.238-.284-.339-.83-.249-1.195.072-.298.52-.505.825-.773ZM21.43 12.214c.355.207.65.314.86.512a71.1 71.1 0 0 1 2.143 2.133c.534.55.553 1.163.085 1.612-.448.429-1.034.406-1.564-.105-.741-.716-1.508-1.416-2.165-2.205-.235-.283-.32-.843-.216-1.205.082-.296.544-.487.858-.742Z"
        fill="#898989" />
</svg>