<svg width="36" height="29" fill="none" xmlns="http://www.w3.org/2000/svg">
    <path
        d="M18.132 28.993c-4.553 0-9.106.004-13.658-.003-1.815-.002-3.088-.867-3.64-2.466a3.203 3.203 0 0 1-.192-.949 85.34 85.34 0 0 1-.009-2.992c.006-.556.244-.767.798-.814.54-.044 1.104-.04 1.612-.201 1.302-.413 2.123-1.758 1.943-3.05-.208-1.498-1.372-2.583-2.963-2.568-1.491.014-1.422-.4-1.393-1.497.026-.94-.038-1.894.103-2.817.222-1.459 1.165-2.36 2.561-2.808 1.24-.397 2.493-.752 3.713-1.203 6.697-2.477 13.387-4.978 20.08-7.468 1.28-.476 2.522.115 2.969 1.412.776 2.253 1.536 4.514 2.327 6.764a.853.853 0 0 0 .488.462c1.7.514 2.732 1.855 2.738 3.618.004.835.003 1.668 0 2.503-.002.817-.195 1.02-1.038 1.009-1.184-.015-2.198.326-2.861 1.358-.593.924-.65 1.913-.141 2.89.552 1.062 1.488 1.606 2.664 1.58 1.425-.033 1.413.36 1.378 1.455-.031.958.029 1.929-.106 2.872-.235 1.64-1.67 2.881-3.33 2.89-4.68.03-9.361.01-14.042.01l-.001.013ZM2.142 14.465c2.409.29 4.116 1.835 4.277 3.852.086 1.08-.094 2.09-.735 2.992-.877 1.233-2.102 1.836-3.617 1.923 0 .673-.005 1.288.001 1.902.015 1.54.91 2.424 2.452 2.426 2.404.003 4.809.002 7.212 0 .176 0 .352-.018.539-.028.114-.55-.197-1.343.697-1.382 1.016-.046.673.854.83 1.41h5.211c4.262 0 8.525.002 12.787 0 1.067-.002 2.005-.526 2.195-1.44.196-.937.166-1.92.234-2.87-2.542-.3-4.247-1.844-4.41-3.866-.088-1.103.1-2.13.765-3.038.878-1.201 2.09-1.798 3.588-1.878 0-.67.006-1.286 0-1.9-.017-1.542-.91-2.429-2.45-2.429h-17.95c-.072 1.16-.201 1.428-.716 1.42-.992-.017-.664-.84-.772-1.353-.073-.03-.105-.056-.138-.056-2.674-.001-5.352-.026-8.029.007a1.996 1.996 0 0 0-1.953 1.789c-.092.818-.019 1.655-.019 2.52Zm6.43-5.862.023.07h22.317c-.024-.109-.034-.177-.055-.241l-2.092-6.155c-.293-.862-.56-.983-1.42-.663C22.03 3.59 16.713 5.561 11.398 7.536c-.944.35-1.884.71-2.825 1.067Z"
        fill="#AC5CD0" />
    <path
        d="M13.743 15.765c0 .397.012.794-.002 1.192-.018.463-.335.805-.733.771-.438-.037-.696-.282-.696-.742-.002-.812-.008-1.625.004-2.437.006-.454.257-.707.718-.7.463.006.686.289.707.725.016.396.002.794.002 1.19ZM13.743 21.918c0 .398.013.795-.003 1.192-.021.486-.306.766-.745.745-.464-.022-.681-.293-.684-.74-.006-.794-.002-1.587-.003-2.382 0-.457.242-.712.681-.757.402-.042.73.291.75.752.018.396.004.793.004 1.19Z"
        fill="#AC5CD0" />
</svg>