<svg width="40" height="36" fill="none" xmlns="http://www.w3.org/2000/svg">
    <rect x="1.311" y="1.248" width="37.316" height="33.523" rx="7.25" stroke="#AC5CD0" stroke-width="1.5" />
    <path
        d="M8.604 27.908H10.4c.085-2.779 1.253-5.08 3.586-6.842 1.865-1.408 4.03-2.046 6.433-1.959 4.79.175 9.1 3.83 9.17 8.795h1.744c-.026-2.23-.707-4.245-2.106-6.047-1.392-1.792-3.23-3.05-5.488-3.813 3.677-2.487 3.49-6.93.853-9.29-2.704-2.42-6.831-2.258-9.314.102-2.674 2.543-2.504 6.835.933 9.158-4.752 1.836-7.313 5.095-7.607 9.896ZM24.77 13.043c.012 2.415-2.13 4.407-4.754 4.422-2.637.015-4.798-1.963-4.81-4.402-.011-2.416 2.13-4.407 4.754-4.422 2.636-.015 4.797 1.963 4.81 4.402Z"
        fill="#AC5CD0" />
</svg>