<svg width="44" height="46" fill="none" xmlns="http://www.w3.org/2000/svg">
    <path
        d="m32.27 11.425-.026.25.1.01c.237.024.444.045.633.11.495.171.788.517.84 1.035.202 1.992.395 3.984.588 5.977a4071.528 4071.528 0 0 0 .283 2.94c.08.846.16 1.694.253 2.54.059.532-.113.943-.495 1.328-4.684 4.724-9.365 9.45-14.046 14.177l-1.563 1.579-.529.534c-.351.356-.702.712-1.055 1.067-.244.246-.39.31-.491.311-.1.001-.24-.056-.48-.297-4.476-4.518-8.95-9.037-13.425-13.557-.247-.25-.294-.379-.289-.468.006-.103.084-.256.367-.542l14.383-14.52.82-.826c.656-.659 1.313-1.319 1.96-1.987.366-.378.765-.54 1.273-.488 1.245.127 2.491.248 3.737.37l2.022.198c.28.028.56.058.86.09l.14.015c0 .108 0 .213.002.318a25.878 25.878 0 0 1-.019 1.442.388.388 0 0 1-.16.138c-2.059.776-2.934 3.106-1.88 5.043.707 1.299 2.24 2.025 3.672 1.732 1.543-.317 2.611-1.495 2.81-3.019.226-1.73-.898-3.328-2.345-3.762-.091-.027-.11-.05-.112-.053 0 0-.018-.02-.015-.115.014-.413.011-.829.008-1.259l-.001-.271.462.044c.577.054 1.135.107 1.693.165l.026-.248Zm0 0c-.559-.058-1.118-.11-1.696-.165l-.485-.046 3.976 1.59c-.062-.621-.426-1.045-1.007-1.245-.218-.075-.456-.1-.69-.123a14.496 14.496 0 0 1-.097-.01Zm3.575 1.586.81-.818a530.339 530.339 0 0 0 3.748-3.806c.26-.268.484-.598.66-.94.946-1.858-.411-4.266-2.444-4.347a95.745 95.745 0 0 0-5.35-.043c-1.636.026-2.923 1.032-3.065 2.412-.098.944-.075 1.892-.051 2.871.009.37.018.744.02 1.125l.532.056c.56.06 1.129.12 1.703.159.941.061 1.722.344 2.306.861.584.518.949 1.251 1.095 2.169l.036.3Zm0 0a3.999 3.999 0 0 0-.036-.3l.036.3Zm3.102-11.947-.029-.007H32.493l-.049.022-.058.027-.011.006a1.4 1.4 0 0 1-.03.015c-.021.01-.029.012-.029.012-2.32.387-4.086 2.37-4.167 4.736-.025.712-.022 1.43-.02 2.141.001.343.002.685 0 1.025 0 .072-.003.141-.007.214-.061.001-.11.001-.165-.004l-1.66-.16c-1.521-.143-3.039-.287-4.553-.463-1.197-.138-2.202.2-3.044 1.05l-4.925 4.972C9.676 18.788 5.577 22.925 1.48 27.064c-.585.59-.9 1.236-.895 1.909.004.672.327 1.32.916 1.915l3.88 3.916c3.071 3.102 6.143 6.202 9.21 9.307.474.479.998.963 1.731 1.163l.033.009H17.185l.034-.01c.695-.203 1.2-.659 1.655-1.12l-.178-.176.178.176c2.141-2.17 4.287-4.336 6.434-6.501a8559.436 8559.436 0 0 0 5.3-5.352c1.746-1.765 3.492-3.53 5.242-5.292.776-.781 1.185-1.722 1.077-2.849-.262-2.73-.536-5.458-.819-8.186a.879.879 0 0 1 .024-.364.74.74 0 0 1 .197-.298l.47-.468c1.749-1.743 3.5-3.489 5.208-5.277 2.04-2.14 1.704-5.655-.625-7.452-.744-.575-1.587-.848-2.435-1.05Zm-9.9 16.958c-.697-.027-1.318-.587-1.415-1.231-.105-.692.158-1.268.716-1.584.393.993 1.083 1.675 2.044 2.06-.08.18-.227.348-.425.482a1.567 1.567 0 0 1-.92.273Z"
        fill="#AC5CD0" stroke="#AC5CD0" stroke-width=".5" />
    <path
        d="M17.968 17.343c2.098-.005 3.832 1.75 3.8 3.846-.03 2.1-1.698 3.77-3.778 3.782-2.085.013-3.788-1.693-3.798-3.803-.01-2.097 1.69-3.819 3.776-3.825Zm2.314 3.823c.005-1.28-1.038-2.345-2.298-2.348-1.265-.003-2.312 1.05-2.318 2.332a2.35 2.35 0 0 0 2.303 2.35c1.247.017 2.308-1.054 2.313-2.334ZM18.406 29.453c2.086.007 3.775 1.717 3.776 3.825 0 2.095-1.71 3.814-3.79 3.81-2.099-.004-3.794-1.742-3.778-3.869.016-2.07 1.73-3.772 3.792-3.766Zm-.01 1.487c-1.271-.001-2.299 1.038-2.307 2.332a2.34 2.34 0 0 0 2.31 2.335c1.256.008 2.305-1.056 2.305-2.34a2.322 2.322 0 0 0-2.308-2.327ZM25.416 23.813c-.015.43-.275.642-.608.813-1.465.754-2.926 1.518-4.39 2.276a13978.02 13978.02 0 0 1-8.064 4.174c-.1.052-.2.105-.303.148-.41.174-.805.06-.992-.282-.204-.374-.098-.789.31-1.02.537-.307 1.095-.58 1.644-.865 3.7-1.918 7.407-3.825 11.098-5.76.76-.397 1.243-.006 1.305.516Z"
        fill="#AC5CD0" />
</svg>