<svg fill="none" xmlns="http://www.w3.org/2000/svg" viewBox="0.7 0.02 87.58 96.98">
    <path
        d="M42.352 3.29c-.63.117-29.857 4.561-37.774 29.296C-3.34 57.32 17.63 79.615 28.045 82.628c10.414 3.013 30.102 2.26 30.102 2.26S80.65 82.327 84.02 54.157c3.371-28.17-3.824-57.897-41.67-50.867Z"
        fill="#fff" style="--darkreader-inline-fill:#181a1b" />
    <path
        d="M85.03 47.648a64.722 64.722 0 0 0-.49-6.921c-.369-2.981-.827-5.943-1.538-8.857-1.299-5.318-3.34-10.608-6.427-15.058a42.719 42.719 0 0 0-1.261-1.725c-.145-.432-.365-.832-.701-1.158a3.685 3.685 0 0 0-.663-.516c-2.45-2.838-5.308-5.28-8.59-6.979-2.47-1.278-5.059-2.194-7.78-2.618-2.993-.467-5.971-.594-8.992-.494-2.972.098-5.96.37-8.877.997-2.7.579-5.316 1.587-7.757 2.937-2.288 1.267-4.4 2.91-6.343 4.7a37.311 37.311 0 0 0-3.645 3.89c-.25.144-.5.291-.747.44-2.726 1.653-5.325 3.59-7.55 5.94-2.255 2.385-4.213 5.195-5.514 8.28a31.817 31.817 0 0 0-2.486 11.307c-.263 7.343 1.927 14.706 5.749 20.805 3.795 6.057 8.862 11.016 14.587 14.998 3.124 2.174 6.429 3.98 9.879 5.503 3.225 1.424 6.587 2.506 10.044 3.085.95.16 1.904.296 2.86.404 1.332.228 2.736.219 4.074.184a31.352 31.352 0 0 0 3.342-.268c1.115 1.553 2.278 3.062 3.556 4.47a41.18 41.18 0 0 0 2.997 2.975c.089.08.177.16.268.237l.818.667a2.9 2.9 0 0 0 1.504.507c1.023.145 1.66-.074 2.495-.442l-.623.277c.32-.128.618-.257.901-.401.022-.01.042-.02.063-.028l-.06.027a5.758 5.758 0 0 0 1.624-1.19c.463-.485.898-1.086 1.174-1.72.622-1.426.936-2.853.942-4.436.005-1.379-.26-2.752-.5-4.102-.141-.784-.289-1.566-.445-2.347l.072-.05c2.461-1.349 4.508-3.366 6.085-5.762 2.934-3.766 5.011-8.157 6.268-12.856 1.27-4.747 1.765-9.777 1.687-14.702Zm-36.424-20.8c.143.852.27 1.707.384 2.563.459 3.764.74 7.573.664 11.372a3.811 3.811 0 0 0-1.352-.754c-.393-.121-.868-.156-1.28-.18-.023-.002-.046-.002-.07-.002a132.23 132.23 0 0 0 1.48-11.014c.06-.66.12-1.321.174-1.984ZM35.51 55.028a52.61 52.61 0 0 1 0-12.203 52.436 52.436 0 0 1 3.043-11.768 49.498 49.498 0 0 1 1.766-3.812c.251-.486.509-.974.775-1.458-.062.23-.125.462-.185.694a101.531 101.531 0 0 0-2.443 12.45 116.8 116.8 0 0 0-.906 9.945 116.823 116.823 0 0 1-2.027 6.322l-.023-.17Zm9.64 1.697c.17.24.345.478.519.715l-.077.164c-.111.195-.225.388-.34.58a58.39 58.39 0 0 1-.103-1.459Zm16.73-37.288c-.117.793-.23 1.59-.298 2.382-.102.747-.203 1.496-.303 2.243 0-1.623-.01-3.246-.026-4.869.21.08.42.16.628.244Zm-44.984 39.29.044.192c-.228-.36-.45-.726-.665-1.095.201.304.409.606.621.902Zm.072.309v.005c-.04-.058-.08-.115-.123-.173l.122.168Z"
        fill="#FFE21D" style="--darkreader-inline-fill:#8c7a00" />
    <path
        d="M49.102 20.063c-1.7-.058-3.365.421-4.818 1.308a1.463 1.463 0 0 0-.74-.354c-.672-.095-1.396.344-1.56 1.075-1.361 6.076-1.629 12.44-1.22 18.655.101 1.541.234 3.082.373 4.62.142 1.574.506 3.276 1.936 4.105a3.01 3.01 0 0 0 3.065-.056c.881-.542 1.481-1.457 1.759-2.481.22-.818.226-1.695.242-2.54.014-.726.03-1.454.05-2.18.093-3.237.272-6.474.665-9.687.064-.484.132-.968.205-1.451l.078-.285c.054-.2.075-.41.065-.617.418-2.523.991-5.019 1.842-7.42.479-1.348-.739-2.651-1.942-2.692Zm-4.089 25.23c.027.184.083.465 0 0Zm-1.08.613.002-.01.007-.004a.229.229 0 0 1-.004.01l-.005.004Zm-.025.01-.005.013c-.056.04-.078.045.005-.013Zm.015-.01.002-.003v.01a.136.136 0 0 1-.013.01.154.154 0 0 1 .01-.017Zm-.029.048c-.029.08-.062.173-.052.21-.016-.058.018-.148.052-.21ZM43.843 62.707v.005l.002-.002c-.002 0-.002-.003-.002-.003ZM43.835 62.687l-.019-.009v.002a.292.292 0 0 0 .02.007Z"
        fill="#fff" style="--darkreader-inline-fill:#e8e6e3" />
    <path
        d="M43.684 58.397c-1.58.317-2.878 1.624-3.395 3.204-.64.626-1.132 1.416-1.28 2.33-.15.921-.034 1.895.472 2.688.558.873 1.328 1.325 2.224 1.716 1.47.643 3.201.876 4.634-.022 1.316-.824 1.97-2.289 2.167-3.838.181-1.42.059-2.839-.561-4.134-.8-1.672-2.607-2.275-4.261-1.944Zm1.247 5.053c-.019.095-.037.125.022-.165l-.003.042v.003l-.019.12Zm-1.115-.777.016.007.002.006v.001h.001l-.003.022-.013-.008a.204.204 0 0 0-.002-.02.345.345 0 0 0-.029-.011.027.027 0 0 1-.004-.006l.005.002a.4.4 0 0 1 .027.013v-.006Zm.433-.5h.002c.008-.002.018-.002.027-.003l-.002.004-.027-.001Zm.054-.008c.031-.006.066-.015.104-.025a.278.278 0 0 1-.113.032l.009-.007Zm-.445.59.01.037-.016-.027.002-.013.004.004Zm-.02.067c.002-.001.002-.004.002-.005v-.002.001a.167.167 0 0 0 .005-.02.158.158 0 0 0 .029.025c.024.133-.037.124-.035.005v-.004Zm.02-.099.007-.031c.117.047.07.07-.006.031Zm.088-.216a.318.318 0 0 1-.082.183l.002-.014c.029-.046.057-.118.08-.169Zm-.082.185-.007.006a.1.1 0 0 1-.014.011c0 .003.002.006.003.008l-.004-.002v-.006l-.004.003c0-.002.003-.003.004-.005a.084.084 0 0 0 .011-.01l-.01-.006.01.005.005-.007.006.003Zm-.219-.065-.01-.003.01.003.03-.004a.385.385 0 0 1 .026.008l.016.014.007.001-.003.001a.698.698 0 0 1-.118.013h-.029c.075-.036.031-.024-.028-.003l-.008-.002a.716.716 0 0 1 .107-.028Zm1.31-.227.01.067a.687.687 0 0 1 .003.041c-.091-.269-.041-.24-.013-.108Zm-.825-.118c.035-.018.086-.054.133-.087-.028.037-.087.091-.146.101l.013-.014Z"
        fill="#fff" style="--darkreader-inline-fill:#e8e6e3" />
    <path
        d="M43.718 62.645a2.09 2.09 0 0 0 .004.002l-.005-.002ZM43.853 62.696a.023.023 0 0 0 .008.003c-.002-.002-.005-.002-.008-.003ZM43.875 62.9c.009.005-.009-.033-.034-.084v.002l-.001.009c.008.035.02.064.035.073Z"
        fill="#fff" style="--darkreader-inline-fill:#e8e6e3" />
    <path
        d="M88.232 37.972a54.146 54.146 0 0 0-1.412-10.56c-.792-3.33-1.957-6.59-3.504-9.611-1.508-2.945-3.432-5.696-5.704-8.034a30.305 30.305 0 0 0-8.057-5.938 34.667 34.667 0 0 0-10.54-3.31c-4.755-.702-9.509-.644-14.262.047-4.603.668-9.13 1.966-13.448 3.773-4.37 1.827-8.546 4.154-12.354 7.07-3.93 3.011-7.41 6.543-10.302 10.669-2.891 4.124-5.082 8.81-6.462 13.73C.85 40.574.385 45.647.997 50.58c.6 4.835 2.14 9.487 4.393 13.74a42.34 42.34 0 0 0 8.475 11.103c3.605 3.367 7.669 6.004 12.102 7.968 4.738 2.099 9.767 3.261 14.881 3.697 5.11.436 10.218.044 15.245-1.002h.005c.563.73 1.197 1.381 1.886 1.997.98.876 2.017 1.731 3.068 2.509a251.846 251.846 0 0 0 5.365 3.862c.832.583 1.673 1.161 2.575 1.617 1.018.514 2.161.985 3.314.91.946-.06 1.844-.415 2.377-1.289.521-.854.353-1.84.205-2.775-.212-1.33-.508-2.638-.836-3.94-.372-1.478-.774-2.947-1.146-4.424-.133-.534-.258-1.066-.391-1.593.164-.096.318-.22.454-.376 3.47-4 6.438-8.486 8.745-13.336A66.56 66.56 0 0 0 85.52 59.19a68.358 68.358 0 0 0 2.138-10.275c.469-3.63.704-7.28.574-10.943Zm-68.62-22.784.04-.032c-.058.051-.258.206-.04.032Zm.05-.043-.01.01.01-.01ZM4.577 49.28v.005-.005Zm67.516 43.94-.02-.001a9.364 9.364 0 0 0-.157-.035c-.023-.01.015-.006.177.037Zm-.56 1.092a.873.873 0 0 1-.002-.107c0 .016.001.031.003.047l-.002.06Zm1.11-17.99a.404.404 0 0 0-.017.023c.075-.103.182-.245.017-.022Zm-.07.096Zm11.362-32.942a64.926 64.926 0 0 1-.387 4.48l-.005.04-.018.142a68.245 68.245 0 0 1-.87 5.075 67.011 67.011 0 0 1-3.073 10.395c-.025.068-.052.134-.078.201-.155.358-.293.724-.445 1.083a58.165 58.165 0 0 1-5.666 10.368c-.188.273-.379.544-.572.813-.071.1-.145.197-.215.299l-.09.12a52.678 52.678 0 0 1-2.438 3.036c-.1.117-.19.244-.265.38a.903.903 0 0 0-.205.45l-.007.045c-.071.235-.109.48-.109.724-.011.105-.019.208-.022.311-.007.305.017.616.031.92.031.714.169 1.42.293 2.12.225 1.267.484 2.525.735 3.785.247 1.235.485 2.47.688 3.714.057.35.113.7.167 1.05-.016-.005-.031-.01-.047-.017l-.088-.035c-.173-.09-.35-.17-.522-.264-.84-.466-1.623-1.035-2.398-1.609-1.645-1.219-3.34-2.364-4.996-3.57-1.01-.735-2.047-1.428-3.077-2.131-.114-.079-.23-.155-.345-.23a63.014 63.014 0 0 0 3.259-.976 1.22 1.22 0 0 0 .784-1.459c-.163-.626-.792-.99-1.381-.828a61.484 61.484 0 0 1-3.591.877 45.288 45.288 0 0 1-2.734.5 90.75 90.75 0 0 1-.46.068l-.042.007-.263.036c-2.438.33-4.89.489-7.348.507-2.481.02-4.95-.063-7.418-.362-.283-.034-.565-.073-.848-.11-.2-.026.117.02.125.019-.063.01-.19-.028-.26-.039a48.919 48.919 0 0 1-2.32-.406 44.932 44.932 0 0 1-3.56-.858 53.932 53.932 0 0 1-3.5-1.109 43.314 43.314 0 0 1-2.701-1.08 40.509 40.509 0 0 1-6.436-3.63 40.372 40.372 0 0 1-1.983-1.469l-.277-.22a41.752 41.752 0 0 1-2.535-2.264 45.03 45.03 0 0 1-4.777-5.469 30.703 30.703 0 0 1-.416-.586 41.468 41.468 0 0 1-2.613-4.274c-.53-1-1.02-2.023-1.465-3.069-.089-.207-.172-.417-.26-.625l-.041-.107a37.906 37.906 0 0 1-.72-2.026 38.917 38.917 0 0 1-1.496-6.525l-.039-.288-.016-.143a35.025 35.025 0 0 1 .066-8.488 38.868 38.868 0 0 1 .917-4.528 34.865 34.865 0 0 1 1.107-3.464l.164-.424.002-.007.05-.121a40.638 40.638 0 0 1 1.143-2.549 43.555 43.555 0 0 1 3.719-6.225c.09-.125.254-.403.085-.119.076-.128.181-.245.27-.362a44.146 44.146 0 0 1 1.732-2.159 43.708 43.708 0 0 1 2.434-2.618 47.753 47.753 0 0 1 3.068-2.785c.1-.084.22-.164.314-.258l.148-.12a52.894 52.894 0 0 1 7.108-4.77 54.664 54.664 0 0 1 4.147-2.097l.154-.07a52.945 52.945 0 0 1 13.141-3.845l.409-.06.032-.005a48.212 48.212 0 0 1 7.579-.447 44.696 44.696 0 0 1 5.04.391l.346.053c.265.042.529.085.792.133 1.779.316 3.538.76 5.253 1.35a31.535 31.535 0 0 1 2.246.865c.069.023.138.058.206.092l.032.014-.029-.012.073.035a29.063 29.063 0 0 1 1.685.846 28.74 28.74 0 0 1 3.984 2.608l.138.109c.109.137.303.248.435.36a28.513 28.513 0 0 1 2.522 2.437 30.937 30.937 0 0 1 1.84 2.21l.121.161c.207.293.415.586.616.885a33.813 33.813 0 0 1 2.321 4.061 36.64 36.64 0 0 1 .968 2.175l.02.054a43.987 43.987 0 0 1 1.912 6.394 48.187 48.187 0 0 1 .65 3.631l.042.308.014.106.037.316c.39 3.362.479 6.77.303 10.152Z"
        fill="#000" style="--darkreader-inline-fill:#000000" />
    <path d="M66.254 6.626a3.76 3.76 0 0 0-.081-.036l-.035-.015.118.052-.002-.001Z" fill="#000"
        style="--darkreader-inline-fill:#e8e6e3" />
    <path
        d="M52.625 16.835c-.82-.093-1.646-.005-2.467.056-.946.072-1.883.189-2.823.324-1.668.242-3.315.586-4.97.901-.82.156-1.392 1.141-1.329 2.002a.693.693 0 0 0-.153.342c-.365 2.446-.745 4.89-1.108 7.337-.374 2.527-.636 5.06-.846 7.608a169.473 169.473 0 0 0-.58 14.772c.003.67.003 1.352.338 1.95.472.844 1.282 1.09 2.143 1.173 1.177.114 2.359.196 3.537.294 1.166.096 2.397.165 3.43-.53 1.05-.708 1.544-1.92 1.752-3.17.812-4.877 1.469-9.78 2.117-14.682.372-2.822.683-5.645.973-8.477.126-1.226.37-2.609.582-3.961l.324-2.08c.106-.678.148-1.42.371-2.067.144-.416.004-.901-.24-1.233-.274-.378-.614-.51-1.05-.56Zm-6.607 33.409-.002.003.002-.003Zm4.32-25.049c-.161 1.135-.427 2.26-.648 3.383-.232 1.177-.47 2.35-.667 3.534-.774 4.647-1.537 9.29-2.21 13.956-.162 1.114-.275 2.252-.5 3.354a7.56 7.56 0 0 1-.14.548l-.002.006-.098.175-.01.01-.04.022c-.025.009-.05.017-.077.024l-.108.028c-.178.034-.145.032.098-.006-.084.092-.569.025-.688.02-.246-.007-.492-.027-.738-.043l-1.698-.117-1.322-.09c-.087-4.513-.03-9.043.126-13.552.09-2.631.25-5.259.365-7.888.099-2.253.253-4.488.489-6.725.274.069.566.065.859-.033 1.572-.525 3.195-.896 4.813-1.227.786-.16 1.574-.314 2.361-.464.19-.036.383-.07.575-.101l-.229 1.607c-.17 1.192-.341 2.385-.51 3.579Z"
        fill="#000" style="--darkreader-inline-fill:#000000" />
    <path
        d="M49.406 60.85a6.158 6.158 0 0 0-.635-1.14c-.227-.333-.43-.61-.746-.856-.164-.129-.33-.252-.497-.375-.196-.144-.456-.174-.697-.123a6.374 6.374 0 0 0-1.542-.893c-2.767-1.111-6.036.226-7.824 2.58-1.164 1.532-1.9 3.487-1.391 5.464.42 1.636 1.644 3.003 3.082 3.71 1.512.745 3.21 1.111 4.871 1.19 1.631.078 3.305-.321 4.524-1.528 1.236-1.222 1.794-3.187 1.642-4.941-.094-1.09-.375-2.087-.787-3.088Zm-7.055-.753c-.045.023-.11.055-.11.052a.37.37 0 0 1 .11-.052Zm-3.095 3.314-.008.027.008-.027Zm-.065 1.622c.017.036.034.07.043.072-.015-.005-.03-.034-.043-.072Zm1.832 1.74-.01-.004.01.004Zm6.243-1.741a.664.664 0 0 1-.007.036l.003.042-.004-.037a5.117 5.117 0 0 1-.147.605c-.018.06-.136.321-.104.277l-.008.016c-.04.08-.08.16-.125.239l-.117.204c.103-.18-.01.011-.048.056a3.698 3.698 0 0 1-.14.16c-.053.058-.113.133-.176.191a.577.577 0 0 0-.063.034c-.08.05-.158.105-.24.152-.06.035-.122.064-.182.099-.115.038-.227.085-.343.119-.145.042-.29.072-.437.104a.526.526 0 0 0-.069.02c-.043 0-.088 0-.11.002-.614.052-1.225.006-1.836-.06-.01 0-.022-.002-.034-.004l-.183-.03c-.144-.023-.289-.05-.432-.078a9.952 9.952 0 0 1-.976-.241 5.823 5.823 0 0 1-.434-.154c-.068-.036-.138-.068-.205-.103a5.794 5.794 0 0 1-.644-.396 5.534 5.534 0 0 1-.115-.089c-.057-.052-.143-.13-.17-.157a5.002 5.002 0 0 1-.3-.324c-.02-.022-.063-.088-.098-.132-.074-.121-.152-.24-.219-.366-.034-.065-.065-.132-.098-.198a1.218 1.218 0 0 0-.034-.065c-.021-.086-.038-.183-.046-.219-.015-.06-.025-.12-.039-.18-.015-.16-.055-.475.007-.523.006-.004-.06.319-.013.113.02-.088.034-.177.054-.264.036-.155.084-.305.13-.456l.029-.09c.023-.046.05-.092.065-.129.078-.174.154-.348.242-.518.127-.245.275-.473.422-.705a.412.412 0 0 0 .021-.037c.025-.03.05-.055.058-.065a7.15 7.15 0 0 1 .284-.333c.184-.2.383-.379.58-.565.037-.03.075-.059.114-.088.13-.096.26-.191.392-.284.219-.151.446-.289.68-.411l.141-.07.068-.036a6.576 6.576 0 0 1 1.063-.3l-.02.001.025-.002.01-.002a.558.558 0 0 1 .105-.008c.023-.003.046-.006.068-.007.139-.01.278-.015.417-.012.146.002.29.015.436.027l.009.002c.081.022.166.033.247.053.147.036.292.08.436.13.047.016.094.035.141.052l.059.02.05.026c.297.149.532.286.744.44.027.08.068.167.095.235l.043.107a.683.683 0 0 0 .009.024l.09.243c.098.267.187.533.297.795a9.881 9.881 0 0 0 .12.279l.056.143a8.88 8.88 0 0 1 .361 1.256c.018.09.054.335.052.287.01.11.02.22.023.33.01.238-.04.499-.04.74.005-.07.03-.02.01.079Z"
        fill="#000" style="--darkreader-inline-fill:#e8e6e3" />
    <path
        d="M47.259 65.073v-.005a1.37 1.37 0 0 1 0 .005ZM43.542 59.783a3.002 3.002 0 0 1-.115.01c-.002.002-.004.002-.006.002.13-.006.146-.01.121-.012Z"
        fill="#000" style="--darkreader-inline-fill:#e8e6e3" />
    <path
        d="m69.896 71.494 2.867-2.697c.67-.63-.322-1.678-.986-1.041l-2.84 2.726c-.646.622.31 1.621.959 1.012ZM70.058 65.949c.546-.62 1.07-1.227 1.543-1.908.398-.571-.462-1.236-.916-.746-.524.566-.973 1.177-1.432 1.803-.189.257-.237.601 0 .851.212.224.595.238.805 0ZM75.023 63.745c.473-.927.909-1.84 1.25-2.83.229-.665-.766-1.098-1.078-.48-.47.928-.815 1.885-1.152 2.874-.206.606.695.997.98.437ZM13.975 35.877c.447-2.242 1.383-4.262 2.48-6.225.255-.456-.377-1.013-.716-.583-1.46 1.856-2.307 4.17-2.72 6.53-.116.656.823.943.956.279ZM17.819 32.929l1.14-2.11c.245-.45-.415-.857-.66-.406l-1.14 2.109c-.244.451.416.858.66.407ZM19.384 26.085l.285-.602c.127-.268.076-.634-.194-.785-.246-.137-.607-.08-.743.206l-.285.602c-.127.268-.076.634.194.785.246.137.607.08.743-.206ZM68.441 13.276c2.137 2.065 3.842 4.502 5.477 7.012.376.579 1.186.083.891-.55-.33-.705-.673-1.395-1.1-2.04a24.356 24.356 0 0 0-1.39-1.878 28.337 28.337 0 0 0-3.156-3.305c-.496-.441-1.211.287-.722.76Z"
        fill="#E8C915" style="--darkreader-inline-fill:#ecd02e" />
</svg>