<svg fill="none" xmlns="http://www.w3.org/2000/svg" viewBox="0 0 104 52">
    <path
        d="M14.859 3H89.14C97.348 3 104 8.472 104 15.232v13.246c0 6.75-6.652 12.232-14.859 12.232h-4.457c-1.052 3.212-1.27 7.513 2.549 11.29 0 0-15.385-2.794-18.86-11.29H14.86C6.652 40.71 0 35.238 0 28.478V15.232C0 8.482 6.652 3 14.859 3Z"
        fill="#8C50CC" style="--darkreader-inline-fill:#5c2a90" />
    <path
        d="M14.869 0h74.274C97.349 0 104 5.472 104 12.232v13.246c0 6.75-6.651 12.232-14.857 12.232h-4.457c-1.052 3.212-1.269 7.513 2.548 11.29 0 0-15.383-2.794-18.857-11.29h-53.52C6.651 37.71 0 32.238 0 25.478V12.232C.011 5.472 6.663 0 14.869 0Z"
        fill="#fff" style="--darkreader-inline-fill:#181a1b" />
    <path
        d="M10.16 14.356h4.44v.756h-4.44v-.756Zm.096 3.876h5.052V19h-5.94v-8.4h5.76v.768h-4.872v6.864Zm1.224-8.316 1.644-1.488h1.14L12.32 9.916h-.84Zm12.092 2.724c.512 0 .96.1 1.344.3.392.192.696.488.912.888.224.4.336.904.336 1.512V19h-.852v-3.576c0-.664-.168-1.164-.504-1.5-.328-.344-.792-.516-1.392-.516-.448 0-.84.092-1.176.276a1.853 1.853 0 0 0-.768.78c-.176.336-.264.744-.264 1.224V19h-.852v-6.3h.816v1.728l-.132-.324c.2-.456.52-.812.96-1.068.44-.264.964-.396 1.572-.396Zm7.461 6.42a3.319 3.319 0 0 1-1.644-.408c-.48-.28-.86-.66-1.14-1.14-.28-.488-.42-1.044-.42-1.668 0-.632.14-1.188.42-1.668.28-.48.66-.856 1.14-1.128.48-.272 1.028-.408 1.644-.408.624 0 1.176.136 1.656.408.488.272.868.648 1.14 1.128.28.48.42 1.036.42 1.668 0 .624-.14 1.18-.42 1.668a3 3 0 0 1-1.14 1.14 3.343 3.343 0 0 1-1.656.408Zm0-.756c.456 0 .86-.1 1.212-.3.352-.208.628-.496.828-.864.208-.376.312-.808.312-1.296 0-.496-.104-.928-.312-1.296a2.123 2.123 0 0 0-.828-.852 2.314 2.314 0 0 0-1.2-.312c-.448 0-.848.104-1.2.312-.352.2-.632.484-.84.852-.208.368-.312.8-.312 1.296 0 .488.104.92.312 1.296.208.368.488.656.84.864.352.2.748.3 1.188.3ZM35.99 19v-6.3h.816v1.716l-.084-.3c.176-.48.472-.844.888-1.092.416-.256.932-.384 1.548-.384v.828h-.096a.395.395 0 0 0-.096-.012c-.664 0-1.184.204-1.56.612-.376.4-.564.972-.564 1.716V19h-.852Zm12.594-6.36c.512 0 .956.1 1.332.3.384.192.68.488.888.888.216.4.324.904.324 1.512V19h-.852v-3.576c0-.664-.16-1.164-.48-1.5-.312-.344-.756-.516-1.332-.516-.432 0-.808.092-1.128.276a1.82 1.82 0 0 0-.732.78c-.168.336-.252.744-.252 1.224V19H45.5v-3.576c0-.664-.16-1.164-.48-1.5-.32-.344-.768-.516-1.344-.516a2.2 2.2 0 0 0-1.116.276 1.8 1.8 0 0 0-.744.78c-.168.336-.252.744-.252 1.224V19h-.852v-6.3h.816v1.704l-.132-.3c.192-.456.5-.812.924-1.068.432-.264.94-.396 1.524-.396.616 0 1.14.156 1.572.468.432.304.712.764.84 1.38l-.336-.132c.184-.512.508-.924.972-1.236.472-.32 1.036-.48 1.692-.48ZM57.386 19v-1.392l-.036-.228v-2.328c0-.536-.152-.948-.456-1.236-.296-.288-.74-.432-1.332-.432a3.33 3.33 0 0 0-1.164.204c-.368.136-.68.316-.936.54l-.384-.636c.32-.272.704-.48 1.152-.624.448-.152.92-.228 1.416-.228.816 0 1.444.204 1.884.612.448.4.672 1.012.672 1.836V19h-.816Zm-2.172.06c-.472 0-.884-.076-1.236-.228a1.89 1.89 0 0 1-.792-.648c-.184-.28-.276-.6-.276-.96 0-.328.076-.624.228-.888.16-.272.416-.488.768-.648.36-.168.84-.252 1.44-.252h2.172v.636H55.37c-.608 0-1.032.108-1.272.324a1.054 1.054 0 0 0-.348.804c0 .36.14.648.42.864.28.216.672.324 1.176.324.48 0 .892-.108 1.236-.324.352-.224.608-.544.768-.96l.192.588c-.16.416-.44.748-.84.996-.392.248-.888.372-1.488.372Zm5.302-.06v-8.904h.852V19h-.852Zm10.311 0v-1.392l-.036-.228v-2.328c0-.536-.152-.948-.456-1.236-.296-.288-.74-.432-1.332-.432a3.33 3.33 0 0 0-1.164.204c-.368.136-.68.316-.936.54l-.384-.636c.32-.272.704-.48 1.152-.624.448-.152.92-.228 1.416-.228.816 0 1.444.204 1.884.612.448.4.672 1.012.672 1.836V19h-.816Zm-2.172.06c-.472 0-.884-.076-1.236-.228a1.89 1.89 0 0 1-.792-.648c-.184-.28-.276-.6-.276-.96 0-.328.076-.624.228-.888.16-.272.416-.488.768-.648.36-.168.84-.252 1.44-.252h2.172v.636h-2.148c-.608 0-1.032.108-1.272.324a1.054 1.054 0 0 0-.348.804c0 .36.14.648.42.864.28.216.672.324 1.176.324.48 0 .892-.108 1.236-.324.352-.224.608-.544.768-.96l.192.588c-.16.416-.44.748-.84.996-.392.248-.888.372-1.488.372Zm5.302-.06v-6.3h.853V19h-.853Zm.433-7.692a.603.603 0 0 1-.445-.18.59.59 0 0 1-.18-.432.55.55 0 0 1 .18-.42c.12-.12.269-.18.445-.18.175 0 .323.056.444.168a.55.55 0 0 1 .18.42c0 .176-.06.324-.18.444a.579.579 0 0 1-.445.18Zm6.006 1.332c.512 0 .96.1 1.344.3.392.192.696.488.912.888.224.4.336.904.336 1.512V19h-.852v-3.576c0-.664-.168-1.164-.504-1.5-.328-.344-.792-.516-1.392-.516-.448 0-.84.092-1.176.276a1.853 1.853 0 0 0-.768.78c-.176.336-.264.744-.264 1.224V19h-.852v-6.3h.816v1.728l-.132-.324c.2-.456.52-.812.96-1.068.44-.264.964-.396 1.572-.396Zm7.402 6.42c-.6 0-1.14-.136-1.62-.408a2.964 2.964 0 0 1-1.116-1.128c-.272-.488-.408-1.048-.408-1.68 0-.64.136-1.2.408-1.68.272-.48.644-.852 1.116-1.116a3.228 3.228 0 0 1 1.62-.408c.552 0 1.044.124 1.476.372.44.248.788.612 1.044 1.092.264.472.396 1.052.396 1.74 0 .68-.128 1.26-.384 1.74s-.604.848-1.044 1.104c-.432.248-.928.372-1.488.372Zm.06-.756c.448 0 .848-.1 1.2-.3.36-.208.64-.496.84-.864.208-.376.312-.808.312-1.296 0-.496-.104-.928-.312-1.296-.2-.368-.48-.652-.84-.852a2.314 2.314 0 0 0-1.2-.312c-.44 0-.836.104-1.188.312-.352.2-.632.484-.84.852-.208.368-.312.8-.312 1.296 0 .488.104.92.312 1.296.208.368.488.656.84.864.352.2.748.3 1.188.3Zm2.376.696v-1.896l.084-1.272-.12-1.272v-4.464h.852V19h-.816Zm7.136 0v-1.392l-.036-.228v-2.328c0-.536-.152-.948-.456-1.236-.296-.288-.74-.432-1.332-.432a3.33 3.33 0 0 0-1.164.204c-.368.136-.68.316-.936.54l-.384-.636c.32-.272.704-.48 1.152-.624.448-.152.92-.228 1.416-.228.816 0 1.444.204 1.884.612.448.4.672 1.012.672 1.836V19h-.816Zm-2.172.06c-.472 0-.884-.076-1.236-.228a1.89 1.89 0 0 1-.792-.648c-.184-.28-.276-.6-.276-.96 0-.328.076-.624.228-.888.16-.272.416-.488.768-.648.36-.168.84-.252 1.44-.252h2.172v.636h-2.148c-.608 0-1.032.108-1.272.324a1.054 1.054 0 0 0-.348.804c0 .36.14.648.42.864.28.216.672.324 1.176.324.48 0 .892-.108 1.236-.324.352-.224.608-.544.768-.96l.192.588c-.16.416-.44.748-.84.996-.392.248-.888.372-1.488.372Zm-84.018 11c-.592 0-1.048-.16-1.368-.48-.32-.32-.48-.772-.48-1.356v-5.916h.852v5.868c0 .368.092.652.276.852.192.2.464.3.816.3.376 0 .688-.108.936-.324l.3.612a1.57 1.57 0 0 1-.612.336 2.415 2.415 0 0 1-.72.108Zm-2.976-5.652V23.7h3.9v.708h-3.9Zm8.312 5.652c-.656 0-1.232-.136-1.728-.408a3.064 3.064 0 0 1-1.164-1.14c-.28-.488-.42-1.044-.42-1.668 0-.624.132-1.176.396-1.656a2.99 2.99 0 0 1 1.104-1.128c.472-.28 1-.42 1.584-.42.592 0 1.116.136 1.572.408a2.8 2.8 0 0 1 1.092 1.128c.264.48.396 1.036.396 1.668 0 .04-.004.084-.012.132v.132h-5.484v-.636h5.028l-.336.252c0-.456-.1-.86-.3-1.212a2.11 2.11 0 0 0-.792-.84c-.336-.2-.724-.3-1.164-.3-.432 0-.82.1-1.164.3-.344.2-.612.48-.804.84-.192.36-.288.772-.288 1.236v.132c0 .48.104.904.312 1.272.216.36.512.644.888.852.384.2.82.3 1.308.3.384 0 .74-.068 1.068-.204.336-.136.624-.344.864-.624l.48.552c-.28.336-.632.592-1.056.768a3.507 3.507 0 0 1-1.38.264Zm4.567-.06v-6.3h.816v1.716l-.085-.3c.177-.48.473-.844.889-1.092.416-.256.931-.384 1.547-.384v.828h-.096a.395.395 0 0 0-.096-.012c-.663 0-1.183.204-1.56.612-.376.4-.564.972-.564 1.716V30h-.852Zm11.209.06a2.953 2.953 0 0 1-1.476-.372 2.831 2.831 0 0 1-1.056-1.092c-.256-.48-.384-1.064-.384-1.752s.128-1.268.384-1.74c.256-.48.604-.844 1.044-1.092.44-.248.936-.372 1.488-.372.6 0 1.136.136 1.608.408.48.264.856.64 1.128 1.128.272.48.408 1.036.408 1.668 0 .64-.136 1.2-.408 1.68-.272.48-.648.856-1.128 1.128a3.162 3.162 0 0 1-1.608.408Zm-3.252 2.268V23.7h.816v1.896l-.084 1.26.12 1.272v4.2h-.852Zm3.192-3.024c.448 0 .848-.1 1.2-.3.352-.208.632-.496.84-.864.208-.376.312-.808.312-1.296s-.104-.916-.312-1.284a2.294 2.294 0 0 0-.84-.864 2.314 2.314 0 0 0-1.2-.312c-.448 0-.852.104-1.212.312a2.294 2.294 0 0 0-.84.864c-.2.368-.3.796-.3 1.284s.1.92.3 1.296c.208.368.488.656.84.864.36.2.764.3 1.212.3Zm7.616.756c-.656 0-1.232-.136-1.728-.408a3.064 3.064 0 0 1-1.164-1.14c-.28-.488-.42-1.044-.42-1.668 0-.624.132-1.176.396-1.656a2.99 2.99 0 0 1 1.104-1.128c.472-.28 1-.42 1.584-.42.592 0 1.116.136 1.572.408a2.8 2.8 0 0 1 1.092 1.128c.264.48.396 1.036.396 1.668 0 .04-.004.084-.012.132v.132h-5.484v-.636h5.028l-.336.252c0-.456-.1-.86-.3-1.212a2.11 2.11 0 0 0-.792-.84c-.336-.2-.724-.3-1.164-.3-.432 0-.82.1-1.164.3-.344.2-.612.48-.804.84-.192.36-.288.772-.288 1.236v.132c0 .48.104.904.312 1.272.216.36.512.644.888.852.384.2.82.3 1.308.3.384 0 .74-.068 1.068-.204.336-.136.624-.344.864-.624l.48.552c-.28.336-.632.592-1.056.768a3.507 3.507 0 0 1-1.38.264Zm4.567-.06v-8.904h.852V30h-.852Zm5.79.06a3.319 3.319 0 0 1-1.644-.408c-.48-.28-.86-.66-1.14-1.14-.28-.488-.42-1.044-.42-1.668 0-.632.14-1.188.42-1.668.28-.48.66-.856 1.14-1.128.48-.272 1.028-.408 1.644-.408.624 0 1.176.136 1.656.408.488.272.868.648 1.14 1.128.28.48.42 1.036.42 1.668 0 .624-.14 1.18-.42 1.668a3 3 0 0 1-1.14 1.14 3.343 3.343 0 0 1-1.656.408Zm0-.756c.456 0 .86-.1 1.212-.3.352-.208.628-.496.828-.864.208-.376.312-.808.312-1.296 0-.496-.104-.928-.312-1.296a2.123 2.123 0 0 0-.828-.852 2.314 2.314 0 0 0-1.2-.312c-.448 0-.848.104-1.2.312-.352.2-.632.484-.84.852-.208.368-.312.8-.312 1.296 0 .488.104.92.312 1.296.208.368.488.656.84.864.352.2.748.3 1.188.3Zm6.648.756c-.52 0-1.012-.072-1.476-.216-.464-.152-.828-.34-1.092-.564l.384-.672c.256.192.584.36.984.504.4.136.82.204 1.26.204.6 0 1.032-.092 1.296-.276a.893.893 0 0 0 .396-.756c0-.232-.076-.412-.228-.54a1.315 1.315 0 0 0-.576-.3 6.34 6.34 0 0 0-.804-.18 17.32 17.32 0 0 1-.888-.168 3.425 3.425 0 0 1-.792-.276c-.24-.128-.436-.3-.588-.516-.144-.216-.216-.504-.216-.864 0-.344.096-.652.288-.924.192-.272.472-.484.84-.636.376-.16.832-.24 1.368-.24.408 0 .816.056 1.224.168.408.104.744.244 1.008.42l-.372.684a2.768 2.768 0 0 0-.9-.408 3.606 3.606 0 0 0-.96-.132c-.568 0-.988.1-1.26.3-.264.192-.396.44-.396.744 0 .24.072.428.216.564.152.136.348.244.588.324.248.072.516.132.804.18.296.048.588.108.876.18.296.064.564.156.804.276.248.112.444.276.588.492.152.208.228.484.228.828 0 .368-.104.688-.312.96-.2.264-.496.472-.888.624-.384.144-.852.216-1.404.216Z"
        fill="#000" style="--darkreader-inline-fill:#000000" />
</svg>