<svg xmlns="http://www.w3.org/2000/svg" fill="none" viewBox="-0.03 0 45.75 58.25">
    <path fill="#000"
        d="M5.334 16.353c-.138 0-.27-.023-.4-.07-.899-.314-1.276-1.61-1.199-4.178C1.168 11.155-.023 10.22 0 9.17c.023-1.058 1.268-1.962 3.92-2.821.253-2.407.776-3.596 1.698-3.833.915-.238 1.93.498 3.274 2.392 2.82-.568 4.312-.422 4.811.475.484.859-.1 2.116-1.883 4.033 1.606 2.422 2.037 3.864 1.399 4.638-.63.766-2.052.644-4.604-.399-1.398 1.848-2.436 2.699-3.281 2.699Zm.592-12.926c-.031 0-.062 0-.077.008-.223.06-.769.498-1.022 3.312l-.031.314-.3.092C1.215 8.18.946 8.97.946 9.185c0 .214.23 1.011 3.435 2.146l.33.115-.015.353c-.138 3.181.438 3.55.553 3.588.123.038.83.115 2.82-2.591l.224-.3.346.146c3.181 1.35 3.758.913 3.842.813.085-.107.415-.782-1.66-3.826l-.215-.314.261-.276c2.275-2.384 2.067-3.082 1.998-3.197-.069-.123-.584-.698-4.096.054l-.307.069-.177-.261C6.879 3.68 6.187 3.427 5.925 3.427ZM25.946 12.964c-.823 0-1.968-.613-3.574-1.894-2.16 1.595-3.481 2.047-4.273 1.48-.776-.56-.768-1.901.03-4.347-2.19-1.633-3.066-2.867-2.75-3.871.315-1.012 1.767-1.288 4.557-1.373C20.843.751 21.68 0 22.61 0h.039c.945 0 1.706.79 2.46 2.982 2.866.246 4.257.69 4.48 1.695.222.966-.692 1.94-2.944 3.28.86 2.776.86 4.248.03 4.816-.207.153-.445.191-.73.191Zm-3.55-3.09.291.238c2.675 2.185 3.351 1.932 3.45 1.863.116-.076.616-.636-.514-4.132l-.115-.368.33-.192c2.86-1.648 2.851-2.376 2.82-2.507-.03-.138-.368-.835-3.942-1.104l-.315-.023-.1-.299C23.433.713 22.787.49 22.611.483c-.239.023-.877.26-1.922 2.89l-.115.292-.315.007c-3.436.062-3.92.744-3.981.951-.07.207-.062 1.035 2.69 3.028l.284.207-.115.33c-1.03 3.013-.584 3.526-.485 3.603.108.077.754.345 3.444-1.687l.3-.23ZM39.956 16.184c-.86 0-1.914-.897-3.305-2.829-2.505.958-3.904 1.05-4.51.291-.6-.743-.231-2.039 1.19-4.178-1.675-2.154-2.19-3.58-1.621-4.462.576-.889 2.113-.996 4.818-.337 1.491-1.909 2.56-2.637 3.474-2.361.9.276 1.368 1.441 1.514 3.756 2.698 1.005 3.881 1.917 3.835 2.937-.046.989-1.199 1.74-3.735 2.438.085 2.905-.307 4.354-1.268 4.676-.13.046-.254.07-.392.07Zm-2.959-3.979.215.307c1.983 2.813 2.706 2.76 2.829 2.714.13-.046.76-.445.614-4.125l-.015-.383.369-.1c3.19-.828 3.381-1.533 3.39-1.663.007-.138-.132-.905-3.505-2.116l-.3-.108-.016-.314c-.13-2.775-.691-3.159-.86-3.212-.223-.07-.915.023-2.62 2.277l-.193.253-.307-.077c-3.328-.859-3.974-.33-4.089-.146-.115.184-.338.982 1.783 3.634l.215.276-.2.292c-1.798 2.63-1.506 3.242-1.43 3.342.085.1.639.537 3.767-.713l.353-.138Z"
        style="--darkreader-inline-fill:#e8e6e3" />
    <path fill="#FFB600"
        d="M18.691 8.035c-4.127-2.99-4.058-4.73 1.568-4.83 1.43-3.611 2.913-4.853 4.503 0 5.434.414 5.764 1.932 1.322 4.492 1.768 5.49.3 6.057-3.696 2.783-4.058 3.075-5.318 2.3-3.697-2.445ZM33.915 9.445c-3.182-3.979-2.652-5.642 2.805-4.24 2.344-3.104 4.104-3.902 4.342 1.197 5.126 1.84 5.034 3.396.07 4.676.237 5.765-1.33 5.919-4.305 1.702-4.741 1.894-5.748.813-2.912-3.335ZM4.212 11.784c-4.803-1.702-5.233-3.397.139-5.076.353-3.871 1.421-5.474 4.319-1.265 5.325-1.134 6.07.23 2.536 3.933 3.25 4.769 2.006 5.727-2.76 3.71-3.02 4.095-4.449 3.711-4.234-1.303Z"
        style="--darkreader-inline-fill:#ffbd1a" />
    <path fill="#fff"
        d="M36.567 58.228H9.699c-5.041 0-9.13-4.079-9.13-9.108V31.103c0-5.029 4.089-9.108 9.13-9.108h26.868c5.041 0 9.13 4.079 9.13 9.108V49.12c0 5.029-4.089 9.108-9.13 9.108Z"
        opacity=".3" style="--darkreader-inline-fill:#181a1b" />
    <path fill="#fff"
        d="M36.567 57.085H9.699c-5.041 0-9.13-4.078-9.13-9.108V31.103c0-5.029 4.089-9.108 9.13-9.108h26.868c5.041 0 9.13 4.079 9.13 9.108v16.874c0 5.037-4.089 9.108-9.13 9.108Z"
        style="--darkreader-inline-fill:#181a1b" />
    <path fill="#000"
        d="M34.492 53.965H11.874c-5.041 0-9.13-4.079-9.13-9.108v-14.46c0-5.028 4.089-9.107 9.13-9.107h22.618c5.041 0 9.13 4.079 9.13 9.108v14.46c0 5.028-4.089 9.107-9.13 9.107Z"
        opacity=".3" style="--darkreader-inline-fill:#000000" />
    <path fill="#3B275B"
        d="M34.446 53.298H11.828c-5.041 0-9.13-4.079-9.13-9.108V29.74c0-5.03 4.089-9.108 9.13-9.108h22.618c5.041 0 9.13 4.078 9.13 9.108v14.459c-.008 5.03-4.096 9.1-9.13 9.1Z"
        style="--darkreader-inline-fill:#2f1f49" />
    <path fill="#553382"
        d="M34.492 51.504H11.874c-5.041 0-9.13-4.078-9.13-9.108V26.894c0-5.029 4.089-9.107 9.13-9.107h22.618c5.041 0 9.13 4.078 9.13 9.107v15.502c0 5.03-4.089 9.108-9.13 9.108Z"
        style="--darkreader-inline-fill:#442968" />
    <path fill="#8C50CC"
        d="M34.446 50.645H11.828c-5.041 0-9.13-4.078-9.13-9.108V26.044c0-5.029 4.089-9.108 9.13-9.108h22.618c5.041 0 9.13 4.079 9.13 9.108v15.502c-.008 5.03-4.096 9.1-9.13 9.1Z"
        style="--darkreader-inline-fill:#5c2a90" />
    <path fill="#000"
        d="M14.503 36.915c-9.392-5.796-9.246-9.185 3.566-9.377 3.258-7.015 6.624-9.407 10.244 0 12.366.798 13.111 3.75 3.005 8.71 4.027 10.649.692 11.753-8.408 5.397-9.237 5.98-12.104 4.485-8.407-4.73Z"
        opacity=".3" style="--darkreader-inline-fill:#000000" />
    <path fill="#FFB600"
        d="M14.471 34.078c-8.746-5.796-8.607-9.185 3.32-9.376 3.036-7.015 6.171-9.407 9.545 0 11.513.797 12.212 3.749 2.798 8.709 3.75 10.649.645 11.753-7.832 5.397-8.607 5.98-11.274 4.477-7.83-4.73Z"
        style="--darkreader-inline-fill:#996d00" />
    <path fill="url(#a)"
        d="M15.102 33.035c-8.062-5.405-7.931-8.57 3.058-8.747 2.798-6.54 5.688-8.779 8.8 0 10.613.743 11.259 3.503 2.582 8.126 3.459 9.936.592 10.963-7.216 5.037-7.939 5.581-10.406 4.178-7.224-4.416Z" />
    <path fill="#fff"
        d="M13.457 26.894c0 .606-.538 1.104-1.207 1.104-.668 0-1.206-.49-1.206-1.104 0-.605.538-1.104 1.207-1.104.668 0 1.206.491 1.206 1.104ZM23.187 20.44c0 .367-.392.658-.884.658-.484 0-.884-.299-.884-.659 0-.368.392-.66.884-.66.484 0 .884.292.884.66ZM29.588 30.39c-.591.49-1.245.72-1.46.506-.215-.214.1-.782.692-1.28.592-.49 1.245-.72 1.46-.506.208.215-.1.79-.692 1.28Z"
        style="--darkreader-inline-fill:#e8e6e3" />
    <path fill="url(#b)"
        d="M18.99 7.498c-3.804-2.79-3.742-4.416 1.445-4.508 1.322-3.373 2.683-4.523 4.15 0 5.011.383 5.31 1.802 1.215 4.194 1.629 5.12.276 5.65-3.405 2.599-3.742 2.867-4.903 2.146-3.404-2.285Z" />
    <path fill="#fff"
        d="M18.215 4.332a.567.567 0 0 1-.57.567.567.567 0 1 1 0-1.135c.316 0 .57.253.57.568ZM22.803 1.004c0 .192-.185.345-.415.345-.23 0-.415-.153-.415-.345 0-.191.184-.345.415-.345.23 0 .415.154.415.345ZM25.823 6.133c-.277.253-.584.368-.684.261-.1-.107.046-.406.323-.66.276-.252.584-.367.691-.26.093.107-.053.406-.33.66Z"
        style="--darkreader-inline-fill:#e8e6e3" />
    <path fill="url(#c)"
        d="M34.338 9.008c-2.92-3.703-2.429-5.251 2.597-3.963 2.175-2.898 3.797-3.65 3.997 1.104 4.726 1.702 4.634 3.15.053 4.362.2 5.374-1.245 5.52-3.973 1.595-4.373 1.778-5.303.774-2.674-3.098Z" />
    <path fill="#fff"
        d="M34.446 5.75a.58.58 0 0 1-.7.399.572.572 0 0 1-.4-.698.574.574 0 0 1 .7-.399c.3.085.484.399.4.698ZM39.756 3.764c-.054.184-.269.276-.492.223-.223-.062-.36-.261-.307-.437.054-.184.269-.276.492-.223.215.062.353.253.307.437ZM41.292 9.514c-.338.169-.668.2-.73.07-.069-.131.154-.376.492-.553.338-.168.669-.2.73-.069.062.138-.153.384-.492.552Z"
        style="--darkreader-inline-fill:#e8e6e3" />
    <path fill="url(#d)"
        d="M4.35 11.185C-.09 9.583-.49 8.005 4.459 6.455 4.773 2.845 5.75 1.357 8.44 5.29c4.911-1.043 5.603.238 2.352 3.68 3.012 4.454 1.867 5.343-2.529 3.45-2.782 3.802-4.096 3.442-3.911-1.235Z" />
    <path fill="#fff"
        d="M2.706 8.364a.568.568 0 1 1-1.09.32.568.568 0 0 1 1.09-.32ZM6.171 3.88c.054.183-.084.383-.3.444-.222.061-.445-.03-.499-.207-.054-.184.085-.383.3-.445.223-.069.445.031.5.207ZM10.514 7.95c-.2.322-.461.522-.584.445-.131-.077-.07-.399.123-.72.2-.323.46-.522.584-.445.13.076.076.398-.123.72Z"
        style="--darkreader-inline-fill:#e8e6e3" />
    <defs>
        <linearGradient id="a" x1="9.431" x2="35.529" y1="29.81" y2="29.81" gradientUnits="userSpaceOnUse">
            <stop stop-color="#FFB900" style="--darkreader-inline-stopcolor:#996f00" />
            <stop offset=".23" stop-color="#FFD62A" style="--darkreader-inline-stopcolor:#866c00" />
            <stop offset=".707" stop-color="#FFF76A" style="--darkreader-inline-stopcolor:#696400" />
            <stop offset="1" stop-color="#FFD215" style="--darkreader-inline-stopcolor:#907400" />
        </linearGradient>
        <linearGradient id="b" x1="16.315" x2="28.627" y1="5.835" y2="5.835" gradientUnits="userSpaceOnUse">
            <stop stop-color="#FFB900" style="--darkreader-inline-stopcolor:#996f00" />
            <stop offset=".23" stop-color="#FFD62A" style="--darkreader-inline-stopcolor:#866c00" />
            <stop offset=".707" stop-color="#FFF76A" style="--darkreader-inline-stopcolor:#696400" />
            <stop offset="1" stop-color="#FFD215" style="--darkreader-inline-stopcolor:#907400" />
        </linearGradient>
        <linearGradient id="c" x1="32.208" x2="44.071" y1="6.695" y2="9.986" gradientUnits="userSpaceOnUse">
            <stop stop-color="#FFB900" style="--darkreader-inline-stopcolor:#996f00" />
            <stop offset=".23" stop-color="#FFD62A" style="--darkreader-inline-stopcolor:#866c00" />
            <stop offset=".707" stop-color="#FFF76A" style="--darkreader-inline-stopcolor:#696400" />
            <stop offset="1" stop-color="#FFD215" style="--darkreader-inline-stopcolor:#907400" />
        </linearGradient>
        <linearGradient id="d" x1="1.312" x2="13.119" y1="10.344" y2="6.861" gradientUnits="userSpaceOnUse">
            <stop stop-color="#FFB900" style="--darkreader-inline-stopcolor:#996f00" />
            <stop offset=".23" stop-color="#FFD62A" style="--darkreader-inline-stopcolor:#866c00" />
            <stop offset=".707" stop-color="#FFF76A" style="--darkreader-inline-stopcolor:#696400" />
            <stop offset="1" stop-color="#FFD215" style="--darkreader-inline-stopcolor:#907400" />
        </linearGradient>
    </defs>
</svg>