<svg xmlns="http://www.w3.org/2000/svg" fill="none" viewBox="0 0 190 122.02"><path fill="#8C50CC" d="M27.146 7.039h135.708C177.847 7.039 190 19.878 190 35.736v31.079c0 15.834-12.153 28.697-27.146 28.697h-8.144c-1.921 7.537-2.317 17.626 4.657 26.488 0 0-28.106-6.554-34.454-26.488H27.146C12.153 95.512 0 82.673 0 66.815V35.736C0 19.902 12.153 7.039 27.146 7.039Z" style="--darkreader-inline-fill:#5c2a90"/><path fill="#fff" d="M27.164 0h135.693C177.848 0 190 12.839 190 28.697v31.08c0 15.833-12.152 28.697-27.143 28.697h-8.143c-1.921 7.536-2.317 17.625 4.656 26.488 0 0-28.103-6.555-34.45-26.489H27.143C12.152 88.474 0 75.636 0 59.776V28.697C.02 12.84 12.172 0 27.164 0Z" style="--darkreader-inline-fill:#181a1b"/><path fill="#3A3A3A" d="M59.492 39.144c-.664 0-1.28-.108-1.848-.324a4.439 4.439 0 0 1-1.464-.912 4.282 4.282 0 0 1-.96-1.38 4.379 4.379 0 0 1-.336-1.728c0-.624.112-1.2.336-1.728.232-.528.556-.988.972-1.38a4.439 4.439 0 0 1 1.464-.912 5.026 5.026 0 0 1 1.824-.324c.664 0 1.272.108 1.824.324.56.216 1.044.52 1.452.912a4.194 4.194 0 0 1 1.32 3.108c0 .624-.116 1.204-.348 1.74a4.195 4.195 0 0 1-.972 1.38 4.405 4.405 0 0 1-1.452.9 4.93 4.93 0 0 1-1.812.324Zm-.012-1.656c.376 0 .72-.064 1.032-.192a2.448 2.448 0 0 0 1.392-1.404c.136-.328.204-.692.204-1.092 0-.4-.068-.764-.204-1.092a2.448 2.448 0 0 0-.552-.852 2.351 2.351 0 0 0-.828-.552 2.786 2.786 0 0 0-1.044-.192c-.376 0-.724.064-1.044.192a2.504 2.504 0 0 0-.828.552c-.24.24-.428.524-.564.852a2.98 2.98 0 0 0-.192 1.092c0 .392.064.756.192 1.092.136.328.32.612.552.852.24.24.52.424.84.552.32.128.668.192 1.044.192ZM65.405 39v-6.456h1.872V39h-1.872Zm.936-7.356c-.344 0-.624-.1-.84-.3a.973.973 0 0 1-.324-.744c0-.296.108-.544.324-.744.216-.2.496-.3.84-.3s.624.096.84.288a.9.9 0 0 1 .324.72c0 .312-.108.572-.324.78-.208.2-.488.3-.84.3Zm9.276 7.452c-.736 0-1.384-.144-1.944-.432a3.208 3.208 0 0 1-1.284-1.176 3.257 3.257 0 0 1-.456-1.716c0-.648.148-1.22.444-1.716a3.176 3.176 0 0 1 1.236-1.176c.52-.288 1.108-.432 1.764-.432.632 0 1.2.136 1.704.408.512.264.916.648 1.212 1.152.296.496.444 1.092.444 1.788 0 .072-.004.156-.012.252l-.024.252h-5.244v-1.092h4.26l-.72.324c0-.336-.068-.628-.204-.876a1.447 1.447 0 0 0-.564-.576 1.601 1.601 0 0 0-.84-.216c-.32 0-.604.072-.852.216-.24.136-.428.332-.564.588a1.82 1.82 0 0 0-.204.888v.288c0 .352.076.664.228.936.16.264.38.468.66.612.288.136.624.204 1.008.204.344 0 .644-.052.9-.156a2.19 2.19 0 0 0 .72-.468l.996 1.08a2.958 2.958 0 0 1-1.116.78c-.448.176-.964.264-1.548.264Zm7.09 0a3.227 3.227 0 0 1-1.44-.312 2.223 2.223 0 0 1-.972-.948c-.232-.432-.348-.98-.348-1.644v-3.648h1.872v3.372c0 .536.112.932.336 1.188.232.248.556.372.972.372a1.6 1.6 0 0 0 .768-.18c.224-.128.4-.32.528-.576.128-.264.192-.592.192-.984v-3.192h1.872V39h-1.776v-1.776l.324.516a2.24 2.24 0 0 1-.96 1.02 2.84 2.84 0 0 1-1.368.336Zm11.085 0a6.556 6.556 0 0 1-1.596-.192c-.504-.136-.904-.304-1.2-.504l.624-1.344a4.324 4.324 0 0 0 2.244.624c.432 0 .736-.052.912-.156.184-.104.276-.248.276-.432 0-.152-.072-.264-.216-.336-.136-.08-.32-.14-.552-.18-.232-.04-.488-.08-.768-.12-.272-.04-.548-.092-.828-.156a2.974 2.974 0 0 1-.768-.312 1.62 1.62 0 0 1-.564-.552c-.136-.232-.204-.532-.204-.9 0-.408.116-.768.348-1.08.24-.312.584-.556 1.032-.732.448-.184.984-.276 1.608-.276.44 0 .888.048 1.344.144.456.096.836.236 1.14.42L96 34.344a3.035 3.035 0 0 0-.948-.372 4.05 4.05 0 0 0-.912-.108c-.416 0-.72.056-.912.168-.192.112-.288.256-.288.432 0 .16.068.28.204.36.144.08.332.144.564.192.232.048.484.092.756.132.28.032.56.084.84.156.28.072.532.176.756.312.232.128.42.308.564.54.144.224.216.52.216.888 0 .4-.12.756-.36 1.068-.24.304-.588.544-1.044.72-.448.176-.996.264-1.644.264Zm7.275 0c-.688 0-1.3-.144-1.836-.432a3.363 3.363 0 0 1-1.26-1.176 3.257 3.257 0 0 1-.456-1.716c0-.648.152-1.22.456-1.716a3.24 3.24 0 0 1 1.26-1.176c.536-.288 1.148-.432 1.836-.432.68 0 1.288.144 1.824.432.536.28.956.668 1.26 1.164.304.496.456 1.072.456 1.728 0 .64-.152 1.212-.456 1.716a3.248 3.248 0 0 1-1.26 1.176c-.536.288-1.144.432-1.824.432Zm0-1.536c.312 0 .592-.072.84-.216.248-.144.444-.348.588-.612.144-.272.216-.592.216-.96 0-.376-.072-.696-.216-.96a1.548 1.548 0 0 0-.588-.612 1.642 1.642 0 0 0-.84-.216c-.312 0-.592.072-.84.216a1.633 1.633 0 0 0-.6.612c-.144.264-.216.584-.216.96 0 .368.072.688.216.96.152.264.352.468.6.612.248.144.528.216.84.216Zm7.515 1.536a3.227 3.227 0 0 1-1.44-.312 2.223 2.223 0 0 1-.972-.948c-.232-.432-.348-.98-.348-1.644v-3.648h1.872v3.372c0 .536.112.932.336 1.188.232.248.556.372.972.372a1.6 1.6 0 0 0 .768-.18c.224-.128.4-.32.528-.576.128-.264.192-.592.192-.984v-3.192h1.872V39h-1.776v-1.776l.324.516a2.24 2.24 0 0 1-.96 1.02 2.84 2.84 0 0 1-1.368.336ZM121.455 39v-1.26l-.12-.276v-2.256c0-.4-.124-.712-.372-.936-.24-.224-.612-.336-1.116-.336-.344 0-.684.056-1.02.168a2.603 2.603 0 0 0-.84.432l-.672-1.308c.352-.248.776-.44 1.272-.576.496-.136 1-.204 1.512-.204.984 0 1.748.232 2.292.696.544.464.816 1.188.816 2.172V39h-1.752Zm-1.968.096c-.504 0-.936-.084-1.296-.252a2.01 2.01 0 0 1-.828-.708 1.79 1.79 0 0 1-.288-.996c0-.384.092-.72.276-1.008.192-.288.492-.512.9-.672.408-.168.94-.252 1.596-.252h1.716V36.3h-1.512c-.44 0-.744.072-.912.216a.696.696 0 0 0-.24.54c0 .24.092.432.276.576.192.136.452.204.78.204.312 0 .592-.072.84-.216.248-.152.428-.372.54-.66l.288.864a1.671 1.671 0 0 1-.744.948c-.36.216-.824.324-1.392.324Zm10.745-4.716h4.032v1.56h-4.032v-1.56Zm.144 4.62h-1.944v-8.4h6.348v1.56h-4.404V39Zm5.72 0v-8.4h1.944v6.816h4.212V39h-6.156Zm8.463 0v-3.432l.444 1.176-3.696-6.144h2.064l2.832 4.716h-1.188l2.844-4.716h1.908l-3.696 6.144.432-1.176V39h-1.944ZM27.791 54v-8.4h4.104c1.056 0 1.848.2 2.376.6.536.4.804.928.804 1.584 0 .44-.108.824-.324 1.152-.216.32-.512.568-.888.744a3.024 3.024 0 0 1-1.296.264l.228-.492c.528 0 .996.088 1.404.264.408.168.724.42.948.756.232.336.348.748.348 1.236 0 .72-.284 1.284-.852 1.692-.568.4-1.404.6-2.508.6H27.79Zm1.932-1.464h2.268c.504 0 .884-.08 1.14-.24.264-.168.396-.432.396-.792 0-.352-.132-.612-.396-.78-.256-.176-.636-.264-1.14-.264h-2.412v-1.416h2.076c.472 0 .832-.08 1.08-.24.256-.168.384-.42.384-.756 0-.328-.128-.572-.384-.732-.248-.168-.608-.252-1.08-.252h-1.932v5.472Zm10.316 1.56c-.736 0-1.384-.144-1.944-.432a3.208 3.208 0 0 1-1.284-1.176 3.257 3.257 0 0 1-.456-1.716c0-.648.148-1.22.444-1.716a3.176 3.176 0 0 1 1.236-1.176c.52-.288 1.108-.432 1.764-.432.632 0 1.2.136 1.704.408.512.264.916.648 1.212 1.152.296.496.444 1.092.444 1.788 0 .072-.004.156-.012.252l-.024.252h-5.244v-1.092h4.26l-.72.324c0-.336-.068-.628-.204-.876a1.447 1.447 0 0 0-.564-.576 1.601 1.601 0 0 0-.84-.216c-.32 0-.604.072-.852.216-.24.136-.428.332-.564.588a1.82 1.82 0 0 0-.204.888v.288c0 .352.076.664.228.936.16.264.38.468.66.612.288.136.624.204 1.008.204.344 0 .644-.052.9-.156a2.19 2.19 0 0 0 .72-.468l.996 1.08a2.958 2.958 0 0 1-1.116.78c-.448.176-.964.264-1.548.264Zm12.634-6.648c.512 0 .964.104 1.356.312.4.2.712.512.936.936.232.416.348.952.348 1.608V54h-1.872v-3.408c0-.52-.108-.904-.324-1.152-.216-.248-.52-.372-.912-.372-.272 0-.516.064-.732.192-.216.12-.384.304-.504.552-.12.248-.18.564-.18.948V54h-1.872v-3.408c0-.52-.108-.904-.324-1.152-.208-.248-.508-.372-.9-.372-.272 0-.516.064-.732.192-.216.12-.384.304-.504.552-.12.248-.18.564-.18.948V54h-1.872v-6.456h1.788v1.764l-.336-.516c.224-.44.54-.772.948-.996a2.857 2.857 0 0 1 1.416-.348c.592 0 1.108.152 1.548.456.448.296.744.752.888 1.368l-.66-.18c.216-.504.56-.904 1.032-1.2.48-.296 1.028-.444 1.644-.444Zm4.078 3.924v-1.5h3.396v1.5h-3.396ZM63.173 54l-2.712-6.456h1.932l2.256 5.556h-.96l2.34-5.556h1.8L65.105 54h-1.932Zm5.42 0v-6.456h1.871V54h-1.871Zm.935-7.356c-.344 0-.624-.1-.84-.3a.973.973 0 0 1-.323-.744c0-.296.108-.544.324-.744.216-.2.496-.3.84-.3s.624.096.84.288a.9.9 0 0 1 .323.72c0 .312-.107.572-.323.78-.209.2-.489.3-.84.3Zm6.598.804c.512 0 .968.104 1.368.312.408.2.728.512.96.936.232.416.348.952.348 1.608V54H76.93v-3.408c0-.52-.116-.904-.348-1.152-.224-.248-.544-.372-.96-.372-.296 0-.564.064-.804.192-.232.12-.416.308-.552.564-.128.256-.192.584-.192.984V54h-1.872v-6.456h1.788v1.788l-.336-.54c.232-.432.564-.764.996-.996.432-.232.924-.348 1.476-.348Zm7.192 6.648a3.319 3.319 0 0 1-1.644-.408 3.126 3.126 0 0 1-1.164-1.164c-.28-.496-.42-1.08-.42-1.752 0-.68.14-1.268.42-1.764.288-.496.676-.88 1.164-1.152a3.319 3.319 0 0 1 1.644-.408c.544 0 1.02.12 1.428.36.408.24.724.604.948 1.092.224.488.336 1.112.336 1.872 0 .752-.108 1.376-.324 1.872-.216.488-.528.852-.936 1.092-.4.24-.884.36-1.452.36Zm.324-1.536c.304 0 .58-.072.828-.216.248-.144.444-.348.588-.612.152-.272.228-.592.228-.96 0-.376-.076-.696-.228-.96a1.548 1.548 0 0 0-.588-.612 1.619 1.619 0 0 0-.828-.216c-.312 0-.592.072-.84.216a1.633 1.633 0 0 0-.6.612c-.144.264-.216.584-.216.96 0 .368.072.688.216.96.152.264.352.468.6.612.248.144.528.216.84.216ZM85.334 54v-1.32l.036-1.92-.12-1.908v-3.756h1.872V54h-1.788Zm6.592.096c-.688 0-1.3-.144-1.836-.432a3.363 3.363 0 0 1-1.26-1.176 3.257 3.257 0 0 1-.456-1.716c0-.648.152-1.22.456-1.716a3.24 3.24 0 0 1 1.26-1.176c.536-.288 1.148-.432 1.836-.432.68 0 1.288.144 1.824.432.536.28.956.668 1.26 1.164.304.496.456 1.072.456 1.728 0 .64-.152 1.212-.456 1.716a3.248 3.248 0 0 1-1.26 1.176c-.536.288-1.144.432-1.824.432Zm0-1.536c.312 0 .592-.072.84-.216.248-.144.444-.348.588-.612.144-.272.216-.592.216-.96 0-.376-.072-.696-.216-.96a1.548 1.548 0 0 0-.588-.612 1.642 1.642 0 0 0-.84-.216c-.312 0-.592.072-.84.216a1.633 1.633 0 0 0-.6.612c-.144.264-.216.584-.216.96 0 .368.072.688.216.96.152.264.352.468.6.612.248.144.528.216.84.216Zm12.15 1.44v-1.26l-.12-.276v-2.256c0-.4-.124-.712-.372-.936-.24-.224-.612-.336-1.116-.336-.344 0-.684.056-1.02.168a2.603 2.603 0 0 0-.84.432l-.672-1.308c.352-.248.776-.44 1.272-.576.496-.136 1-.204 1.512-.204.984 0 1.748.232 2.292.696.544.464.816 1.188.816 2.172V54h-1.752Zm-1.968.096c-.504 0-.936-.084-1.296-.252a2.01 2.01 0 0 1-.828-.708 1.79 1.79 0 0 1-.288-.996c0-.384.092-.72.276-1.008.192-.288.492-.512.9-.672.408-.168.94-.252 1.596-.252h1.716V51.3h-1.512c-.44 0-.744.072-.912.216a.696.696 0 0 0-.24.54c0 .24.092.432.276.576.192.136.452.204.78.204.312 0 .592-.072.84-.216.248-.152.428-.372.54-.66l.288.864a1.671 1.671 0 0 1-.744.948c-.36.216-.824.324-1.392.324Zm.432-7.38-2.172-1.728h2.016l1.62 1.728h-1.464ZM111.053 54v-8.4h1.944v6.816h4.212V54h-6.156Zm11.117 0v-1.26l-.12-.276v-2.256c0-.4-.124-.712-.372-.936-.24-.224-.612-.336-1.116-.336-.344 0-.684.056-1.02.168a2.603 2.603 0 0 0-.84.432l-.672-1.308c.352-.248.776-.44 1.272-.576.496-.136 1-.204 1.512-.204.984 0 1.748.232 2.292.696.544.464.816 1.188.816 2.172V54h-1.752Zm-1.968.096c-.504 0-.936-.084-1.296-.252a2.01 2.01 0 0 1-.828-.708 1.79 1.79 0 0 1-.288-.996c0-.384.092-.72.276-1.008.192-.288.492-.512.9-.672.408-.168.94-.252 1.596-.252h1.716V51.3h-1.512c-.44 0-.744.072-.912.216a.696.696 0 0 0-.24.54c0 .24.092.432.276.576.192.136.452.204.78.204.312 0 .592-.072.84-.216.248-.152.428-.372.54-.66l.288.864a1.671 1.671 0 0 1-.744.948c-.36.216-.824.324-1.392.324Zm7.586 0a6.556 6.556 0 0 1-1.596-.192c-.504-.136-.904-.304-1.2-.504l.624-1.344a4.324 4.324 0 0 0 2.244.624c.432 0 .736-.052.912-.156.184-.104.276-.248.276-.432 0-.152-.072-.264-.216-.336-.136-.08-.32-.14-.552-.18-.232-.04-.488-.08-.768-.12-.272-.04-.548-.092-.828-.156a2.974 2.974 0 0 1-.768-.312 1.62 1.62 0 0 1-.564-.552c-.136-.232-.204-.532-.204-.9 0-.408.116-.768.348-1.08.24-.312.584-.556 1.032-.732.448-.184.984-.276 1.608-.276.44 0 .888.048 1.344.144.456.096.836.236 1.14.42l-.624 1.332a3.035 3.035 0 0 0-.948-.372 4.05 4.05 0 0 0-.912-.108c-.416 0-.72.056-.912.168-.192.112-.288.256-.288.432 0 .16.068.28.204.36.144.08.332.144.564.192.232.048.484.092.756.132.28.032.56.084.84.156.28.072.532.176.756.312.232.128.42.308.564.54.144.224.216.52.216.888 0 .4-.12.756-.36 1.068-.24.304-.588.544-1.044.72-.448.176-.996.264-1.644.264Zm7.407 0c-.736 0-1.384-.144-1.944-.432a3.208 3.208 0 0 1-1.284-1.176 3.257 3.257 0 0 1-.456-1.716c0-.648.148-1.22.444-1.716a3.176 3.176 0 0 1 1.236-1.176c.52-.288 1.108-.432 1.764-.432.632 0 1.2.136 1.704.408.512.264.916.648 1.212 1.152.296.496.444 1.092.444 1.788 0 .072-.004.156-.012.252l-.024.252h-5.244v-1.092h4.26l-.72.324c0-.336-.068-.628-.204-.876a1.447 1.447 0 0 0-.564-.576 1.601 1.601 0 0 0-.84-.216c-.32 0-.604.072-.852.216-.24.136-.428.332-.564.588a1.82 1.82 0 0 0-.204.888v.288c0 .352.076.664.228.936.16.264.38.468.66.612.288.136.624.204 1.008.204.344 0 .644-.052.9-.156a2.19 2.19 0 0 0 .72-.468l.996 1.08a2.958 2.958 0 0 1-1.116.78c-.448.176-.964.264-1.548.264Zm4.366-.096v-6.456h1.788v1.824l-.252-.528c.192-.456.5-.8.924-1.032.424-.24.94-.36 1.548-.36v1.728a2.191 2.191 0 0 0-.216-.012 1.647 1.647 0 0 0-.204-.012c-.512 0-.928.148-1.248.444-.312.288-.468.74-.468 1.356V54h-1.872Zm10.499-4.62h4.032v1.56h-4.032v-1.56Zm.144 4.62h-1.944v-8.4h6.348v1.56h-4.404V54Zm9.36 0v-1.26l-.12-.276v-2.256c0-.4-.124-.712-.372-.936-.24-.224-.612-.336-1.116-.336-.344 0-.684.056-1.02.168a2.603 2.603 0 0 0-.84.432l-.672-1.308c.352-.248.776-.44 1.272-.576.496-.136 1-.204 1.512-.204.984 0 1.748.232 2.292.696.544.464.816 1.188.816 2.172V54h-1.752Zm-1.968.096c-.504 0-.936-.084-1.296-.252a2.01 2.01 0 0 1-.828-.708 1.79 1.79 0 0 1-.288-.996c0-.384.092-.72.276-1.008.192-.288.492-.512.9-.672.408-.168.94-.252 1.596-.252h1.716V51.3h-1.512c-.44 0-.744.072-.912.216a.696.696 0 0 0-.24.54c0 .24.092.432.276.576.192.136.452.204.78.204.312 0 .592-.072.84-.216.248-.152.428-.372.54-.66l.288.864a1.671 1.671 0 0 1-.744.948c-.36.216-.824.324-1.392.324Zm7.586 0a6.556 6.556 0 0 1-1.596-.192c-.504-.136-.904-.304-1.2-.504l.624-1.344a4.324 4.324 0 0 0 2.244.624c.432 0 .736-.052.912-.156.184-.104.276-.248.276-.432 0-.152-.072-.264-.216-.336-.136-.08-.32-.14-.552-.18-.232-.04-.488-.08-.768-.12-.272-.04-.548-.092-.828-.156a2.974 2.974 0 0 1-.768-.312 1.62 1.62 0 0 1-.564-.552c-.136-.232-.204-.532-.204-.9 0-.408.116-.768.348-1.08.24-.312.584-.556 1.032-.732.448-.184.984-.276 1.608-.276.44 0 .888.048 1.344.144.456.096.836.236 1.14.42l-.624 1.332a3.035 3.035 0 0 0-.948-.372 4.05 4.05 0 0 0-.912-.108c-.416 0-.72.056-.912.168-.192.112-.288.256-.288.432 0 .16.068.28.204.36.144.08.332.144.564.192.232.048.484.092.756.132.28.032.56.084.84.156.28.072.532.176.756.312.232.128.42.308.564.54.144.224.216.52.216.888 0 .4-.12.756-.36 1.068-.24.304-.588.544-1.044.72-.448.176-.996.264-1.644.264Zm6.843 0c-.76 0-1.352-.192-1.776-.576-.424-.392-.636-.972-.636-1.74v-5.664h1.872v5.64c0 .272.072.484.216.636.144.144.34.216.588.216.296 0 .548-.08.756-.24l.504 1.32a2.14 2.14 0 0 1-.696.312c-.264.064-.54.096-.828.096Zm-3.408-4.968v-1.44h4.476v1.44h-4.476Zm6.115 1.956-.372-5.484h2.232l-.372 5.484h-1.488Zm.744 3.012c-.336 0-.612-.108-.828-.324a1.05 1.05 0 0 1-.324-.768c0-.304.108-.556.324-.756.216-.208.492-.312.828-.312.344 0 .62.104.828.312.216.2.324.452.324.756 0 .296-.108.552-.324.768-.208.216-.484.324-.828.324Z" style="--darkreader-inline-fill:#2c2f31"/></svg>