<svg fill="none" xmlns="http://www.w3.org/2000/svg" viewBox="0 0 190 122.02"><path d="M27.146 7.039h135.708C177.847 7.039 190 19.878 190 35.736v31.079c0 15.834-12.153 28.697-27.146 28.697h-8.144c-1.921 7.537-2.317 17.626 4.657 26.488 0 0-28.106-6.554-34.454-26.488H27.146C12.153 95.512 0 82.673 0 66.815V35.736C0 19.902 12.153 7.039 27.146 7.039Z" fill="#8C50CC" style="--darkreader-inline-fill: #5c2a90;" data-darkreader-inline-fill=""/><path d="M27.164 0h135.693C177.848 0 190 12.839 190 28.697v31.08c0 15.833-12.152 28.697-27.143 28.697h-8.143c-1.921 7.536-2.317 17.625 4.656 26.488 0 0-28.103-6.555-34.45-26.489H27.143C12.152 88.474 0 75.636 0 59.776V28.697C.02 12.84 12.172 0 27.164 0Z" fill="#fff" style="--darkreader-inline-fill: #181a1b;" data-darkreader-inline-fill=""/><path d="m40.06 29-3.623-8.4h2.1l3.168 7.44h-1.236l3.216-7.44h1.932L41.98 29h-1.92Zm9.606 0v-1.26l-.12-.276v-2.256c0-.4-.124-.712-.372-.936-.24-.224-.612-.336-1.116-.336-.344 0-.684.056-1.02.168a2.603 2.603 0 0 0-.84.432l-.672-1.308c.352-.248.776-.44 1.272-.576.496-.136 1-.204 1.512-.204.984 0 1.748.232 2.292.696.544.464.816 1.188.816 2.172V29h-1.752Zm-1.968.096c-.504 0-.936-.084-1.296-.252a2.01 2.01 0 0 1-.828-.708 1.79 1.79 0 0 1-.288-.996c0-.384.092-.72.276-1.008.192-.288.492-.512.9-.672.408-.168.94-.252 1.596-.252h1.716V26.3h-1.512c-.44 0-.744.072-.912.216a.696.696 0 0 0-.24.54c0 .24.092.432.276.576.192.136.452.204.78.204.312 0 .592-.072.84-.216.248-.152.428-.372.54-.66l.288.864a1.671 1.671 0 0 1-.744.948c-.36.216-.824.324-1.392.324Zm13.682-6.648c.512 0 .964.104 1.356.312.4.2.712.512.936.936.232.416.348.952.348 1.608V29h-1.872v-3.408c0-.52-.108-.904-.324-1.152-.216-.248-.52-.372-.912-.372-.272 0-.516.064-.732.192-.216.12-.384.304-.504.552-.12.248-.18.564-.18.948V29h-1.872v-3.408c0-.52-.108-.904-.324-1.152-.208-.248-.508-.372-.9-.372-.272 0-.516.064-.732.192-.216.12-.384.304-.504.552-.12.248-.18.564-.18.948V29h-1.872v-6.456H54.9v1.764l-.336-.516c.224-.44.54-.772.948-.996a2.857 2.857 0 0 1 1.416-.348c.592 0 1.108.152 1.548.456.448.296.744.752.888 1.368l-.66-.18c.216-.504.56-.904 1.032-1.2.48-.296 1.028-.444 1.644-.444Zm7.437 6.648c-.688 0-1.3-.144-1.836-.432a3.363 3.363 0 0 1-1.26-1.176 3.257 3.257 0 0 1-.456-1.716c0-.648.152-1.22.456-1.716a3.24 3.24 0 0 1 1.26-1.176c.536-.288 1.148-.432 1.836-.432.68 0 1.288.144 1.824.432.536.28.956.668 1.26 1.164.304.496.456 1.072.456 1.728 0 .64-.152 1.212-.456 1.716a3.248 3.248 0 0 1-1.26 1.176c-.536.288-1.144.432-1.824.432Zm0-1.536c.312 0 .592-.072.84-.216.248-.144.444-.348.588-.612.144-.272.216-.592.216-.96 0-.376-.072-.696-.216-.96a1.548 1.548 0 0 0-.588-.612 1.642 1.642 0 0 0-.84-.216c-.312 0-.592.072-.84.216a1.633 1.633 0 0 0-.6.612c-.144.264-.216.584-.216.96 0 .368.072.688.216.96.152.264.352.468.6.612.248.144.528.216.84.216Zm6.963 1.536a6.556 6.556 0 0 1-1.596-.192c-.504-.136-.904-.304-1.2-.504l.624-1.344a4.324 4.324 0 0 0 2.244.624c.432 0 .736-.052.912-.156.184-.104.276-.248.276-.432 0-.152-.072-.264-.216-.336-.136-.08-.32-.14-.552-.18-.232-.04-.488-.08-.768-.12-.272-.04-.548-.092-.828-.156a2.974 2.974 0 0 1-.768-.312 1.62 1.62 0 0 1-.564-.552c-.136-.232-.204-.532-.204-.9 0-.408.116-.768.348-1.08.24-.312.584-.556 1.032-.732.448-.184.984-.276 1.608-.276.44 0 .888.048 1.344.144.456.096.836.236 1.14.42l-.624 1.332a3.035 3.035 0 0 0-.948-.372 4.05 4.05 0 0 0-.912-.108c-.416 0-.72.056-.912.168-.192.112-.288.256-.288.432 0 .16.068.28.204.36.144.08.332.144.564.192.232.048.484.092.756.132.28.032.56.084.84.156.28.072.532.176.756.312.232.128.42.308.564.54.144.224.216.52.216.888 0 .4-.12.756-.36 1.068-.24.304-.588.544-1.044.72-.448.176-.996.264-1.644.264Zm7.122 2.328c-.288 0-.564-.032-.828-.096a1.968 1.968 0 0 1-.672-.264l.504-1.356c.216.152.48.228.792.228.232 0 .416-.08.552-.24.144-.152.216-.384.216-.696v-6.456h1.872v6.444c0 .744-.212 1.336-.636 1.776-.424.44-1.024.66-1.8.66Zm1.5-9.78c-.344 0-.624-.1-.84-.3a.973.973 0 0 1-.324-.744c0-.296.108-.544.324-.744.216-.2.496-.3.84-.3s.624.096.84.288a.9.9 0 0 1 .324.72c0 .312-.108.572-.324.78-.208.2-.488.3-.84.3Zm5.383 7.452a3.227 3.227 0 0 1-1.44-.312 2.223 2.223 0 0 1-.972-.948c-.232-.432-.348-.98-.348-1.644v-3.648h1.872v3.372c0 .536.112.932.336 1.188.232.248.556.372.972.372a1.6 1.6 0 0 0 .768-.18c.224-.128.4-.32.528-.576.128-.264.192-.592.192-.984v-3.192h1.872V29H91.79v-1.776l.324.516a2.24 2.24 0 0 1-.96 1.02 2.84 2.84 0 0 1-1.368.336Zm9.439-6.648c.511 0 .968.104 1.368.312.408.2.728.512.96.936.232.416.348.952.348 1.608V29h-1.872v-3.408c0-.52-.117-.904-.349-1.152-.224-.248-.544-.372-.96-.372-.295 0-.563.064-.803.192-.233.12-.416.308-.552.564-.129.256-.193.584-.193.984V29H95.3v-6.456h1.788v1.788l-.336-.54c.233-.432.564-.764.996-.996.433-.232.924-.348 1.477-.348Zm7.012 6.648c-.76 0-1.352-.192-1.776-.576-.424-.392-.636-.972-.636-1.74v-5.664h1.872v5.64c0 .272.072.484.216.636.144.144.34.216.588.216.296 0 .548-.08.756-.24l.504 1.32a2.14 2.14 0 0 1-.696.312c-.264.064-.54.096-.828.096Zm-3.408-4.968v-1.44h4.476v1.44h-4.476Zm8.856 4.968c-.688 0-1.3-.144-1.836-.432a3.363 3.363 0 0 1-1.26-1.176 3.257 3.257 0 0 1-.456-1.716c0-.648.152-1.22.456-1.716a3.24 3.24 0 0 1 1.26-1.176c.536-.288 1.148-.432 1.836-.432.68 0 1.288.144 1.824.432.536.28.956.668 1.26 1.164.304.496.456 1.072.456 1.728 0 .64-.152 1.212-.456 1.716a3.248 3.248 0 0 1-1.26 1.176c-.536.288-1.144.432-1.824.432Zm0-1.536c.312 0 .592-.072.84-.216.248-.144.444-.348.588-.612.144-.272.216-.592.216-.96 0-.376-.072-.696-.216-.96a1.548 1.548 0 0 0-.588-.612 1.642 1.642 0 0 0-.84-.216c-.312 0-.592.072-.84.216a1.633 1.633 0 0 0-.6.612c-.144.264-.216.584-.216.96 0 .368.072.688.216.96.152.264.352.468.6.612.248.144.528.216.84.216Zm6.963 1.536a6.556 6.556 0 0 1-1.596-.192c-.504-.136-.904-.304-1.2-.504l.624-1.344a4.324 4.324 0 0 0 2.244.624c.432 0 .736-.052.912-.156.184-.104.276-.248.276-.432 0-.152-.072-.264-.216-.336-.136-.08-.32-.14-.552-.18-.232-.04-.488-.08-.768-.12-.272-.04-.548-.092-.828-.156a2.974 2.974 0 0 1-.768-.312 1.62 1.62 0 0 1-.564-.552c-.136-.232-.204-.532-.204-.9 0-.408.116-.768.348-1.08.24-.312.584-.556 1.032-.732.448-.184.984-.276 1.608-.276.44 0 .888.048 1.344.144.456.096.836.236 1.14.42l-.624 1.332a3.035 3.035 0 0 0-.948-.372 4.05 4.05 0 0 0-.912-.108c-.416 0-.72.056-.912.168-.192.112-.288.256-.288.432 0 .16.068.28.204.36.144.08.332.144.564.192.232.048.484.092.756.132.28.032.56.084.84.156.28.072.532.176.756.312.232.128.42.308.564.54.144.224.216.52.216.888 0 .4-.12.756-.36 1.068-.24.304-.588.544-1.044.72-.448.176-.996.264-1.644.264Zm11.526-6.648c.512 0 .968.104 1.368.312.408.2.728.512.96.936.232.416.348.952.348 1.608V29h-1.872v-3.408c0-.52-.116-.904-.348-1.152-.224-.248-.544-.372-.96-.372-.296 0-.564.064-.804.192-.232.12-.416.308-.552.564-.128.256-.192.584-.192.984V29h-1.872v-6.456h1.788v1.788l-.336-.54c.232-.432.564-.764.996-.996.432-.232.924-.348 1.476-.348Zm7.624 6.648c-.736 0-1.384-.144-1.944-.432a3.208 3.208 0 0 1-1.284-1.176 3.257 3.257 0 0 1-.456-1.716c0-.648.148-1.22.444-1.716a3.176 3.176 0 0 1 1.236-1.176c.52-.288 1.108-.432 1.764-.432.632 0 1.2.136 1.704.408.512.264.916.648 1.212 1.152.296.496.444 1.092.444 1.788 0 .072-.004.156-.012.252l-.024.252h-5.244v-1.092h4.26l-.72.324c0-.336-.068-.628-.204-.876a1.447 1.447 0 0 0-.564-.576 1.601 1.601 0 0 0-.84-.216c-.32 0-.604.072-.852.216-.24.136-.428.332-.564.588a1.82 1.82 0 0 0-.204.888v.288c0 .352.076.664.228.936.16.264.38.468.66.612.288.136.624.204 1.008.204.344 0 .644-.052.9-.156a2.19 2.19 0 0 0 .72-.468l.996 1.08a2.958 2.958 0 0 1-1.116.78c-.448.176-.964.264-1.548.264Zm6.538 0a6.556 6.556 0 0 1-1.596-.192c-.504-.136-.904-.304-1.2-.504l.624-1.344a4.324 4.324 0 0 0 2.244.624c.432 0 .736-.052.912-.156.184-.104.276-.248.276-.432 0-.152-.072-.264-.216-.336-.136-.08-.32-.14-.552-.18-.232-.04-.488-.08-.768-.12-.272-.04-.548-.092-.828-.156a2.974 2.974 0 0 1-.768-.312 1.62 1.62 0 0 1-.564-.552c-.136-.232-.204-.532-.204-.9 0-.408.116-.768.348-1.08.24-.312.584-.556 1.032-.732.448-.184.984-.276 1.608-.276.44 0 .888.048 1.344.144.456.096.836.236 1.14.42l-.624 1.332a3.035 3.035 0 0 0-.948-.372 4.05 4.05 0 0 0-.912-.108c-.416 0-.72.056-.912.168-.192.112-.288.256-.288.432 0 .16.068.28.204.36.144.08.332.144.564.192.232.048.484.092.756.132.28.032.56.084.84.156.28.072.532.176.756.312.232.128.42.308.564.54.144.224.216.52.216.888 0 .4-.12.756-.36 1.068-.24.304-.588.544-1.044.72-.448.176-.996.264-1.644.264Zm6.375 0a6.556 6.556 0 0 1-1.596-.192c-.504-.136-.904-.304-1.2-.504l.624-1.344a4.324 4.324 0 0 0 2.244.624c.432 0 .736-.052.912-.156.184-.104.276-.248.276-.432 0-.152-.072-.264-.216-.336-.136-.08-.32-.14-.552-.18-.232-.04-.488-.08-.768-.12-.272-.04-.548-.092-.828-.156a2.974 2.974 0 0 1-.768-.312 1.62 1.62 0 0 1-.564-.552c-.136-.232-.204-.532-.204-.9 0-.408.116-.768.348-1.08.24-.312.584-.556 1.032-.732.448-.184.984-.276 1.608-.276.44 0 .888.048 1.344.144.456.096.836.236 1.14.42l-.624 1.332a3.035 3.035 0 0 0-.948-.372 4.05 4.05 0 0 0-.912-.108c-.416 0-.72.056-.912.168-.192.112-.288.256-.288.432 0 .16.068.28.204.36.144.08.332.144.564.192.232.048.484.092.756.132.28.032.56.084.84.156.28.072.532.176.756.312.232.128.42.308.564.54.144.224.216.52.216.888 0 .4-.12.756-.36 1.068-.24.304-.588.544-1.044.72-.448.176-.996.264-1.644.264Zm8.163-.096v-1.26l-.12-.276v-2.256c0-.4-.124-.712-.372-.936-.24-.224-.612-.336-1.116-.336-.344 0-.684.056-1.02.168a2.603 2.603 0 0 0-.84.432l-.672-1.308c.352-.248.776-.44 1.272-.576.496-.136 1-.204 1.512-.204.984 0 1.748.232 2.292.696.544.464.816 1.188.816 2.172V29h-1.752Zm-1.968.096c-.504 0-.936-.084-1.296-.252a2.01 2.01 0 0 1-.828-.708 1.79 1.79 0 0 1-.288-.996c0-.384.092-.72.276-1.008.192-.288.492-.512.9-.672.408-.168.94-.252 1.596-.252h1.716V26.3h-1.512c-.44 0-.744.072-.912.216a.696.696 0 0 0-.24.54c0 .24.092.432.276.576.192.136.452.204.78.204.312 0 .592-.072.84-.216.248-.152.428-.372.54-.66l.288.864a1.671 1.671 0 0 1-.744.948c-.36.216-.824.324-1.392.324ZM25.82 46.424c-.288 0-.564-.032-.829-.096a1.968 1.968 0 0 1-.671-.264l.503-1.356c.216.152.48.228.793.228.232 0 .416-.08.552-.24.143-.152.216-.384.216-.696v-6.456h1.872v6.444c0 .744-.212 1.336-.637 1.776-.424.44-1.023.66-1.8.66Zm1.5-9.78c-.345 0-.625-.1-.84-.3a.973.973 0 0 1-.325-.744c0-.296.108-.544.325-.744.215-.2.495-.3.84-.3.343 0 .623.096.84.288a.9.9 0 0 1 .323.72c0 .312-.108.572-.323.78-.209.2-.488.3-.84.3Zm5.731 7.452c-.688 0-1.3-.144-1.836-.432a3.363 3.363 0 0 1-1.26-1.176 3.257 3.257 0 0 1-.456-1.716c0-.648.152-1.22.456-1.716a3.24 3.24 0 0 1 1.26-1.176c.536-.288 1.148-.432 1.836-.432.68 0 1.288.144 1.824.432.536.28.956.668 1.26 1.164.304.496.456 1.072.456 1.728 0 .64-.152 1.212-.456 1.716a3.248 3.248 0 0 1-1.26 1.176c-.536.288-1.144.432-1.824.432Zm0-1.536c.312 0 .592-.072.84-.216.248-.144.444-.348.588-.612.144-.272.216-.592.216-.96 0-.376-.072-.696-.216-.96a1.548 1.548 0 0 0-.588-.612 1.642 1.642 0 0 0-.84-.216c-.312 0-.592.072-.84.216a1.633 1.633 0 0 0-.6.612c-.144.264-.216.584-.216.96 0 .368.072.688.216.96.152.264.352.468.6.612.248.144.528.216.84.216ZM37.842 44v-6.456h1.788v1.824l-.252-.528c.193-.456.5-.8.925-1.032.424-.24.94-.36 1.547-.36v1.728a2.191 2.191 0 0 0-.215-.012 1.647 1.647 0 0 0-.204-.012c-.512 0-.928.148-1.248.444-.313.288-.468.74-.468 1.356V44h-1.873Zm9.057-6.552c.512 0 .968.104 1.368.312.408.2.728.512.96.936.232.416.348.952.348 1.608V44h-1.872v-3.408c0-.52-.116-.904-.348-1.152-.224-.248-.544-.372-.96-.372-.296 0-.564.064-.804.192-.232.12-.416.308-.552.564-.128.256-.192.584-.192.984V44h-1.872v-6.456h1.788v1.788l-.336-.54c.232-.432.564-.764.996-.996.432-.232.924-.348 1.476-.348ZM55.232 44v-1.26l-.12-.276v-2.256c0-.4-.124-.712-.372-.936-.24-.224-.612-.336-1.116-.336-.344 0-.684.056-1.02.168a2.603 2.603 0 0 0-.84.432l-.672-1.308c.352-.248.776-.44 1.272-.576.496-.136 1-.204 1.512-.204.984 0 1.748.232 2.292.696.544.464.816 1.188.816 2.172V44h-1.752Zm-1.968.096c-.504 0-.936-.084-1.296-.252a2.01 2.01 0 0 1-.828-.708 1.79 1.79 0 0 1-.288-.996c0-.384.092-.72.276-1.008.192-.288.492-.512.9-.672.408-.168.94-.252 1.596-.252h1.716V41.3h-1.512c-.44 0-.744.072-.912.216a.696.696 0 0 0-.24.54c0 .24.092.432.276.576.192.136.452.204.78.204.312 0 .592-.072.84-.216.248-.152.428-.372.54-.66l.288.864a1.671 1.671 0 0 1-.744.948c-.36.216-.824.324-1.392.324Zm8.233 0a3.319 3.319 0 0 1-1.644-.408 3.126 3.126 0 0 1-1.164-1.164c-.28-.496-.42-1.08-.42-1.752 0-.68.14-1.268.42-1.764.288-.496.676-.88 1.164-1.152a3.319 3.319 0 0 1 1.644-.408c.544 0 1.02.12 1.428.36.408.24.724.604.948 1.092.224.488.336 1.112.336 1.872 0 .752-.108 1.376-.324 1.872-.216.488-.528.852-.936 1.092-.4.24-.884.36-1.452.36Zm.324-1.536c.304 0 .58-.072.828-.216.248-.144.444-.348.588-.612.152-.272.228-.592.228-.96 0-.376-.076-.696-.228-.96a1.548 1.548 0 0 0-.588-.612 1.619 1.619 0 0 0-.828-.216c-.312 0-.592.072-.84.216a1.633 1.633 0 0 0-.6.612c-.144.264-.216.584-.216.96 0 .368.072.688.216.96.152.264.352.468.6.612.248.144.528.216.84.216ZM63.513 44v-1.32l.036-1.92-.12-1.908v-3.756h1.872V44h-1.788Zm7.48 0v-1.26l-.12-.276v-2.256c0-.4-.123-.712-.371-.936-.24-.224-.612-.336-1.116-.336-.344 0-.684.056-1.02.168a2.603 2.603 0 0 0-.84.432l-.672-1.308c.352-.248.776-.44 1.272-.576.496-.136 1-.204 1.512-.204.984 0 1.748.232 2.292.696.544.464.816 1.188.816 2.172V44h-1.752Zm-1.967.096c-.504 0-.936-.084-1.296-.252a2.01 2.01 0 0 1-.828-.708 1.79 1.79 0 0 1-.288-.996c0-.384.092-.72.276-1.008.192-.288.492-.512.9-.672.408-.168.94-.252 1.596-.252h1.716V41.3H69.59c-.44 0-.744.072-.912.216a.696.696 0 0 0-.24.54c0 .24.092.432.276.576.192.136.452.204.78.204.312 0 .592-.072.84-.216.248-.152.428-.372.54-.66l.288.864a1.671 1.671 0 0 1-.744.948c-.36.216-.824.324-1.392.324Zm12.629 0c-.544 0-1.02-.12-1.428-.36-.408-.24-.728-.604-.96-1.092-.224-.496-.336-1.12-.336-1.872 0-.76.108-1.384.324-1.872.216-.488.528-.852.936-1.092.408-.24.896-.36 1.464-.36.608 0 1.152.14 1.632.42.488.272.872.656 1.152 1.152.288.496.432 1.08.432 1.752 0 .68-.144 1.268-.432 1.764-.28.496-.664.88-1.152 1.152a3.252 3.252 0 0 1-1.632.408Zm-3.816 2.232v-8.784h1.788v1.32l-.036 1.92.12 1.908v3.636h-1.872Zm3.492-3.768c.312 0 .588-.072.828-.216.248-.144.444-.348.588-.612.152-.272.228-.592.228-.96 0-.376-.076-.696-.228-.96a1.548 1.548 0 0 0-.588-.612 1.578 1.578 0 0 0-.828-.216c-.312 0-.592.072-.84.216a1.548 1.548 0 0 0-.588.612c-.144.264-.216.584-.216.96 0 .368.072.688.216.96.144.264.34.468.588.612.248.144.528.216.84.216ZM89.978 44v-1.26l-.12-.276v-2.256c0-.4-.124-.712-.372-.936-.24-.224-.612-.336-1.116-.336-.344 0-.684.056-1.02.168a2.603 2.603 0 0 0-.84.432l-.672-1.308c.352-.248.776-.44 1.272-.576.496-.136 1-.204 1.512-.204.984 0 1.748.232 2.292.696.544.464.816 1.188.816 2.172V44h-1.752Zm-1.968.096c-.504 0-.936-.084-1.296-.252a2.01 2.01 0 0 1-.828-.708 1.79 1.79 0 0 1-.288-.996c0-.384.092-.72.276-1.008.192-.288.492-.512.9-.672.408-.168.94-.252 1.596-.252h1.716V41.3h-1.512c-.44 0-.744.072-.912.216a.696.696 0 0 0-.24.54c0 .24.092.432.276.576.192.136.452.204.78.204.312 0 .592-.072.84-.216.248-.152.428-.372.54-.66l.288.864a1.671 1.671 0 0 1-.744.948c-.36.216-.824.324-1.392.324ZM93.424 44v-6.456h1.788v1.824l-.252-.528c.193-.456.5-.8.925-1.032.423-.24.94-.36 1.547-.36v1.728a2.191 2.191 0 0 0-.216-.012 1.647 1.647 0 0 0-.203-.012c-.513 0-.928.148-1.249.444-.311.288-.468.74-.468 1.356V44h-1.872Zm8.66 0v-1.26l-.12-.276v-2.256c0-.4-.124-.712-.372-.936-.24-.224-.612-.336-1.116-.336-.344 0-.684.056-1.02.168a2.603 2.603 0 0 0-.84.432l-.672-1.308c.352-.248.776-.44 1.272-.576.496-.136 1-.204 1.512-.204.984 0 1.748.232 2.292.696.544.464.816 1.188.816 2.172V44h-1.752Zm-1.968.096c-.504 0-.936-.084-1.296-.252a2.01 2.01 0 0 1-.828-.708 1.79 1.79 0 0 1-.288-.996c0-.384.092-.72.276-1.008.192-.288.492-.512.9-.672.408-.168.94-.252 1.596-.252h1.716V41.3h-1.512c-.44 0-.744.072-.912.216a.696.696 0 0 0-.24.54c0 .24.092.432.276.576.192.136.452.204.78.204.312 0 .592-.072.84-.216.248-.152.428-.372.54-.66l.288.864a1.671 1.671 0 0 1-.744.948c-.36.216-.824.324-1.392.324Zm11.584 0a3.319 3.319 0 0 1-1.644-.408 3.126 3.126 0 0 1-1.164-1.164c-.28-.496-.42-1.08-.42-1.752 0-.68.14-1.268.42-1.764.288-.496.676-.88 1.164-1.152a3.319 3.319 0 0 1 1.644-.408c.544 0 1.02.12 1.428.36.408.24.724.604.948 1.092.224.488.336 1.112.336 1.872 0 .752-.108 1.376-.324 1.872-.216.488-.528.852-.936 1.092-.4.24-.884.36-1.452.36Zm.324-1.536c.304 0 .58-.072.828-.216.248-.144.444-.348.588-.612.152-.272.228-.592.228-.96 0-.376-.076-.696-.228-.96a1.548 1.548 0 0 0-.588-.612 1.619 1.619 0 0 0-.828-.216c-.312 0-.592.072-.84.216a1.633 1.633 0 0 0-.6.612c-.144.264-.216.584-.216.96 0 .368.072.688.216.96.152.264.352.468.6.612.248.144.528.216.84.216Zm1.692 1.44v-1.32l.036-1.92-.12-1.908v-3.756h1.872V44h-1.788Zm6.725.096c-.736 0-1.384-.144-1.944-.432a3.208 3.208 0 0 1-1.284-1.176 3.257 3.257 0 0 1-.456-1.716c0-.648.148-1.22.444-1.716a3.176 3.176 0 0 1 1.236-1.176c.52-.288 1.108-.432 1.764-.432.632 0 1.2.136 1.704.408.512.264.916.648 1.212 1.152.296.496.444 1.092.444 1.788 0 .072-.004.156-.012.252l-.024.252h-5.244v-1.092h4.26l-.72.324c0-.336-.068-.628-.204-.876a1.447 1.447 0 0 0-.564-.576 1.601 1.601 0 0 0-.84-.216c-.32 0-.604.072-.852.216-.24.136-.428.332-.564.588a1.82 1.82 0 0 0-.204.888v.288c0 .352.076.664.228.936.16.264.38.468.66.612.288.136.624.204 1.008.204.344 0 .644-.052.9-.156a2.19 2.19 0 0 0 .72-.468l.996 1.08a2.958 2.958 0 0 1-1.116.78c-.448.176-.964.264-1.548.264Zm4.366-.096v-6.456h1.872V44h-1.872Zm.936-7.356c-.344 0-.624-.1-.84-.3a.973.973 0 0 1-.324-.744c0-.296.108-.544.324-.744.216-.2.496-.3.84-.3s.624.096.84.288a.9.9 0 0 1 .324.72c0 .312-.108.572-.324.78-.208.2-.488.3-.84.3ZM127.601 44l2.892-3.792-.036 1.032-2.772-3.696h2.1l1.752 2.412-.792.024 1.812-2.436h1.992l-2.784 3.66v-1.008l2.88 3.804h-2.124l-1.836-2.568.78.108-1.824 2.46h-2.04Zm11.795 0v-1.26l-.12-.276v-2.256c0-.4-.124-.712-.372-.936-.24-.224-.612-.336-1.116-.336-.344 0-.684.056-1.02.168a2.603 2.603 0 0 0-.84.432l-.672-1.308c.352-.248.776-.44 1.272-.576.496-.136 1-.204 1.512-.204.984 0 1.748.232 2.292.696.544.464.816 1.188.816 2.172V44h-1.752Zm-1.968.096c-.504 0-.936-.084-1.296-.252a2.01 2.01 0 0 1-.828-.708 1.79 1.79 0 0 1-.288-.996c0-.384.092-.72.276-1.008.192-.288.492-.512.9-.672.408-.168.94-.252 1.596-.252h1.716V41.3h-1.512c-.44 0-.744.072-.912.216a.696.696 0 0 0-.24.54c0 .24.092.432.276.576.192.136.452.204.78.204.312 0 .592-.072.84-.216.248-.152.428-.372.54-.66l.288.864a1.671 1.671 0 0 1-.744.948c-.36.216-.824.324-1.392.324Zm5.415-.096v-6.456h1.788v1.824l-.252-.528c.192-.456.5-.8.924-1.032.424-.24.94-.36 1.548-.36v1.728a2.191 2.191 0 0 0-.216-.012 1.647 1.647 0 0 0-.204-.012c-.512 0-.928.148-1.248.444-.312.288-.468.74-.468 1.356V44h-1.872Zm10.738.096a6.556 6.556 0 0 1-1.596-.192c-.504-.136-.904-.304-1.2-.504l.624-1.344a4.324 4.324 0 0 0 2.244.624c.432 0 .736-.052.912-.156.184-.104.276-.248.276-.432 0-.152-.072-.264-.216-.336-.136-.08-.32-.14-.552-.18-.232-.04-.488-.08-.768-.12-.272-.04-.548-.092-.828-.156a2.974 2.974 0 0 1-.768-.312 1.62 1.62 0 0 1-.564-.552c-.136-.232-.204-.532-.204-.9 0-.408.116-.768.348-1.08.24-.312.584-.556 1.032-.732.448-.184.984-.276 1.608-.276.44 0 .888.048 1.344.144.456.096.836.236 1.14.42l-.624 1.332a3.035 3.035 0 0 0-.948-.372 4.05 4.05 0 0 0-.912-.108c-.416 0-.72.056-.912.168-.192.112-.288.256-.288.432 0 .16.068.28.204.36.144.08.332.144.564.192.232.048.484.092.756.132.28.032.56.084.84.156.28.072.532.176.756.312.232.128.42.308.564.54.144.224.216.52.216.888 0 .4-.12.756-.36 1.068-.24.304-.588.544-1.044.72-.448.176-.996.264-1.644.264Zm6.927 0a3.227 3.227 0 0 1-1.44-.312 2.223 2.223 0 0 1-.972-.948c-.232-.432-.348-.98-.348-1.644v-3.648h1.872v3.372c0 .536.112.932.336 1.188.232.248.556.372.972.372a1.6 1.6 0 0 0 .768-.18c.224-.128.4-.32.528-.576.128-.264.192-.592.192-.984v-3.192h1.872V44h-1.776v-1.776l.324.516a2.24 2.24 0 0 1-.96 1.02 2.84 2.84 0 0 1-1.368.336Zm9.474-.096v-1.26l-.12-.276v-2.256c0-.4-.124-.712-.372-.936-.24-.224-.612-.336-1.116-.336-.344 0-.684.056-1.02.168a2.603 2.603 0 0 0-.84.432l-.672-1.308c.352-.248.776-.44 1.272-.576.496-.136 1-.204 1.512-.204.984 0 1.748.232 2.292.696.544.464.816 1.188.816 2.172V44h-1.752Zm-1.968.096c-.504 0-.936-.084-1.296-.252a2.01 2.01 0 0 1-.828-.708 1.79 1.79 0 0 1-.288-.996c0-.384.092-.72.276-1.008.192-.288.492-.512.9-.672.408-.168.94-.252 1.596-.252h1.716V41.3h-1.512c-.44 0-.744.072-.912.216a.696.696 0 0 0-.24.54c0 .24.092.432.276.576.192.136.452.204.78.204.312 0 .592-.072.84-.216.248-.152.428-.372.54-.66l.288.864a1.671 1.671 0 0 1-.744.948c-.36.216-.824.324-1.392.324Zm-140.025 15c-.544 0-1.02-.12-1.428-.36-.408-.24-.728-.604-.96-1.092-.224-.496-.336-1.12-.336-1.872 0-.76.108-1.384.324-1.872.216-.488.528-.852.936-1.092.408-.24.896-.36 1.464-.36.608 0 1.152.14 1.632.42.488.272.872.656 1.152 1.152.288.496.432 1.08.432 1.752 0 .68-.144 1.268-.432 1.764-.28.496-.664.88-1.152 1.152a3.252 3.252 0 0 1-1.632.408Zm-3.816 2.232v-8.784h1.788v1.32l-.036 1.92.12 1.908v3.636h-1.872Zm3.492-3.768c.312 0 .588-.072.828-.216.248-.144.444-.348.588-.612.152-.272.228-.592.228-.96 0-.376-.076-.696-.228-.96a1.548 1.548 0 0 0-.588-.612 1.578 1.578 0 0 0-.828-.216c-.312 0-.592.072-.84.216a1.548 1.548 0 0 0-.588.612c-.144.264-.216.584-.216.96 0 .368.072.688.216.96.144.264.34.468.588.612.248.144.528.216.84.216Zm7.997 1.536c-.736 0-1.384-.144-1.944-.432a3.208 3.208 0 0 1-1.284-1.176 3.257 3.257 0 0 1-.456-1.716c0-.648.148-1.22.444-1.716a3.176 3.176 0 0 1 1.236-1.176c.52-.288 1.108-.432 1.764-.432.632 0 1.2.136 1.704.408.512.264.916.648 1.212 1.152.296.496.444 1.092.444 1.788 0 .072-.004.156-.012.252l-.024.252h-5.244v-1.092h4.26l-.72.324c0-.336-.068-.628-.204-.876a1.447 1.447 0 0 0-.564-.576 1.601 1.601 0 0 0-.84-.216c-.32 0-.604.072-.852.216-.24.136-.428.332-.564.588a1.82 1.82 0 0 0-.204.888v.288c0 .352.076.664.228.936.16.264.38.468.66.612.288.136.624.204 1.008.204.344 0 .644-.052.9-.156a2.19 2.19 0 0 0 .72-.468l.996 1.08a2.958 2.958 0 0 1-1.116.78c-.448.176-.964.264-1.548.264ZM40.028 59v-8.904H41.9V59h-1.872Zm6.813.096c-.736 0-1.384-.144-1.944-.432a3.208 3.208 0 0 1-1.284-1.176 3.257 3.257 0 0 1-.456-1.716c0-.648.148-1.22.444-1.716a3.176 3.176 0 0 1 1.236-1.176c.52-.288 1.108-.432 1.764-.432.632 0 1.2.136 1.704.408.512.264.916.648 1.212 1.152.296.496.444 1.092.444 1.788 0 .072-.004.156-.012.252l-.024.252h-5.244v-1.092h4.26l-.72.324c0-.336-.068-.628-.204-.876a1.447 1.447 0 0 0-.564-.576 1.601 1.601 0 0 0-.84-.216c-.32 0-.604.072-.852.216-.24.136-.428.332-.564.588a1.82 1.82 0 0 0-.204.888v.288c0 .352.076.664.228.936.16.264.38.468.66.612.288.136.624.204 1.008.204.344 0 .644-.052.9-.156a2.19 2.19 0 0 0 .72-.468l.996 1.08a2.958 2.958 0 0 1-1.116.78c-.448.176-.964.264-1.548.264ZM58.566 59v-1.26l-.12-.276v-2.256c0-.4-.124-.712-.372-.936-.24-.224-.612-.336-1.116-.336-.344 0-.684.056-1.02.168a2.603 2.603 0 0 0-.84.432l-.672-1.308c.352-.248.776-.44 1.272-.576.496-.136 1-.204 1.512-.204.984 0 1.748.232 2.292.696.544.464.816 1.188.816 2.172V59h-1.752Zm-1.968.096c-.504 0-.936-.084-1.296-.252a2.01 2.01 0 0 1-.828-.708 1.79 1.79 0 0 1-.288-.996c0-.384.092-.72.276-1.008.192-.288.492-.512.9-.672.408-.168.94-.252 1.596-.252h1.716V56.3h-1.512c-.44 0-.744.072-.912.216a.696.696 0 0 0-.24.54c0 .24.092.432.276.576.192.136.452.204.78.204.312 0 .592-.072.84-.216.248-.152.428-.372.54-.66l.288.864a1.671 1.671 0 0 1-.744.948c-.36.216-.824.324-1.392.324ZM62.012 59v-6.456h1.872V59h-1.872Zm.936-7.356c-.344 0-.624-.1-.84-.3a.973.973 0 0 1-.324-.744c0-.296.108-.544.324-.744.216-.2.496-.3.84-.3s.624.096.84.288a.9.9 0 0 1 .324.72c0 .312-.108.572-.324.78-.208.2-.488.3-.84.3Zm6.598.804c.512 0 .968.104 1.368.312.408.2.728.512.96.936.232.416.348.952.348 1.608V59H70.35v-3.408c0-.52-.116-.904-.348-1.152-.224-.248-.544-.372-.96-.372-.296 0-.564.064-.804.192-.232.12-.416.308-.552.564-.128.256-.192.584-.192.984V59h-1.872v-6.456h1.788v1.788l-.336-.54c.232-.432.564-.764.996-.996.432-.232.924-.348 1.476-.348Zm7.192 6.648a3.319 3.319 0 0 1-1.644-.408 3.126 3.126 0 0 1-1.164-1.164c-.28-.496-.42-1.08-.42-1.752 0-.68.14-1.268.42-1.764.288-.496.676-.88 1.164-1.152a3.319 3.319 0 0 1 1.644-.408c.544 0 1.02.12 1.428.36.408.24.724.604.948 1.092.224.488.336 1.112.336 1.872 0 .752-.108 1.376-.324 1.872-.216.488-.528.852-.936 1.092-.4.24-.884.36-1.452.36Zm.324-1.536c.304 0 .58-.072.828-.216.248-.144.444-.348.588-.612.152-.272.228-.592.228-.96 0-.376-.076-.696-.228-.96a1.548 1.548 0 0 0-.588-.612 1.619 1.619 0 0 0-.828-.216c-.312 0-.592.072-.84.216a1.633 1.633 0 0 0-.6.612c-.144.264-.216.584-.216.96 0 .368.072.688.216.96.152.264.352.468.6.612.248.144.528.216.84.216ZM78.754 59v-1.32l.036-1.92-.12-1.908v-3.756h1.872V59h-1.788Zm7.48 0v-1.26l-.12-.276v-2.256c0-.4-.124-.712-.372-.936-.24-.224-.612-.336-1.116-.336-.344 0-.684.056-1.02.168a2.603 2.603 0 0 0-.84.432l-.672-1.308c.352-.248.776-.44 1.272-.576.496-.136 1-.204 1.512-.204.984 0 1.748.232 2.292.696.544.464.816 1.188.816 2.172V59h-1.752Zm-1.968.096c-.504 0-.936-.084-1.296-.252a2.01 2.01 0 0 1-.828-.708 1.79 1.79 0 0 1-.288-.996c0-.384.092-.72.276-1.008.192-.288.492-.512.9-.672.408-.168.94-.252 1.596-.252h1.716V56.3H84.83c-.44 0-.744.072-.912.216a.696.696 0 0 0-.24.54c0 .24.092.432.276.576.192.136.452.204.78.204.312 0 .592-.072.84-.216.248-.152.428-.372.54-.66l.288.864a1.671 1.671 0 0 1-.744.948c-.36.216-.824.324-1.392.324Zm17.081-6.648c.512 0 .964.104 1.356.312.4.2.712.512.936.936.232.416.348.952.348 1.608V59h-1.872v-3.408c0-.52-.108-.904-.324-1.152-.216-.248-.52-.372-.912-.372-.272 0-.516.064-.732.192-.216.12-.384.304-.504.552-.12.248-.18.564-.18.948V59H97.59v-3.408c0-.52-.108-.904-.324-1.152-.208-.248-.508-.372-.9-.372-.272 0-.516.064-.732.192-.216.12-.384.304-.504.552-.12.248-.18.564-.18.948V59h-1.872v-6.456h1.788v1.764l-.336-.516c.224-.44.54-.772.948-.996a2.857 2.857 0 0 1 1.416-.348c.592 0 1.108.152 1.548.456.448.296.744.752.888 1.368l-.66-.18c.216-.504.56-.904 1.032-1.2.48-.296 1.028-.444 1.644-.444ZM109.625 59v-1.26l-.12-.276v-2.256c0-.4-.124-.712-.372-.936-.24-.224-.612-.336-1.116-.336-.344 0-.684.056-1.02.168a2.603 2.603 0 0 0-.84.432l-.672-1.308c.352-.248.776-.44 1.272-.576.496-.136 1-.204 1.512-.204.984 0 1.748.232 2.292.696.544.464.816 1.188.816 2.172V59h-1.752Zm-1.968.096c-.504 0-.936-.084-1.296-.252a2.01 2.01 0 0 1-.828-.708 1.79 1.79 0 0 1-.288-.996c0-.384.092-.72.276-1.008.192-.288.492-.512.9-.672.408-.168.94-.252 1.596-.252h1.716V56.3h-1.512c-.44 0-.744.072-.912.216a.696.696 0 0 0-.24.54c0 .24.092.432.276.576.192.136.452.204.78.204.312 0 .592-.072.84-.216.248-.152.428-.372.54-.66l.288.864a1.671 1.671 0 0 1-.744.948c-.36.216-.824.324-1.392.324Zm5.414-.096v-6.456h1.872V59h-1.872Zm.936-7.356c-.344 0-.624-.1-.84-.3a.973.973 0 0 1-.324-.744c0-.296.108-.544.324-.744.216-.2.496-.3.84-.3s.624.096.84.288a.9.9 0 0 1 .324.72c0 .312-.108.572-.324.78-.208.2-.488.3-.84.3Zm4.845 7.452a6.556 6.556 0 0 1-1.596-.192c-.504-.136-.904-.304-1.2-.504l.624-1.344a4.324 4.324 0 0 0 2.244.624c.432 0 .736-.052.912-.156.184-.104.276-.248.276-.432 0-.152-.072-.264-.216-.336-.136-.08-.32-.14-.552-.18-.232-.04-.488-.08-.768-.12-.272-.04-.548-.092-.828-.156a2.974 2.974 0 0 1-.768-.312 1.62 1.62 0 0 1-.564-.552c-.136-.232-.204-.532-.204-.9 0-.408.116-.768.348-1.08.24-.312.584-.556 1.032-.732.448-.184.984-.276 1.608-.276.44 0 .888.048 1.344.144.456.096.836.236 1.14.42l-.624 1.332a3.035 3.035 0 0 0-.948-.372 4.05 4.05 0 0 0-.912-.108c-.416 0-.72.056-.912.168-.192.112-.288.256-.288.432 0 .16.068.28.204.36.144.08.332.144.564.192.232.048.484.092.756.132.28.032.56.084.84.156.28.072.532.176.756.312.232.128.42.308.564.54.144.224.216.52.216.888 0 .4-.12.756-.36 1.068-.24.304-.588.544-1.044.72-.448.176-.996.264-1.644.264Zm7.602-.096v-6.456h1.872V59h-1.872Zm.936-7.356c-.344 0-.624-.1-.84-.3a.973.973 0 0 1-.324-.744c0-.296.108-.544.324-.744.216-.2.496-.3.84-.3s.624.096.84.288a.9.9 0 0 1 .324.72c0 .312-.108.572-.324.78-.208.2-.488.3-.84.3Zm6.597.804c.512 0 .968.104 1.368.312.408.2.728.512.96.936.232.416.348.952.348 1.608V59h-1.872v-3.408c0-.52-.116-.904-.348-1.152-.224-.248-.544-.372-.96-.372-.296 0-.564.064-.804.192-.232.12-.416.308-.552.564-.128.256-.192.584-.192.984V59h-1.872v-6.456h1.788v1.788l-.336-.54c.232-.432.564-.764.996-.996.432-.232.924-.348 1.476-.348Zm7.54 6.648c-.696 0-1.316-.14-1.86-.42a3.286 3.286 0 0 1-1.284-1.188 3.257 3.257 0 0 1-.456-1.716c0-.648.152-1.22.456-1.716a3.2 3.2 0 0 1 1.284-1.176c.544-.288 1.164-.432 1.86-.432.68 0 1.272.144 1.776.432.504.28.876.684 1.116 1.212l-1.452.78a1.67 1.67 0 0 0-.636-.672 1.596 1.596 0 0 0-.816-.216c-.32 0-.608.072-.864.216-.256.144-.46.348-.612.612-.144.264-.216.584-.216.96s.072.696.216.96c.152.264.356.468.612.612.256.144.544.216.864.216.296 0 .568-.068.816-.204.256-.144.468-.372.636-.684l1.452.792c-.24.52-.612.924-1.116 1.212-.504.28-1.096.42-1.776.42Zm3.97-.096v-6.456h1.788v1.824l-.252-.528c.192-.456.5-.8.924-1.032.424-.24.94-.36 1.548-.36v1.728a2.191 2.191 0 0 0-.216-.012 1.647 1.647 0 0 0-.204-.012c-.512 0-.928.148-1.248.444-.312.288-.468.74-.468 1.356V59h-1.872Zm5.133 0v-6.456h1.872V59h-1.872Zm-.156-7.284 1.62-1.728h2.016l-2.172 1.728h-1.464ZM155.991 59l-2.712-6.456h1.932l2.256 5.556h-.96l2.34-5.556h1.8L157.923 59h-1.932Zm8.448.096c-.736 0-1.384-.144-1.944-.432a3.208 3.208 0 0 1-1.284-1.176 3.257 3.257 0 0 1-.456-1.716c0-.648.148-1.22.444-1.716a3.176 3.176 0 0 1 1.236-1.176c.52-.288 1.108-.432 1.764-.432.632 0 1.2.136 1.704.408.512.264.916.648 1.212 1.152.296.496.444 1.092.444 1.788 0 .072-.004.156-.012.252l-.024.252h-5.244v-1.092h4.26l-.72.324c0-.336-.068-.628-.204-.876a1.447 1.447 0 0 0-.564-.576 1.601 1.601 0 0 0-.84-.216c-.32 0-.604.072-.852.216-.24.136-.428.332-.564.588a1.82 1.82 0 0 0-.204.888v.288c0 .352.076.664.228.936.16.264.38.468.66.612.288.136.624.204 1.008.204.344 0 .644-.052.9-.156a2.19 2.19 0 0 0 .72-.468l.996 1.08a2.958 2.958 0 0 1-1.116.78c-.448.176-.964.264-1.548.264Zm4.366-.096v-8.904h1.872V59h-1.872Zm4.318.096c-.32 0-.596-.108-.828-.324a1.154 1.154 0 0 1-.336-.852c0-.344.112-.62.336-.828.232-.216.508-.324.828-.324.328 0 .604.108.828.324.224.208.336.484.336.828s-.112.628-.336.852c-.224.216-.5.324-.828.324Z" fill="#3A3A3A" style="--darkreader-inline-fill: #2c2f31;" data-darkreader-inline-fill=""/></svg>