<svg xmlns="http://www.w3.org/2000/svg" fill="none" viewBox="17.79 48.5 191.01 141.5">
    <path fill="url(#a)"
        d="M51.69 72.227c0 10.871 9.38 18.027 20.945 15.988 11.564-2.039 20.944-12.503 20.944-23.375s-9.38-18.028-20.944-15.989C61.07 50.891 51.69 61.354 51.69 72.227Z" />
    <path fill="url(#b)"
        d="M57.107 71.38c0 9.087 7.84 15.073 17.512 13.373 9.672-1.7 17.513-10.457 17.513-19.544S84.29 50.136 74.618 51.836c-9.672 1.709-17.512 10.457-17.512 19.544Z" />
    <path fill="#A06B24"
        d="M84.491 83.595c8.87-6.967 11.397-18.55 5.645-25.872-5.75-7.321-17.603-7.61-26.472-.643-8.869 6.966-11.396 18.55-5.645 25.871 5.75 7.322 17.603 7.61 26.472.644Z"
        style="--darkreader-inline-fill:#dcaa65" />
    <path fill="#462208" d="m82.383 132.812-43.334 4.693 12.28-28.53 94.255-14.081-63.2 37.918Z"
        style="--darkreader-inline-fill:#381b06" />
    <path fill="#845217"
        d="m39.049 137.505 10.926-1.185C58.639 126.748 59 109.775 59 109.775l-4.44-1.285-3.239.484-12.272 28.531Z"
        style="--darkreader-inline-fill:#e7b477" />
    <path fill="#EAAE73" stroke="#BC7D44" stroke-linecap="round" stroke-linejoin="round" stroke-miterlimit="10"
        stroke-width=".704" d="m53.49 109.698 92.094-14.804 61.393 10.11-93.717 17.336-59.77-12.642Z"
        style="--darkreader-inline-fill:#804913;--darkreader-inline-stroke:#c38a57" />
    <path fill="#462208" d="m69.388 109.698 78.798-11.365 41.818 6.671-78.005 13.365-42.61-8.671Z"
        style="--darkreader-inline-fill:#381b06" />
    <path fill="#8C4A1E"
        d="m113.26 122.34-59.77-12.642 7.226 46.32a7.096 7.096 0 0 0 5.224 5.77l41.688 10.788c3.57.923 7.317.954 10.91.085l75.205-18.244a6.694 6.694 0 0 0 4.993-5.27l8.233-44.143-93.709 17.336Z"
        style="--darkreader-inline-fill:#703b18" />
    <mask id="c" width="154" height="69" x="53" y="105" maskUnits="userSpaceOnUse" style="mask-type:luminance">
        <path fill="#fff"
            d="m113.26 122.34-59.77-12.642 7.226 46.32a7.096 7.096 0 0 0 5.224 5.77l42.596 11.019a18.76 18.76 0 0 0 9.095.069l75.973-18.428a6.89 6.89 0 0 0 5.155-5.44l8.21-44.004-93.709 17.336Z"
            style="--darkreader-inline-fill:#e8e6e3" />
    </mask>
    <g mask="url(#c)">
        <path fill="#7A350E" d="m107.936 148.431 96.695-20.313 1.084.816-97.779 21.937v-2.44Z"
            style="--darkreader-inline-fill:#622a0b" />
    </g>
    <mask id="d" width="154" height="69" x="53" y="105" maskUnits="userSpaceOnUse" style="mask-type:luminance">
        <path fill="#fff"
            d="m113.26 122.34-59.77-12.642 7.226 46.32a7.096 7.096 0 0 0 5.224 5.77l42.596 11.019a18.76 18.76 0 0 0 9.095.069l75.973-18.428a6.89 6.89 0 0 0 5.155-5.44l8.21-44.004-93.709 17.336Z"
            style="--darkreader-inline-fill:#e8e6e3" />
    </mask>
    <g mask="url(#d)">
        <path fill="#7A350E" d="m110.914 161.973 65.547-14.358 28.439-6.771-.27-2.708-93.716 23.837Z"
            style="--darkreader-inline-fill:#622a0b" />
    </g>
    <mask id="e" width="154" height="69" x="53" y="105" maskUnits="userSpaceOnUse" style="mask-type:luminance">
        <path fill="#fff"
            d="m113.26 122.34-59.77-12.642 7.226 46.32a7.096 7.096 0 0 0 5.224 5.77l42.596 11.019a18.76 18.76 0 0 0 9.095.069l75.973-18.428a6.89 6.89 0 0 0 5.155-5.44l8.21-44.004-93.709 17.336Z"
            style="--darkreader-inline-fill:#e8e6e3" />
    </mask>
    <g mask="url(#e)">
        <path fill="#7A350E"
            d="m53.49 109.698 59.77 12.642-.361 58.146-49.529-12.819a3.232 3.232 0 0 1-2.4-2.708l-7.48-55.261Z"
            style="--darkreader-inline-fill:#622a0b" />
    </g>
    <mask id="f" width="154" height="69" x="53" y="105" maskUnits="userSpaceOnUse" style="mask-type:luminance">
        <path fill="#fff"
            d="m113.26 122.34-59.77-12.642 7.226 46.32a7.096 7.096 0 0 0 5.224 5.77l42.596 11.019a18.76 18.76 0 0 0 9.095.069l75.973-18.428a6.89 6.89 0 0 0 5.155-5.44l8.21-44.004-93.709 17.336Z"
            style="--darkreader-inline-fill:#e8e6e3" />
    </mask>
    <g mask="url(#f)">
        <mask id="g" width="61" height="64" x="53" y="109" maskUnits="userSpaceOnUse" style="mask-type:luminance">
            <path fill="#fff"
                d="m53.49 109.698 59.77 12.642-.154 44.827c-.015 3.455-3.277 5.971-6.624 5.109l-37.41-9.68a11.996 11.996 0 0 1-8.849-9.764l-6.732-43.134Z"
                style="--darkreader-inline-fill:#e8e6e3" />
        </mask>
        <g mask="url(#g)">
            <path fill="#462208"
                d="m204.446 120.716-91.186 17.336-57.96-11.919s-3.61-4.332-3.971-6.863c-.362-2.532 2.17-6.864 2.17-6.864l59.769 12.642 93.717-17.335s1.808 2.531 1.808 6.14c0 3.609-4.347 6.863-4.347 6.863Z"
                style="--darkreader-inline-fill:#381b06" />
        </g>
        <mask id="h" width="61" height="64" x="53" y="109" maskUnits="userSpaceOnUse" style="mask-type:luminance">
            <path fill="#fff"
                d="m53.49 109.698 59.77 12.642-.154 44.827c-.015 3.455-3.277 5.971-6.624 5.109l-37.41-9.68a11.996 11.996 0 0 1-8.849-9.764l-6.732-43.134Z"
                style="--darkreader-inline-fill:#e8e6e3" />
        </mask>
        <g fill="#66290A" mask="url(#h)" style="--darkreader-inline-fill:#522108">
            <path
                d="M54.275 135.797 118.4 148.97l-63.478-10.58-.647-2.593Zm-.599 14.712 38.187 5.147 26.384 7.163-64.57-12.31Z" />
        </g>
    </g>
    <mask id="i" width="154" height="69" x="53" y="105" maskUnits="userSpaceOnUse" style="mask-type:luminance">
        <path fill="#fff"
            d="m113.26 122.34-59.77-12.642 7.226 46.32a7.096 7.096 0 0 0 5.224 5.77l42.596 11.019a18.76 18.76 0 0 0 9.095.069l75.973-18.428a6.89 6.89 0 0 0 5.155-5.44l8.21-44.004-93.709 17.336Z"
            style="--darkreader-inline-fill:#e8e6e3" />
    </mask>
    <g mask="url(#i)">
        <path fill="#A06B24"
            d="m118.909 130.503.123 31.501a3.325 3.325 0 0 0 4.139 3.216l64.609-16.15a6.887 6.887 0 0 0 5.125-5.579l4.416-27.214 11.65-.816-1.355 51.46-96.694 11.372.815-50.513 7.172 2.723Z"
            style="--darkreader-inline-fill:#80561d" />
    </g>
    <mask id="j" width="154" height="69" x="53" y="105" maskUnits="userSpaceOnUse" style="mask-type:luminance">
        <path fill="#fff"
            d="m113.26 122.34-59.77-12.642 7.226 46.32a7.096 7.096 0 0 0 5.224 5.77l42.596 11.019a18.76 18.76 0 0 0 9.095.069l75.973-18.428a6.89 6.89 0 0 0 5.155-5.44l8.21-44.004-93.709 17.336Z"
            style="--darkreader-inline-fill:#e8e6e3" />
    </mask>
    <g mask="url(#j)">
        <path fill="#845217"
            d="m114.93 174.607.239-44.011-7.287-.27v31.47c0 1.97-1.846 3.424-3.762 2.947l-34.324-8.464a3.032 3.032 0 0 1-2.278-2.531l-4.316-30.87-7.987-.269 3.478 41.164 56.237 10.834Z"
            style="--darkreader-inline-fill:#6a4212" />
    </g>
    <mask id="k" width="154" height="69" x="53" y="105" maskUnits="userSpaceOnUse" style="mask-type:luminance">
        <path fill="#fff"
            d="m113.26 122.34-59.77-12.642 7.226 46.32a7.096 7.096 0 0 0 5.224 5.77l42.596 11.019a18.76 18.76 0 0 0 9.095.069l75.973-18.428a6.89 6.89 0 0 0 5.155-5.44l8.21-44.004-93.709 17.336Z"
            style="--darkreader-inline-fill:#e8e6e3" />
    </mask>
    <g mask="url(#k)">
        <path fill="#BC833F"
            d="m120.532 131.765.123 31.501a3.325 3.325 0 0 0 4.14 3.216l64.609-16.151a6.882 6.882 0 0 0 5.124-5.578l4.417-27.215 11.649-.815-1.354 51.459-96.695 11.388.816-50.513 7.171 2.708Z"
            style="--darkreader-inline-fill:#966932" />
    </g>
    <mask id="l" width="154" height="69" x="53" y="105" maskUnits="userSpaceOnUse" style="mask-type:luminance">
        <path fill="#fff"
            d="m113.26 122.34-59.77-12.642 7.226 46.32a7.096 7.096 0 0 0 5.224 5.77l42.596 11.019a18.76 18.76 0 0 0 9.095.069l75.973-18.428a6.89 6.89 0 0 0 5.155-5.44l8.21-44.004-93.709 17.336Z"
            style="--darkreader-inline-fill:#e8e6e3" />
    </mask>
    <g mask="url(#l)">
        <path fill="#A06B24"
            d="m112.945 175.507.239-44.011-7.287-.27v31.47c0 1.97-1.847 3.424-3.762 2.947l-34.325-8.464a3.032 3.032 0 0 1-2.277-2.531l-4.317-30.87-7.986-.269 3.477 41.165 56.238 10.833Z"
            style="--darkreader-inline-fill:#80561d" />
    </g>
    <mask id="m" width="154" height="69" x="53" y="105" maskUnits="userSpaceOnUse" style="mask-type:luminance">
        <path fill="#fff"
            d="m113.26 122.34-59.77-12.642 7.226 46.32a7.096 7.096 0 0 0 5.224 5.77l42.596 11.019a18.76 18.76 0 0 0 9.095.069l75.973-18.428a6.89 6.89 0 0 0 5.155-5.44l8.21-44.004-93.709 17.336Z"
            style="--darkreader-inline-fill:#e8e6e3" />
    </mask>
    <g mask="url(#m)">
        <mask id="n" width="99" height="64" x="112" y="116" maskUnits="userSpaceOnUse" style="mask-type:luminance">
            <path fill="#fff"
                d="m120.532 131.765.123 31.501a3.325 3.325 0 0 0 4.14 3.216l64.609-16.151a6.882 6.882 0 0 0 5.124-5.578l4.417-27.215 11.649-.815-1.354 51.459-96.695 11.388.816-50.513 7.171 2.708Z"
                style="--darkreader-inline-fill:#e8e6e3" />
        </mask>
        <g mask="url(#n)">
            <path fill="#845217"
                d="m204.446 120.447-91.186 17.335-57.96-11.918s-3.61-4.332-3.971-6.864c-.362-2.531 2.17-6.863 2.17-6.863l59.769 12.642 93.717-17.335s1.808 2.531 1.808 6.14c-.008 3.608-4.347 6.863-4.347 6.863Z"
                style="--darkreader-inline-fill:#6a4212" />
        </g>
    </g>
    <mask id="o" width="154" height="69" x="53" y="105" maskUnits="userSpaceOnUse" style="mask-type:luminance">
        <path fill="#fff"
            d="m113.26 122.34-59.77-12.642 7.226 46.32a7.096 7.096 0 0 0 5.224 5.77l42.596 11.019a18.76 18.76 0 0 0 9.095.069l75.973-18.428a6.89 6.89 0 0 0 5.155-5.44l8.21-44.004-93.709 17.336Z"
            style="--darkreader-inline-fill:#e8e6e3" />
    </mask>
    <g mask="url(#o)">
        <mask id="p" width="61" height="53" x="53" y="123" maskUnits="userSpaceOnUse" style="mask-type:luminance">
            <path fill="#fff"
                d="m112.945 175.507.239-44.011-7.287-.27v31.47c0 1.97-1.847 3.424-3.762 2.947l-34.325-8.464a3.032 3.032 0 0 1-2.277-2.531l-4.317-30.87-7.986-.269 3.477 41.165 56.238 10.833Z"
                style="--darkreader-inline-fill:#e8e6e3" />
        </mask>
        <g mask="url(#p)">
            <path fill="#845217"
                d="m204.446 120.447-91.186 17.335-57.96-11.918s-3.61-4.332-3.971-6.864c-.362-2.531 2.17-6.863 2.17-6.863l59.769 12.642 93.717-17.335s1.808 2.531 1.808 6.14c-.008 3.608-4.347 6.863-4.347 6.863Z"
                style="--darkreader-inline-fill:#6a4212" />
        </g>
    </g>
    <path fill="url(#q)" d="M53.49 109.698 23.883 71.057l91.001-13.72 30.7 37.557-92.094 14.804Z" />
    <path fill="#462208" d="M56.923 103.558 35.617 74.673l76.713-11.71 22.236 27.96-77.643 12.635Z"
        style="--darkreader-inline-fill:#381b06" />
    <path fill="#66290A"
        d="M23.884 71.057S13.712 122.2 36.164 136.42c10.833 6.863 17.335-26.722 17.335-26.722L23.884 71.057Z"
        style="--darkreader-inline-fill:#522108" />
    <mask id="r" width="94" height="69" x="113" y="105" maskUnits="userSpaceOnUse" style="mask-type:luminance">
        <path fill="#fff"
            d="m113.26 122.34 93.717-17.336-7.91 42.411a9.394 9.394 0 0 1-7.025 7.41l-78.959 19.151.177-51.636Z"
            style="--darkreader-inline-fill:#e8e6e3" />
    </mask>
    <g mask="url(#r)">
        <path fill="#7A350E"
            d="m198.398 119.17-.362 2.346-77.374 14.72-.408-2.17-16.25-.539-.115 2.593-48.598-9.995s-3.608-4.332-3.97-6.863c-.362-2.531 2.17-6.863 2.17-6.863l59.769 12.641 93.717-17.335s1.808 2.532 1.808 6.14c0 3.609-10.387 5.325-10.387 5.325Z"
            style="--darkreader-inline-fill:#622a0b" />
    </g>
    <path fill="#BC833F"
        d="m204.446 118.008-91.186 17.335-57.96-11.918s-3.61-4.332-3.971-6.864c-.362-2.531 2.17-6.863 2.17-6.863l59.769 12.642 93.717-17.336s1.808 2.532 1.808 6.14c-.008 3.609-4.347 6.864-4.347 6.864Z"
        style="--darkreader-inline-fill:#966932" />
    <mask id="s" width="158" height="31" x="51" y="105" maskUnits="userSpaceOnUse" style="mask-type:luminance">
        <path fill="#fff"
            d="m204.446 118.008-91.186 17.335-57.96-11.918s-3.61-4.332-3.971-6.864c-.362-2.531 2.17-6.863 2.17-6.863l59.769 12.642 93.717-17.336s1.808 2.532 1.808 6.14c-.008 3.609-4.347 6.864-4.347 6.864Z"
            style="--darkreader-inline-fill:#e8e6e3" />
    </mask>
    <g mask="url(#s)">
        <path fill="#A06B24" d="m113.084 136.066.362-14.45-66.81-18.058-.723 25.645 67.171 6.863Z"
            style="--darkreader-inline-fill:#80561d" />
    </g>
    <mask id="t" width="158" height="31" x="51" y="105" maskUnits="userSpaceOnUse" style="mask-type:luminance">
        <path fill="#fff"
            d="m204.446 118.008-91.186 17.335-57.96-11.918s-3.61-4.332-3.971-6.864c-.362-2.531 2.17-6.863 2.17-6.863l59.769 12.642 93.717-17.336s1.808 2.532 1.808 6.14c-.008 3.609-4.347 6.864-4.347 6.864Z"
            style="--darkreader-inline-fill:#e8e6e3" />
    </mask>
    <g mask="url(#t)">
        <path fill="url(#u)" d="m51.329 116.561 61.485 12.642 98.857-18.42-1.624-10.295-158.718 8.487v7.586Z" />
    </g>
    <mask id="v" width="100" height="42" x="35" y="62" maskUnits="userSpaceOnUse" style="mask-type:luminance">
        <path fill="#fff" d="M56.923 103.558 35.617 74.673l76.713-11.71 22.236 27.96-77.643 12.635Z"
            style="--darkreader-inline-fill:#e8e6e3" />
    </mask>
    <g mask="url(#v)">
        <path fill="#66290A"
            d="M113.445 56.253s-10.172 51.144 12.28 65.363c10.834 6.864 17.336-26.722 17.336-26.722l-29.616-38.64Z"
            style="--darkreader-inline-fill:#522108" />
    </g>
    <mask id="w" width="33" height="67" x="21" y="71" maskUnits="userSpaceOnUse" style="mask-type:luminance">
        <path fill="#fff"
            d="M23.884 71.057S13.712 122.2 36.164 136.42c10.833 6.863 17.335-26.722 17.335-26.722L23.884 71.057Z"
            style="--darkreader-inline-fill:#e8e6e3" />
    </mask>
    <g mask="url(#w)">
        <path fill="#462208" d="m20.99 79.367 32.5 44.058 6.14-13.727-43.334-40.803 4.693 10.472Z"
            style="--darkreader-inline-fill:#381b06" />
    </g>
    <mask id="x" width="122" height="21" x="69" y="98" maskUnits="userSpaceOnUse" style="mask-type:luminance">
        <path fill="#fff" d="m69.388 109.698 78.798-11.365 41.818 6.671-78.005 13.365-42.61-8.671Z"
            style="--darkreader-inline-fill:#e8e6e3" />
    </mask>
    <g mask="url(#x)">
        <path fill="#7A350E" d="m147.392 91.64 59.762 12.641-5.956 53.091-51.644-14.088-2.162-51.644Z"
            style="--darkreader-inline-fill:#622a0b" />
    </g>
    <mask id="y" width="33" height="67" x="21" y="71" maskUnits="userSpaceOnUse" style="mask-type:luminance">
        <path fill="#fff"
            d="M23.884 71.057S13.712 122.2 36.164 136.42c10.833 6.863 17.335-26.722 17.335-26.722L23.884 71.057Z"
            style="--darkreader-inline-fill:#e8e6e3" />
    </mask>
    <g mask="url(#y)">
        <path fill="#A06B24" d="m22.798 77.92 30.692 41.173 36.84-18.059-69.702-42.257 2.17 19.143Z"
            style="--darkreader-inline-fill:#80561d" />
    </g>
    <mask id="z" width="33" height="67" x="21" y="71" maskUnits="userSpaceOnUse" style="mask-type:luminance">
        <path fill="#fff"
            d="M23.884 71.057S13.712 122.2 36.164 136.42c10.833 6.863 17.335-26.722 17.335-26.722L23.884 71.057Z"
            style="--darkreader-inline-fill:#e8e6e3" />
    </mask>
    <g mask="url(#z)">
        <path fill="#7A350E" d="m20.09 84.422 30.692 43.696S20.09 91.648 20.09 90.562v-6.14Z"
            style="--darkreader-inline-fill:#f0a67c" />
    </g>
    <mask id="A" width="33" height="67" x="21" y="71" maskUnits="userSpaceOnUse" style="mask-type:luminance">
        <path fill="#fff"
            d="M23.884 71.057S13.712 122.2 36.164 136.42c10.833 6.863 17.335-26.722 17.335-26.722L23.884 71.057Z"
            style="--darkreader-inline-fill:#e8e6e3" />
    </mask>
    <g mask="url(#A)">
        <path fill="#7A350E" d="m20.03 103.142 14.865 21.006 10.472 10.472-25.338-31.478Z"
            style="--darkreader-inline-fill:#f0a67c" />
    </g>
    <mask id="B" width="241" height="119" x="0" y="0" maskUnits="userSpaceOnUse" style="mask-type:luminance">
        <path fill="#fff"
            d="m68.303 109.698 45.588 8.941 74.758-13.542 52.006-42.265L109.56 0 .139 87.215l68.164 22.483Z"
            style="--darkreader-inline-fill:#e8e6e3" />
    </mask>
    <g mask="url(#B)">
        <path fill="#FFD522"
            d="M86.092 123.855c9.2 0 16.658-1.798 16.658-4.016s-7.458-4.016-16.658-4.016c-9.2 0-16.658 1.798-16.658 4.016s7.458 4.016 16.658 4.016Z"
            style="--darkreader-inline-fill:#ffd831" />
        <path fill="url(#C)"
            d="M74.289 119.978c1.215-1.07 6.01-1.87 11.741-1.87 5.733 0 10.526.8 11.742 1.87.192-.17.3-.354.3-.539 0-1.331-5.394-2.408-12.042-2.408s-12.041 1.077-12.041 2.408c0 .185.1.362.3.539Z" />
        <path fill="url(#D)"
            d="M102.75 116.762c0 2.216-7.456 4.016-16.658 4.016-9.203 0-16.658-1.8-16.658-4.016v-6.825h33.316v6.825Z" />
        <mask id="E" width="34" height="12" x="69" y="109" maskUnits="userSpaceOnUse" style="mask-type:luminance">
            <path fill="#fff"
                d="M102.75 116.762c0 2.216-7.456 4.016-16.658 4.016-9.203 0-16.658-1.8-16.658-4.016v-6.825h33.316v6.825Z"
                style="--darkreader-inline-fill:#e8e6e3" />
        </mask>
        <g mask="url(#E)">
            <path fill="#fff" d="M97.28 109.144h-3.455v12.042h3.455v-12.042Z"
                style="--darkreader-inline-fill:#e8e6e3" />
        </g>
        <path fill="#FFD522"
            d="M86.092 113.961c9.2 0 16.658-1.799 16.658-4.017 0-2.218-7.458-4.016-16.658-4.016-9.2 0-16.658 1.798-16.658 4.016s7.458 4.017 16.658 4.017Z"
            style="--darkreader-inline-fill:#ffd831" />
        <path fill="url(#F)"
            d="M74.289 110.075c1.215-1.07 6.01-1.87 11.741-1.87 5.733 0 10.526.8 11.742 1.87.192-.169.3-.354.3-.539 0-1.331-5.394-2.408-12.042-2.408s-12.041 1.077-12.041 2.408c0 .185.1.37.3.539Z" />
        <path fill="url(#G)"
            d="M102.75 107.667c0 2.216-7.456 4.016-16.658 4.016-9.203 0-16.658-1.8-16.658-4.016v-6.825h33.316v6.825Z" />
        <mask id="H" width="34" height="12" x="69" y="100" maskUnits="userSpaceOnUse" style="mask-type:luminance">
            <path fill="#fff"
                d="M102.75 107.667c0 2.216-7.456 4.016-16.658 4.016-9.203 0-16.658-1.8-16.658-4.016v-6.825h33.316v6.825Z"
                style="--darkreader-inline-fill:#e8e6e3" />
        </mask>
        <g mask="url(#H)">
            <path fill="#fff" d="M97.28 100.041h-3.455v12.042h3.455v-12.042Z"
                style="--darkreader-inline-fill:#e8e6e3" />
        </g>
        <path fill="#FFD522"
            d="M86.092 104.858c9.2 0 16.658-1.798 16.658-4.016s-7.458-4.017-16.658-4.017c-9.2 0-16.658 1.799-16.658 4.017 0 2.218 7.458 4.016 16.658 4.016Z"
            style="--darkreader-inline-fill:#ffd831" />
        <path fill="url(#I)"
            d="M74.289 100.981c1.215-1.07 6.01-1.87 11.741-1.87 5.733 0 10.526.8 11.742 1.87.192-.17.3-.354.3-.539 0-1.331-5.394-2.408-12.042-2.408s-12.04 1.076-12.04 2.408c0 .185.1.362.3.539Z" />
    </g>
    <mask id="J" width="241" height="119" x="0" y="0" maskUnits="userSpaceOnUse" style="mask-type:luminance">
        <path fill="#fff"
            d="m68.303 109.698 45.588 8.941 74.758-13.542 52.006-42.265L109.56 0 .139 87.215l68.164 22.483Z"
            style="--darkreader-inline-fill:#e8e6e3" />
    </mask>
    <g mask="url(#J)">
        <path fill="url(#K)"
            d="M186.895 118.361c0 2.216-7.456 4.017-16.659 4.017-9.202 0-16.658-1.801-16.658-4.017v-6.824h33.317v6.824Z" />
        <mask id="L" width="34" height="12" x="153" y="111" maskUnits="userSpaceOnUse" style="mask-type:luminance">
            <path fill="#fff"
                d="M186.895 118.361c0 2.216-7.456 4.017-16.659 4.017-9.202 0-16.658-1.801-16.658-4.017v-6.824h33.317v6.824Z"
                style="--darkreader-inline-fill:#e8e6e3" />
        </mask>
        <g mask="url(#L)">
            <path fill="#fff" d="M181.424 110.737h-3.454v12.041h3.454v-12.041Z"
                style="--darkreader-inline-fill:#e8e6e3" />
        </g>
        <path fill="#FFD522"
            d="M170.236 115.553c9.2 0 16.659-1.798 16.659-4.016 0-2.219-7.459-4.017-16.659-4.017s-16.658 1.798-16.658 4.017c0 2.218 7.458 4.016 16.658 4.016Z"
            style="--darkreader-inline-fill:#ffd831" />
        <path fill="url(#M)"
            d="M158.434 111.667c1.216-1.069 6.01-1.869 11.742-1.869 5.732 0 10.526.8 11.741 1.869.193-.169.3-.354.3-.538 0-1.331-5.393-2.409-12.041-2.409-6.648 0-12.042 1.078-12.042 2.409-.008.192.1.369.3.538Z" />
        <path fill="url(#N)"
            d="M186.895 108.459c0 2.216-7.456 4.017-16.659 4.017-9.202 0-16.658-1.801-16.658-4.017v-6.824h33.317v6.824Z" />
        <mask id="O" width="34" height="12" x="153" y="101" maskUnits="userSpaceOnUse" style="mask-type:luminance">
            <path fill="#fff"
                d="M186.895 108.459c0 2.216-7.456 4.017-16.659 4.017-9.202 0-16.658-1.801-16.658-4.017v-6.824h33.317v6.824Z"
                style="--darkreader-inline-fill:#e8e6e3" />
        </mask>
        <g mask="url(#O)">
            <path fill="#fff" d="M181.424 100.834h-3.454v12.042h3.454v-12.042Z"
                style="--darkreader-inline-fill:#e8e6e3" />
        </g>
        <path fill="#FFD522"
            d="M170.236 105.651c9.2 0 16.659-1.798 16.659-4.016 0-2.219-7.459-4.017-16.659-4.017s-16.658 1.798-16.658 4.017c0 2.218 7.458 4.016 16.658 4.016Z"
            style="--darkreader-inline-fill:#ffd831" />
        <path fill="url(#P)"
            d="M158.434 101.773c1.216-1.07 6.01-1.87 11.742-1.87 5.732 0 10.526.8 11.741 1.87.193-.17.3-.354.3-.539 0-1.331-5.393-2.408-12.041-2.408-6.648 0-12.042 1.077-12.042 2.408-.008.185.1.362.3.539Z" />
        <path fill="url(#Q)"
            d="M186.895 99.364c0 2.216-7.456 4.017-16.659 4.017-9.202 0-16.658-1.801-16.658-4.017V92.54h33.317v6.824Z" />
        <mask id="R" width="34" height="12" x="153" y="92" maskUnits="userSpaceOnUse" style="mask-type:luminance">
            <path fill="#fff"
                d="M186.895 99.364c0 2.216-7.456 4.017-16.659 4.017-9.202 0-16.658-1.801-16.658-4.017V92.54h33.317v6.824Z"
                style="--darkreader-inline-fill:#e8e6e3" />
        </mask>
        <g mask="url(#R)">
            <path fill="#fff" d="M181.424 91.74h-3.454v12.041h3.454V91.739Z" style="--darkreader-inline-fill:#e8e6e3" />
        </g>
        <path fill="#FFD522"
            d="M170.236 96.556c9.2 0 16.659-1.798 16.659-4.016 0-2.219-7.459-4.017-16.659-4.017s-16.658 1.798-16.658 4.017c0 2.218 7.458 4.016 16.658 4.016Z"
            style="--darkreader-inline-fill:#ffd831" />
        <path fill="url(#S)"
            d="M158.434 92.67c1.216-1.069 6.01-1.87 11.742-1.87 5.732 0 10.526.801 11.741 1.87.193-.169.3-.353.3-.538 0-1.331-5.393-2.408-12.041-2.408-6.648 0-12.042 1.077-12.042 2.408-.008.185.1.37.3.539Z" />
    </g>
    <mask id="T" width="241" height="119" x="0" y="0" maskUnits="userSpaceOnUse" style="mask-type:luminance">
        <path fill="#fff"
            d="m68.303 109.698 45.588 8.941 74.758-13.542 52.006-42.265L109.56 0 .139 87.215l68.164 22.483Z"
            style="--darkreader-inline-fill:#e8e6e3" />
    </mask>
    <g mask="url(#T)">
        <path fill="url(#U)"
            d="M156.918 115.653c0 2.216-7.455 4.017-16.658 4.017-9.202 0-16.658-1.801-16.658-4.017v-6.824h33.316v6.824Z" />
        <mask id="V" width="34" height="12" x="123" y="108" maskUnits="userSpaceOnUse" style="mask-type:luminance">
            <path fill="#fff"
                d="M156.918 115.653c0 2.216-7.455 4.017-16.658 4.017-9.202 0-16.658-1.801-16.658-4.017v-6.824h33.316v6.824Z"
                style="--darkreader-inline-fill:#e8e6e3" />
        </mask>
        <g mask="url(#V)">
            <path fill="#fff" d="M151.455 108.028H148v12.042h3.455v-12.042Z" style="--darkreader-inline-fill:#e8e6e3" />
        </g>
        <path fill="#FFD522"
            d="M140.268 112.845c9.2 0 16.658-1.798 16.658-4.016 0-2.219-7.458-4.017-16.658-4.017-9.2 0-16.659 1.798-16.659 4.017 0 2.218 7.459 4.016 16.659 4.016Z"
            style="--darkreader-inline-fill:#ffd831" />
        <path fill="url(#W)"
            d="M128.456 108.959c1.216-1.069 6.01-1.869 11.742-1.869 5.732 0 10.526.8 11.741 1.869.193-.169.3-.354.3-.538 0-1.331-5.393-2.409-12.041-2.409-6.648 0-12.042 1.078-12.042 2.409 0 .192.108.369.3.538Z" />
        <path fill="url(#X)"
            d="M156.918 105.751c0 2.216-7.455 4.016-16.658 4.016-9.202 0-16.658-1.8-16.658-4.016v-6.825h33.316v6.825Z" />
        <mask id="Y" width="34" height="12" x="123" y="98" maskUnits="userSpaceOnUse" style="mask-type:luminance">
            <path fill="#fff"
                d="M156.918 105.751c0 2.216-7.455 4.016-16.658 4.016-9.202 0-16.658-1.8-16.658-4.016v-6.825h33.316v6.825Z"
                style="--darkreader-inline-fill:#e8e6e3" />
        </mask>
        <g mask="url(#Y)">
            <path fill="#fff" d="M151.455 98.126H148v12.041h3.455V98.126Z" style="--darkreader-inline-fill:#e8e6e3" />
        </g>
        <path fill="#FFD522"
            d="M140.268 102.942c9.2 0 16.658-1.798 16.658-4.016s-7.458-4.017-16.658-4.017c-9.2 0-16.659 1.799-16.659 4.017 0 2.218 7.459 4.016 16.659 4.016Z"
            style="--darkreader-inline-fill:#ffd831" />
        <path fill="url(#Z)"
            d="M128.456 99.056c1.216-1.069 6.01-1.87 11.742-1.87 5.732 0 10.526.801 11.741 1.87.193-.169.3-.353.3-.538 0-1.331-5.393-2.408-12.041-2.408-6.648 0-12.042 1.077-12.042 2.408 0 .192.108.37.3.538Z" />
        <path fill="url(#aa)"
            d="M156.918 96.648c0 2.216-7.455 4.017-16.658 4.017-9.202 0-16.658-1.8-16.658-4.017v-6.825h33.316v6.825Z" />
        <mask id="ab" width="34" height="12" x="123" y="89" maskUnits="userSpaceOnUse" style="mask-type:luminance">
            <path fill="#fff"
                d="M156.918 96.648c0 2.216-7.455 4.017-16.658 4.017-9.202 0-16.658-1.8-16.658-4.017v-6.825h33.316v6.825Z"
                style="--darkreader-inline-fill:#e8e6e3" />
        </mask>
        <g mask="url(#ab)">
            <path fill="#fff" d="M151.455 89.031H148v12.042h3.455V89.031Z" style="--darkreader-inline-fill:#e8e6e3" />
        </g>
        <path fill="#FFD522"
            d="M140.268 93.848c9.2 0 16.658-1.799 16.658-4.017 0-2.218-7.458-4.016-16.658-4.016-9.2 0-16.659 1.798-16.659 4.016s7.459 4.017 16.659 4.017Z"
            style="--darkreader-inline-fill:#ffd831" />
        <path fill="url(#ac)"
            d="M128.456 89.962c1.216-1.07 6.01-1.87 11.742-1.87 5.732 0 10.526.8 11.741 1.87.193-.17.3-.354.3-.539 0-1.33-5.393-2.408-12.041-2.408-6.648 0-12.042 1.077-12.042 2.408 0 .185.108.37.3.539Z" />
    </g>
    <mask id="ad" width="241" height="119" x="0" y="0" maskUnits="userSpaceOnUse" style="mask-type:luminance">
        <path fill="#fff"
            d="m68.303 109.698 45.588 8.941 74.758-13.542 52.006-42.265L109.56 0 .139 87.215l68.164 22.483Z"
            style="--darkreader-inline-fill:#e8e6e3" />
    </mask>
    <g mask="url(#ad)">
        <path fill="#FFD522"
            d="M117.877 123.494c9.201 0 16.659-1.798 16.659-4.017 0-2.218-7.458-4.016-16.659-4.016-9.2 0-16.658 1.798-16.658 4.016 0 2.219 7.458 4.017 16.658 4.017Z"
            style="--darkreader-inline-fill:#ffd831" />
        <path fill="url(#ae)"
            d="M106.066 119.616c1.216-1.069 6.009-1.87 11.742-1.87 5.732 0 10.526.801 11.741 1.87.193-.169.3-.354.3-.538 0-1.332-5.393-2.409-12.041-2.409-6.648 0-12.042 1.077-12.042 2.409 0 .184.108.361.3.538Z" />
        <path fill="url(#af)"
            d="M134.527 116.407c0 2.216-7.455 4.017-16.658 4.017-9.202 0-16.658-1.801-16.658-4.017v-6.824h33.316v6.824Z" />
        <mask id="ag" width="34" height="12" x="101" y="109" maskUnits="userSpaceOnUse" style="mask-type:luminance">
            <path fill="#fff"
                d="M134.527 116.407c0 2.216-7.455 4.017-16.658 4.017-9.202 0-16.658-1.801-16.658-4.017v-6.824h33.316v6.824Z"
                style="--darkreader-inline-fill:#e8e6e3" />
        </mask>
        <g mask="url(#ag)">
            <path fill="#fff" d="M129.065 108.782h-3.455v12.042h3.455v-12.042Z"
                style="--darkreader-inline-fill:#e8e6e3" />
        </g>
        <path fill="#FFD522"
            d="M117.877 113.599c9.201 0 16.659-1.798 16.659-4.016 0-2.219-7.458-4.017-16.659-4.017-9.2 0-16.658 1.798-16.658 4.017 0 2.218 7.458 4.016 16.658 4.016Z"
            style="--darkreader-inline-fill:#ffd831" />
        <path fill="url(#ah)"
            d="M106.066 109.713c1.216-1.069 6.009-1.869 11.742-1.869 5.732 0 10.526.8 11.741 1.869.193-.169.3-.354.3-.538 0-1.331-5.393-2.409-12.041-2.409-6.648 0-12.042 1.078-12.042 2.409 0 .184.108.369.3.538Z" />
        <path fill="url(#ai)"
            d="M134.527 107.305c0 2.216-7.455 4.017-16.658 4.017-9.202 0-16.658-1.801-16.658-4.017v-6.825h33.316v6.825Z" />
        <mask id="aj" width="34" height="12" x="101" y="100" maskUnits="userSpaceOnUse" style="mask-type:luminance">
            <path fill="#fff"
                d="M134.527 107.305c0 2.216-7.455 4.017-16.658 4.017-9.202 0-16.658-1.801-16.658-4.017v-6.825h33.316v6.825Z"
                style="--darkreader-inline-fill:#e8e6e3" />
        </mask>
        <g mask="url(#aj)">
            <path fill="#fff" d="M129.065 99.68h-3.455v12.041h3.455V99.68Z" style="--darkreader-inline-fill:#e8e6e3" />
        </g>
        <path fill="#FFD522"
            d="M117.877 104.497c9.201 0 16.659-1.798 16.659-4.017 0-2.218-7.458-4.016-16.659-4.016-9.2 0-16.658 1.798-16.658 4.016 0 2.219 7.458 4.017 16.658 4.017Z"
            style="--darkreader-inline-fill:#ffd831" />
        <path fill="url(#ak)"
            d="M106.066 100.619c1.216-1.07 6.009-1.87 11.742-1.87 5.732 0 10.526.8 11.741 1.87.193-.169.3-.354.3-.539 0-1.33-5.393-2.408-12.041-2.408-6.648 0-12.042 1.077-12.042 2.408 0 .185.108.362.3.539Z" />
    </g>
    <mask id="al" width="241" height="119" x="0" y="0" maskUnits="userSpaceOnUse" style="mask-type:luminance">
        <path fill="#fff"
            d="m68.303 109.698 45.588 8.941 74.758-13.542 52.006-42.265L109.56 0 .139 87.215l68.164 22.483Z"
            style="--darkreader-inline-fill:#e8e6e3" />
    </mask>
    <g mask="url(#al)">
        <path fill="url(#am)" d="m126.496 100.519.107 92.216 22.722-2.87-22.829-89.346Z" />
        <path fill="url(#an)" d="m127.303 106.882-22.837-89.347 22.729-2.87.108 92.217Z" />
        <path fill="url(#ao)" d="m123.709 104.105 92.225-.108-2.87-22.73-89.355 22.838Z" />
        <path fill="url(#ap)" d="m130.081 103.296-89.347 22.837-2.87-22.729 92.217-.108Z" />
        <path fill="url(#aq)" d="m129.458 101.757-79.814 46.205 13.85 18.243 65.964-64.448Z" />
        <path fill="url(#ar)" d="m124.341 105.643 65.963-64.447 13.85 18.243-79.813 46.204Z" />
        <path fill="url(#as)" d="m124.957 101.142 46.204 79.813 18.244-13.85-64.448-65.963Z" />
        <path fill="url(#at)" d="M128.834 106.258 64.386 40.295l18.251-13.85 46.197 79.813Z" />
        <path fill="url(#au)" d="m128.141 100.742-46.02 79.921 21.121 8.871 24.899-88.792Z" />
        <path fill="url(#av)" d="m125.657 106.659 24.899-88.793 21.113 8.872-46.012 79.921Z" />
        <path fill="url(#aw)" d="m123.94 102.458 79.914 46.019 8.879-21.12-88.793-24.899Z" />
        <path fill="url(#ax)" d="m129.857 104.943-88.8-24.899 8.88-21.12 79.92 46.019Z" />
    </g>
    <path fill="#845217"
        d="M24.876 79.082s-7.94 44.581 15.027 57.946l.03-5.286C20.73 120.562 27.316 84.43 27.316 84.43l-2.44-5.348Z"
        style="--darkreader-inline-fill:#6a4212" />
    <path fill="#A06B24"
        d="M23.884 71.057S13.712 122.2 36.164 136.42c10.833 6.863 17.335-26.722 17.335-26.722L23.884 71.057Zm12.503 60.085c-18.097-6.279-10.264-54.645-10.264-54.645l22.498 31.031s-4.417 26.322-12.234 23.614Z"
        style="--darkreader-inline-fill:#80561d" />
    <path fill="#fff"
        d="m152.617 85.215 1.224 2.239a4.854 4.854 0 0 0 1.931 1.931l2.239 1.224-2.239 1.223a4.853 4.853 0 0 0-1.931 1.931l-1.224 2.24-1.223-2.24a4.86 4.86 0 0 0-1.931-1.931l-2.239-1.223 2.239-1.224a4.86 4.86 0 0 0 1.931-1.931l1.223-2.24Z"
        style="--darkreader-inline-fill:#e8e6e3" />
    <path fill="url(#ay)"
        d="M152.617 173.553c-.331 4.909-8.248 8.625-17.681 8.302-9.441-.323-16.82-4.563-16.497-9.472l.262-3.855 34.032 1.162s-.062 3.063-.116 3.863Z" />
    <mask id="az" width="35" height="10" x="118" y="172" maskUnits="userSpaceOnUse" style="mask-type:luminance">
        <path fill="#fff" d="M152.617 173.553c-.331 4.909-8.248 8.625-17.681 8.302-9.441-.323-16.82-4.563-16.497-9.472"
            style="--darkreader-inline-fill:#e8e6e3" />
    </mask>
    <g mask="url(#az)">
        <path fill="#fff" d="m142.907 183.056-3.778-.139-.246-6.994 3.778.139.246 6.994Z"
            style="--darkreader-inline-fill:#e8e6e3" />
    </g>
    <path fill="#FFD522"
        d="M152.831 168.272c.108-4.916-7.461-9.069-16.906-9.277-9.444-.208-17.188 3.608-17.297 8.524-.108 4.916 7.461 9.069 16.906 9.277 9.444.208 17.188-3.609 17.297-8.524Z"
        style="--darkreader-inline-fill:#ffd831" />
    <path fill="#EAA700"
        d="M124.548 168.375c.216-3.201 5.925-5.602 12.757-5.371 3.763.131 7.071 1.031 9.257 2.347-1.878-2.001-6.017-3.478-10.911-3.647-6.833-.231-12.542 2.17-12.757 5.37-.1 1.439.939 2.793 2.724 3.863-.739-.785-1.131-1.654-1.07-2.562Z"
        style="--darkreader-inline-fill:#ffc128" />
    <path stroke="#EAA700" stroke-miterlimit="10" stroke-width=".954"
        d="M147.751 167.802c.08-3.203-5.392-5.938-12.224-6.109-6.831-.171-12.433 2.287-12.513 5.49-.08 3.204 5.392 5.939 12.223 6.109 6.831.171 12.434-2.287 12.514-5.49Z"
        style="--darkreader-inline-stroke:#ffc128" />
    <path fill="url(#aA)"
        d="M70.826 162.719c-.33 4.909-8.248 8.626-17.681 8.302-9.434-.323-16.82-4.562-16.497-9.471l.261-3.855 34.033 1.162c-.008 0-.062 3.062-.116 3.862Z" />
    <mask id="aB" width="35" height="11" x="36" y="161" maskUnits="userSpaceOnUse" style="mask-type:luminance">
        <path fill="#fff" d="M70.826 162.719c-.33 4.909-8.248 8.626-17.681 8.303-9.434-.324-16.82-4.563-16.497-9.472"
            style="--darkreader-inline-fill:#e8e6e3" />
    </mask>
    <g mask="url(#aB)">
        <path fill="#fff" d="m61.108 172.222-3.778-.138-.246-6.994 3.778.138.246 6.994Z"
            style="--darkreader-inline-fill:#e8e6e3" />
    </g>
    <path fill="#FFD522"
        d="M71.037 157.443c.108-4.915-7.46-9.069-16.906-9.276-9.444-.208-17.188 3.608-17.297 8.524-.108 4.915 7.461 9.069 16.906 9.277 9.444.207 17.188-3.609 17.297-8.525Z"
        style="--darkreader-inline-fill:#ffd831" />
    <path fill="#EAA700"
        d="M42.758 157.541c.215-3.201 5.924-5.601 12.757-5.37 3.762.13 7.07 1.031 9.256 2.346-1.877-2-6.017-3.477-10.91-3.647-6.833-.231-12.542 2.17-12.758 5.371-.1 1.439.939 2.793 2.724 3.863-.746-.785-1.131-1.655-1.07-2.563Z"
        style="--darkreader-inline-fill:#ffc128" />
    <path stroke="#EAA700" stroke-miterlimit="10" stroke-width=".954"
        d="M65.957 156.971c.08-3.203-5.393-5.938-12.224-6.109-6.831-.171-12.434 2.287-12.514 5.491-.08 3.203 5.393 5.938 12.224 6.109 6.831.17 12.434-2.288 12.514-5.491Z"
        style="--darkreader-inline-stroke:#ffc128" />
    <path fill="url(#aC)"
        d="M126.079 181.678c-.331 4.909-8.248 8.626-17.682 8.302-9.44-.323-16.82-4.562-16.496-9.471l.261-3.855 34.032 1.162c-.007 0-.061 3.062-.115 3.862Z" />
    <mask id="aD" width="36" height="10" x="91" y="180" maskUnits="userSpaceOnUse" style="mask-type:luminance">
        <path fill="#fff" d="M126.079 181.678c-.331 4.909-8.248 8.625-17.682 8.302-9.44-.323-16.82-4.562-16.496-9.471"
            style="--darkreader-inline-fill:#e8e6e3" />
    </mask>
    <g mask="url(#aD)">
        <path fill="#fff" d="m116.362 191.18-3.778-.138-.247-6.994 3.778.138.247 6.994Z"
            style="--darkreader-inline-fill:#e8e6e3" />
    </g>
    <path fill="#FFD522"
        d="M126.289 176.4c.108-4.916-7.461-9.069-16.906-9.277-9.444-.208-17.188 3.609-17.296 8.524-.109 4.916 7.46 9.069 16.905 9.277 9.444.208 17.188-3.608 17.297-8.524Z"
        style="--darkreader-inline-fill:#ffd831" />
    <path fill="#EAA700"
        d="M98.01 176.5c.215-3.201 5.925-5.601 12.757-5.371 3.763.131 7.071 1.031 9.256 2.347-1.877-2-6.016-3.478-10.91-3.647-6.833-.231-12.542 2.17-12.757 5.371-.1 1.439.938 2.793 2.724 3.862-.747-.785-1.132-1.654-1.07-2.562Z"
        style="--darkreader-inline-fill:#ffc128" />
    <path stroke="#EAA700" stroke-miterlimit="10" stroke-width=".954"
        d="M121.21 175.93c.08-3.203-5.393-5.938-12.224-6.109-6.831-.171-12.434 2.287-12.514 5.491-.08 3.203 5.393 5.938 12.224 6.109 6.831.17 12.434-2.288 12.514-5.491Z"
        style="--darkreader-inline-stroke:#ffc128" />
    <path fill="url(#aE)"
        d="M170.661 182.286c-1.947 4.517-10.649 5.394-19.444 1.947-8.794-3.447-14.342-9.903-12.395-14.427l1.531-3.547 31.7 12.426c-.007-.007-1.077 2.863-1.392 3.601Z" />
    <mask id="aF" width="33" height="18" x="138" y="169" maskUnits="userSpaceOnUse" style="mask-type:luminance">
        <path fill="#fff"
            d="M170.661 182.286c-1.947 4.517-10.649 5.394-19.444 1.947-8.794-3.447-14.342-9.903-12.395-14.427"
            style="--darkreader-inline-fill:#e8e6e3" />
    </mask>
    <g mask="url(#aF)">
        <path fill="#fff" d="m158.335 188.011-3.517-1.393 2.093-6.679 3.524 1.393-2.1 6.679Z"
            style="--darkreader-inline-fill:#e8e6e3" />
    </g>
    <path fill="#FFD522"
        d="M172.599 177.377c1.739-4.599-4.015-11.035-12.852-14.376-8.836-3.34-17.408-2.32-19.147 2.279-1.739 4.599 4.015 11.036 12.852 14.376 8.836 3.34 17.409 2.32 19.147-2.279Z"
        style="--darkreader-inline-fill:#ffd831" />
    <path fill="#EAA700"
        d="M145.916 168.052c1.269-2.947 7.456-3.309 13.811-.816 3.501 1.37 6.325 3.324 7.948 5.294-1.1-2.509-4.516-5.286-9.071-7.071-6.363-2.493-12.55-2.132-13.812.815-.569 1.324-.046 2.94 1.278 4.555-.439-.992-.516-1.939-.154-2.777Z"
        style="--darkreader-inline-fill:#ffc128" />
    <path stroke="#EAA700" stroke-miterlimit="10" stroke-width=".954"
        d="M167.972 175.242c1.142-2.994-3.107-7.395-9.491-9.83-6.385-2.435-12.486-1.983-13.628 1.011-1.142 2.993 3.108 7.394 9.492 9.83 6.384 2.435 12.486 1.983 13.627-1.011Z"
        style="--darkreader-inline-stroke:#ffc128" />
    <path fill="url(#aG)"
        d="M20.574 171.783c1.947 4.517 10.65 5.394 19.444 1.947 8.794-3.447 14.342-9.903 12.395-14.427l-1.53-3.547-31.701 12.426s1.07 2.862 1.392 3.601Z" />
    <mask id="aH" width="33" height="17" x="20" y="159" maskUnits="userSpaceOnUse" style="mask-type:luminance">
        <path fill="#fff"
            d="M20.575 171.783c1.947 4.517 10.65 5.394 19.444 1.947 8.794-3.447 14.342-9.903 12.395-14.427"
            style="--darkreader-inline-fill:#e8e6e3" />
    </mask>
    <g mask="url(#aH)">
        <path fill="#fff" d="m32.901 177.516 3.517-1.393-2.1-6.679-3.517 1.393 2.1 6.679Z"
            style="--darkreader-inline-fill:#e8e6e3" />
    </g>
    <path fill="#FFD522"
        d="M37.767 169.175c8.836-3.341 14.59-9.777 12.852-14.376-1.739-4.599-10.312-5.619-19.148-2.279-8.836 3.341-14.59 9.777-12.852 14.376 1.74 4.599 10.312 5.619 19.148 2.279Z"
        style="--darkreader-inline-fill:#ffd831" />
    <path fill="#EAA700"
        d="M45.32 157.557c-1.27-2.947-7.456-3.309-13.811-.816-3.501 1.37-6.325 3.324-7.948 5.294 1.1-2.509 4.516-5.286 9.071-7.071 6.363-2.493 12.55-2.132 13.812.815.569 1.324.046 2.947-1.278 4.555.439-.992.508-1.946.154-2.777Z"
        style="--darkreader-inline-fill:#ffc128" />
    <path stroke="#EAA700" stroke-miterlimit="10" stroke-width=".954"
        d="M36.87 165.761c6.384-2.436 10.634-6.837 9.492-9.83-1.142-2.994-7.243-3.447-13.628-1.011-6.384 2.435-10.634 6.836-9.492 9.83 1.142 2.993 7.243 3.446 13.628 1.011Z"
        style="--darkreader-inline-stroke:#ffc128" />
    <path fill="#fff"
        d="m164.912 166.467 1.224 2.239a4.855 4.855 0 0 0 1.931 1.931l2.239 1.223-2.239 1.224a4.849 4.849 0 0 0-1.931 1.931l-1.224 2.239-1.223-2.239a4.855 4.855 0 0 0-1.931-1.931l-2.239-1.224 2.239-1.223a4.861 4.861 0 0 0 1.931-1.931l1.223-2.239Zm-41.626-11.981 1.224 2.239a4.858 4.858 0 0 0 1.931 1.932l2.239 1.223-2.239 1.223a4.858 4.858 0 0 0-1.931 1.932l-1.224 2.239-1.223-2.239a4.864 4.864 0 0 0-1.931-1.932l-2.239-1.223 2.239-1.223a4.864 4.864 0 0 0 1.931-1.932l1.223-2.239Zm-96.341 8.733 1.224 2.24a4.86 4.86 0 0 0 1.931 1.931l2.24 1.223-2.24 1.224a4.853 4.853 0 0 0-1.931 1.931l-1.224 2.239-1.223-2.239a4.854 4.854 0 0 0-1.931-1.931l-2.24-1.224 2.24-1.223a4.86 4.86 0 0 0 1.931-1.931l1.223-2.24Zm54.977-87.214 1.092 2c.4.731 1 1.324 1.724 1.724l2 1.092-2 1.093c-.731.4-1.324 1-1.724 1.723l-1.092 2-1.093-2c-.4-.73-1-1.323-1.723-1.723l-2.001-1.093 2-1.092c.731-.4 1.324-1 1.724-1.724l1.093-2Zm30.877 13.857 1.093 2c.4.732 1 1.324 1.723 1.724l2.001 1.093-2.001 1.093c-.731.4-1.323 1-1.723 1.723l-1.093 2-1.093-2c-.4-.73-1-1.323-1.723-1.724l-2.001-1.092 2.001-1.093c.731-.4 1.323-1 1.723-1.723l1.093-2Zm49.905-21.39 1.093 2c.4.731 1 1.324 1.723 1.724l2.001 1.092-2.001 1.093c-.731.4-1.323 1-1.723 1.723l-1.093 2.001-1.092-2a4.371 4.371 0 0 0-1.724-1.724l-2-1.093 2-1.092c.731-.4 1.324-1 1.724-1.724l1.092-2Zm-12.287-10.518 1.592 2.916a6.332 6.332 0 0 0 2.516 2.516l2.916 1.592-2.916 1.593a6.334 6.334 0 0 0-2.516 2.516l-1.592 2.916-1.593-2.916a6.332 6.332 0 0 0-2.516-2.516l-2.916-1.593 2.916-1.592a6.333 6.333 0 0 0 2.516-2.516l1.593-2.916Zm31.246 28.215 1.339 2.447a5.324 5.324 0 0 0 2.116 2.115l2.446 1.34-2.446 1.338a5.326 5.326 0 0 0-2.116 2.116l-1.339 2.447-1.339-2.447a5.33 5.33 0 0 0-2.116-2.116l-2.447-1.339 2.447-1.339a5.326 5.326 0 0 0 2.116-2.115l1.339-2.447Zm-85.799-17.72 1.531 2.8a6.035 6.035 0 0 0 2.416 2.416l2.801 1.532-2.8 1.53a6.035 6.035 0 0 0-2.417 2.417l-1.53 2.8-1.532-2.8a6.035 6.035 0 0 0-2.416-2.416l-2.8-1.531 2.8-1.532a6.035 6.035 0 0 0 2.416-2.416l1.531-2.8Z"
        style="--darkreader-inline-fill:#181a1b" />
    <defs>
        <linearGradient id="b" x1="74.621" x2="74.621" y1="51.546" y2="85.043" gradientUnits="userSpaceOnUse">
            <stop stop-color="#E7B83C" style="--darkreader-inline-stopcolor:#7a5c0f" />
            <stop offset=".457" stop-color="#D17922" style="--darkreader-inline-stopcolor:#a7611b" />
        </linearGradient>
        <linearGradient id="ae" x1="105.765" x2="129.848" y1="118.143" y2="118.143" gradientUnits="userSpaceOnUse">
            <stop stop-color="#F5BE00" style="--darkreader-inline-stopcolor:#c49800" />
            <stop offset="1" stop-color="#EAA700" style="--darkreader-inline-stopcolor:#bb8600" />
        </linearGradient>
        <linearGradient id="q" x1="84.732" x2="84.732" y1="57.335" y2="109.7" gradientUnits="userSpaceOnUse">
            <stop offset=".314" stop-color="#EAAE73" style="--darkreader-inline-stopcolor:#804913" />
            <stop offset="1" stop-color="#EA9951" style="--darkreader-inline-stopcolor:#965012" />
        </linearGradient>
        <linearGradient id="u" x1="131.499" x2="131.499" y1="88.252" y2="132.388" gradientUnits="userSpaceOnUse">
            <stop offset=".314" stop-color="#EAAE73" stop-opacity="0" style="--darkreader-inline-stopcolor:#804913" />
            <stop offset="1" stop-color="#EA9951" style="--darkreader-inline-stopcolor:#965012" />
        </linearGradient>
        <linearGradient id="C" x1="73.986" x2="98.069" y1="118.504" y2="118.504" gradientUnits="userSpaceOnUse">
            <stop stop-color="#F5BE00" style="--darkreader-inline-stopcolor:#c49800" />
            <stop offset="1" stop-color="#EAA700" style="--darkreader-inline-stopcolor:#bb8600" />
        </linearGradient>
        <linearGradient id="D" x1="69.437" x2="102.751" y1="115.36" y2="115.36" gradientUnits="userSpaceOnUse">
            <stop stop-color="#F5BE00" style="--darkreader-inline-stopcolor:#c49800" />
            <stop offset="1" stop-color="#EAA700" style="--darkreader-inline-stopcolor:#bb8600" />
        </linearGradient>
        <linearGradient id="F" x1="73.986" x2="98.069" y1="108.603" y2="108.603" gradientUnits="userSpaceOnUse">
            <stop stop-color="#F5BE00" style="--darkreader-inline-stopcolor:#c49800" />
            <stop offset="1" stop-color="#EAA700" style="--darkreader-inline-stopcolor:#bb8600" />
        </linearGradient>
        <linearGradient id="G" x1="69.437" x2="102.751" y1="106.262" y2="106.262" gradientUnits="userSpaceOnUse">
            <stop stop-color="#F5BE00" style="--darkreader-inline-stopcolor:#c49800" />
            <stop offset="1" stop-color="#EAA700" style="--darkreader-inline-stopcolor:#bb8600" />
        </linearGradient>
        <linearGradient id="I" x1="73.986" x2="98.069" y1="99.506" y2="99.506" gradientUnits="userSpaceOnUse">
            <stop stop-color="#F5BE00" style="--darkreader-inline-stopcolor:#c49800" />
            <stop offset="1" stop-color="#EAA700" style="--darkreader-inline-stopcolor:#bb8600" />
        </linearGradient>
        <linearGradient id="K" x1="153.58" x2="186.895" y1="116.954" y2="116.954" gradientUnits="userSpaceOnUse">
            <stop stop-color="#F5BE00" style="--darkreader-inline-stopcolor:#c49800" />
            <stop offset="1" stop-color="#EAA700" style="--darkreader-inline-stopcolor:#bb8600" />
        </linearGradient>
        <linearGradient id="M" x1="158.13" x2="182.213" y1="110.198" y2="110.198" gradientUnits="userSpaceOnUse">
            <stop stop-color="#F5BE00" style="--darkreader-inline-stopcolor:#c49800" />
            <stop offset="1" stop-color="#EAA700" style="--darkreader-inline-stopcolor:#bb8600" />
        </linearGradient>
        <linearGradient id="N" x1="153.58" x2="186.895" y1="107.054" y2="107.054" gradientUnits="userSpaceOnUse">
            <stop stop-color="#F5BE00" style="--darkreader-inline-stopcolor:#c49800" />
            <stop offset="1" stop-color="#EAA700" style="--darkreader-inline-stopcolor:#bb8600" />
        </linearGradient>
        <linearGradient id="P" x1="158.13" x2="182.213" y1="100.297" y2="100.297" gradientUnits="userSpaceOnUse">
            <stop stop-color="#F5BE00" style="--darkreader-inline-stopcolor:#c49800" />
            <stop offset="1" stop-color="#EAA700" style="--darkreader-inline-stopcolor:#bb8600" />
        </linearGradient>
        <linearGradient id="Q" x1="153.58" x2="186.895" y1="97.956" y2="97.956" gradientUnits="userSpaceOnUse">
            <stop stop-color="#F5BE00" style="--darkreader-inline-stopcolor:#c49800" />
            <stop offset="1" stop-color="#EAA700" style="--darkreader-inline-stopcolor:#bb8600" />
        </linearGradient>
        <linearGradient id="S" x1="158.13" x2="182.213" y1="91.2" y2="91.2" gradientUnits="userSpaceOnUse">
            <stop stop-color="#F5BE00" style="--darkreader-inline-stopcolor:#c49800" />
            <stop offset="1" stop-color="#EAA700" style="--darkreader-inline-stopcolor:#bb8600" />
        </linearGradient>
        <linearGradient id="U" x1="123.607" x2="156.922" y1="114.246" y2="114.246" gradientUnits="userSpaceOnUse">
            <stop stop-color="#F5BE00" style="--darkreader-inline-stopcolor:#c49800" />
            <stop offset="1" stop-color="#EAA700" style="--darkreader-inline-stopcolor:#bb8600" />
        </linearGradient>
        <linearGradient id="W" x1="128.155" x2="152.238" y1="107.49" y2="107.49" gradientUnits="userSpaceOnUse">
            <stop stop-color="#F5BE00" style="--darkreader-inline-stopcolor:#c49800" />
            <stop offset="1" stop-color="#EAA700" style="--darkreader-inline-stopcolor:#bb8600" />
        </linearGradient>
        <linearGradient id="X" x1="123.607" x2="156.922" y1="104.345" y2="104.345" gradientUnits="userSpaceOnUse">
            <stop stop-color="#F5BE00" style="--darkreader-inline-stopcolor:#c49800" />
            <stop offset="1" stop-color="#EAA700" style="--darkreader-inline-stopcolor:#bb8600" />
        </linearGradient>
        <linearGradient id="Z" x1="128.155" x2="152.238" y1="97.589" y2="97.589" gradientUnits="userSpaceOnUse">
            <stop stop-color="#F5BE00" style="--darkreader-inline-stopcolor:#c49800" />
            <stop offset="1" stop-color="#EAA700" style="--darkreader-inline-stopcolor:#bb8600" />
        </linearGradient>
        <linearGradient id="aa" x1="123.607" x2="156.922" y1="95.247" y2="95.247" gradientUnits="userSpaceOnUse">
            <stop stop-color="#F5BE00" style="--darkreader-inline-stopcolor:#c49800" />
            <stop offset="1" stop-color="#EAA700" style="--darkreader-inline-stopcolor:#bb8600" />
        </linearGradient>
        <linearGradient id="ac" x1="128.155" x2="152.238" y1="88.491" y2="88.491" gradientUnits="userSpaceOnUse">
            <stop stop-color="#F5BE00" style="--darkreader-inline-stopcolor:#c49800" />
            <stop offset="1" stop-color="#EAA700" style="--darkreader-inline-stopcolor:#bb8600" />
        </linearGradient>
        <linearGradient id="a" x1="51.689" x2="93.581" y1="68.53" y2="68.53" gradientUnits="userSpaceOnUse">
            <stop offset=".314" stop-color="#EAAE73" style="--darkreader-inline-stopcolor:#804913" />
            <stop offset="1" stop-color="#EA9F5E" style="--darkreader-inline-stopcolor:#8e4c12" />
        </linearGradient>
        <linearGradient id="af" x1="101.216" x2="134.531" y1="114.999" y2="114.999" gradientUnits="userSpaceOnUse">
            <stop stop-color="#F5BE00" style="--darkreader-inline-stopcolor:#c49800" />
            <stop offset="1" stop-color="#EAA700" style="--darkreader-inline-stopcolor:#bb8600" />
        </linearGradient>
        <linearGradient id="ah" x1="105.765" x2="129.848" y1="108.242" y2="108.242" gradientUnits="userSpaceOnUse">
            <stop stop-color="#F5BE00" style="--darkreader-inline-stopcolor:#c49800" />
            <stop offset="1" stop-color="#EAA700" style="--darkreader-inline-stopcolor:#bb8600" />
        </linearGradient>
        <linearGradient id="ai" x1="101.216" x2="134.531" y1="105.901" y2="105.901" gradientUnits="userSpaceOnUse">
            <stop stop-color="#F5BE00" style="--darkreader-inline-stopcolor:#c49800" />
            <stop offset="1" stop-color="#EAA700" style="--darkreader-inline-stopcolor:#bb8600" />
        </linearGradient>
        <linearGradient id="ak" x1="105.765" x2="129.848" y1="99.145" y2="99.145" gradientUnits="userSpaceOnUse">
            <stop stop-color="#F5BE00" style="--darkreader-inline-stopcolor:#c49800" />
            <stop offset="1" stop-color="#EAA700" style="--darkreader-inline-stopcolor:#bb8600" />
        </linearGradient>
        <linearGradient id="aE" x1="138.579" x2="171.948" y1="176.681" y2="175.646" gradientUnits="userSpaceOnUse">
            <stop stop-color="#F5BE00" style="--darkreader-inline-stopcolor:#c49800" />
            <stop offset="1" stop-color="#EAA700" style="--darkreader-inline-stopcolor:#bb8600" />
        </linearGradient>
        <linearGradient id="aC" x1="93.966" x2="125.089" y1="187.085" y2="174.999" gradientUnits="userSpaceOnUse">
            <stop stop-color="#F5BE00" style="--darkreader-inline-stopcolor:#c49800" />
            <stop offset="1" stop-color="#EAA700" style="--darkreader-inline-stopcolor:#bb8600" />
        </linearGradient>
        <linearGradient id="aA" x1="38.712" x2="69.834" y1="168.123" y2="156.037" gradientUnits="userSpaceOnUse">
            <stop stop-color="#F5BE00" style="--darkreader-inline-stopcolor:#c49800" />
            <stop offset="1" stop-color="#EAA700" style="--darkreader-inline-stopcolor:#bb8600" />
        </linearGradient>
        <linearGradient id="ay" x1="120.511" x2="151.633" y1="178.96" y2="166.874" gradientUnits="userSpaceOnUse">
            <stop stop-color="#F5BE00" style="--darkreader-inline-stopcolor:#c49800" />
            <stop offset="1" stop-color="#EAA700" style="--darkreader-inline-stopcolor:#bb8600" />
        </linearGradient>
        <linearGradient id="aG" x1="52.651" x2="19.282" y1="166.182" y2="165.147" gradientUnits="userSpaceOnUse">
            <stop stop-color="#F5BE00" style="--darkreader-inline-stopcolor:#c49800" />
            <stop offset="1" stop-color="#EAA700" style="--darkreader-inline-stopcolor:#bb8600" />
        </linearGradient>
        <radialGradient id="ax" cx="0" cy="0" r="1" gradientTransform="rotate(-7.198 699.162 -628.077) scale(35.9158)"
            gradientUnits="userSpaceOnUse">
            <stop stop-color="#FFFFC6" stop-opacity=".2" style="--darkreader-inline-stopcolor:#404000" />
            <stop offset="1" stop-color="#FFFFC6" stop-opacity="0" style="--darkreader-inline-stopcolor:#404000" />
        </radialGradient>
        <radialGradient id="aq" cx="0" cy="0" r="1" gradientTransform="rotate(-7.198 1116.187 -654.312) scale(35.9158)"
            gradientUnits="userSpaceOnUse">
            <stop stop-color="#FFFFC6" stop-opacity=".2" style="--darkreader-inline-stopcolor:#404000" />
            <stop offset="1" stop-color="#FFFFC6" stop-opacity="0" style="--darkreader-inline-stopcolor:#404000" />
        </radialGradient>
        <radialGradient id="at" cx="0" cy="0" r="1" gradientTransform="rotate(-7.198 585.302 -728.46) scale(35.9158)"
            gradientUnits="userSpaceOnUse">
            <stop stop-color="#FFFFC6" stop-opacity=".2" style="--darkreader-inline-stopcolor:#404000" />
            <stop offset="1" stop-color="#FFFFC6" stop-opacity="0" style="--darkreader-inline-stopcolor:#404000" />
        </radialGradient>
        <radialGradient id="au" cx="0" cy="0" r="1" gradientTransform="rotate(-7.198 1216.57 -768.163) scale(35.9158)"
            gradientUnits="userSpaceOnUse">
            <stop stop-color="#FFFFC6" stop-opacity=".2" style="--darkreader-inline-stopcolor:#404000" />
            <stop offset="1" stop-color="#FFFFC6" stop-opacity="0" style="--darkreader-inline-stopcolor:#404000" />
        </radialGradient>
        <radialGradient id="av" cx="0" cy="0" r="1" gradientTransform="rotate(-7.198 559.072 -1145.49) scale(35.9158)"
            gradientUnits="userSpaceOnUse">
            <stop stop-color="#FFFFC6" stop-opacity=".2" style="--darkreader-inline-stopcolor:#404000" />
            <stop offset="1" stop-color="#FFFFC6" stop-opacity="0" style="--darkreader-inline-stopcolor:#404000" />
        </radialGradient>
        <radialGradient id="ar" cx="0" cy="0" r="1" gradientTransform="rotate(-7.198 659.457 -1259.35) scale(35.9158)"
            gradientUnits="userSpaceOnUse">
            <stop stop-color="#FFFFC6" stop-opacity=".2" style="--darkreader-inline-stopcolor:#404000" />
            <stop offset="1" stop-color="#FFFFC6" stop-opacity="0" style="--darkreader-inline-stopcolor:#404000" />
        </radialGradient>
        <radialGradient id="as" cx="0" cy="0" r="1" gradientTransform="rotate(-7.198 1190.345 -1185.2) scale(35.9158)"
            gradientUnits="userSpaceOnUse">
            <stop stop-color="#FFFFC6" stop-opacity=".2" style="--darkreader-inline-stopcolor:#404000" />
            <stop offset="1" stop-color="#FFFFC6" stop-opacity="0" style="--darkreader-inline-stopcolor:#404000" />
        </radialGradient>
        <radialGradient id="ap" cx="0" cy="0" r="1"
            gradientTransform="matrix(33.08735 -4.17886 4.17887 33.08745 84.683 109.036)"
            gradientUnits="userSpaceOnUse">
            <stop stop-color="#FFFFC6" stop-opacity=".2" style="--darkreader-inline-stopcolor:#404000" />
            <stop offset="1" stop-color="#FFFFC6" stop-opacity="0" style="--darkreader-inline-stopcolor:#404000" />
        </radialGradient>
        <radialGradient id="ao" cx="0" cy="0" r="1" gradientTransform="rotate(-7.198 866.554 -1295.014) scale(33.3502)"
            gradientUnits="userSpaceOnUse">
            <stop stop-color="#FFFFC6" stop-opacity=".2" style="--darkreader-inline-stopcolor:#404000" />
            <stop offset="1" stop-color="#FFFFC6" stop-opacity="0" style="--darkreader-inline-stopcolor:#404000" />
        </radialGradient>
        <radialGradient id="an" cx="0" cy="0" r="1"
            gradientTransform="matrix(33.08745 -4.17887 4.17886 33.08735 121.56 61.498)" gradientUnits="userSpaceOnUse">
            <stop stop-color="#FFFFC6" stop-opacity=".2" style="--darkreader-inline-stopcolor:#404000" />
            <stop offset="1" stop-color="#FFFFC6" stop-opacity="0" style="--darkreader-inline-stopcolor:#404000" />
        </radialGradient>
        <radialGradient id="am" cx="0" cy="0" r="1" gradientTransform="rotate(-7.198 1226.009 -978.108) scale(33.3502)"
            gradientUnits="userSpaceOnUse">
            <stop stop-color="#FFFFC6" stop-opacity=".2" style="--darkreader-inline-stopcolor:#404000" />
            <stop offset="1" stop-color="#FFFFC6" stop-opacity="0" style="--darkreader-inline-stopcolor:#404000" />
        </radialGradient>
        <radialGradient id="aw" cx="0" cy="0" r="1" gradientTransform="rotate(-7.198 1076.485 -1285.576) scale(35.9158)"
            gradientUnits="userSpaceOnUse">
            <stop stop-color="#FFFFC6" stop-opacity=".2" style="--darkreader-inline-stopcolor:#404000" />
            <stop offset="1" stop-color="#FFFFC6" stop-opacity="0" style="--darkreader-inline-stopcolor:#404000" />
        </radialGradient>
    </defs>
</svg>